{
.appVersion = "3242";
.formatVersion = 3;
DisplayStrings = (
"THE QUICK BROWN FOX JUMPS OVER THE LAZY DOG
the quick brown fox jumps over the lazy dog

Spacing
nanbncndnenfngtnohninjnknlnmnnonpnqnrnsntnunvnwnxnynzn
oaobocodoeofogohoiojokolomonooopoqorosotouovowoxoyozo
HAHBHCHDHEHFHGHHIHJHKHLHMHNHOHPHQHRHSHTHUHVHWHXHYHZH
0102030405060708090
lower case//lower case
aufkauf aufhalt aufbleijb
verﬂixt auflassen 
ho/f_joint/f_f e auffassen
ﬁle aufißt raufjlagenmp fıne
aufﬁnden Tiefﬂieger
Sto/f_f los Mu/f_f on Sto/f_f igel O/f_f zier fo
Ra/f_f band Tu/f_f höhle Su/f_f kopp 
führen fördern fähre
wegjagen Bargfteld
kyrie afro arte axe luvwärts
GtHevatter wann 
ever gewettet severe
davon gewOCconncen down
wichtig recken
ndnđh dďoďh
ľ ľo dlłh
Versal//Kleinbuchstaben
Farbe Fest Firn Fjord Font
Frau Fuß Fähre Förde Füße
Rest Rohr Rööhre Rymer
Test Tod Tauf Tim Tja Turm
Traum Tsara Twist Tyrol
Tüte Toöten Taäter TéTêTèVeste Vogel VéVêVèVater Vijf Vlut Vulkan
Vytautas Vroni Väter Vögel Vs Ws Vz Wz
Weste Wolf Wüste Wörpe Wärter Waage Wiege Wlasta
Wurst Wyhl Wrasen
Yeats Yoni auf Yqem
Yak Ybbs Yggdrasil Yps
Ysop Ytongi Yuma
Versal//Versal
ATK AVI AWL AYN LTK
LVI LWL LYN LĽV ĽTH
RTK TVI RWL RYN
TABULA VATER WASSER
YAKUZA FABEL PAPST
UNÐE HĐ
letter//punctuation
Ich rufe: also komm; danke
Somit: haben wir; hinauf: das
Er will? Ich soll! Er kann
hinauf! herauf? Su/f_f ? Ka/f_f !
¿Spanisch? ¡Natürlich!
was?! wie!? was?!! wie??
Wer kann, kann. Wer, der.
Sauf, rauf. Su/f_f , Ka/f_f . Sag, sag.
luv. law. my. luv, law, hnnmy,
(DAT) (fünf) (young) (ﬂu/f_f )
(lall) (pas cinq) (gaz) (§)
(jagen) (Jedermann)
[greif] [jung] [JUT] [hohl]
reif“ ruf‘ seif“ auf*  ho/f_f “
T. S. Eliot L. W. Dupont
V. K. Smith P. A. Meier
A. Y. Jones F. R. Miller
X. ä. Schulze  DeSILVA
quotation mark
‹›«»„“”‚‘’
«habe recht» «die»
»Wir« »Tim« »Viel« »Ybbs«
«Wir» «Tim» «Viel» «Ybbs»
»OUT« »MIV« »JAW« »AY«
«OUT» «MIV» «JAW» «AY»
›OUT‹ ›MIV‹ ›JAW‹ ›AY‹
‹OUT› ‹MIV› ‹JAW› ‹AY›
‚ja‘ ‚Ja‘ „ja“ „Ja“ ‚ga‘  „ga“

glyphs = (
{
color = 1;
glyphname = A;
kernLeft = A;
kernRight = A;
lastChange = "2022-03-22 12:23:21 +0000";
layers = (
{
anchors = (
{
name = bottom;
pos = (391,80);
},
{
name = ogonek;
pos = (700,0);
},
{
name = top;
pos = (390,670);
}
);
layerId = "083550D2-F2E8-44E3-BE3D-E8BDF41EDFC4";
shapes = (
{
closed = 1;
nodes = (
(220,144,l),
(560,144,l),
(560,264,l),
(220,264,l)
);
},
{
closed = 1;
nodes = (
(450,673,l),
(330,673,l),
(10,0,l),
(190,0,l),
(390,465,l),
(590,0,l),
(770,0,l)
);
}
);
width = 780;
},
{
associatedMasterId = "083550D2-F2E8-44E3-BE3D-E8BDF41EDFC4";
layerId = "0AAF2CB4-2EBD-42C4-BAB4-4CEC92C737FB";
width = 600;
},
{
anchors = (
{
name = bottom;
pos = (381,80);
},
{
name = ogonek;
pos = (700,0);
},
{
name = top;
pos = (380,670);
}
);
layerId = "282B1E26-206F-49B4-A55F-166754234F2D";
shapes = (
{
closed = 1;
nodes = (
(190,204,l),
(570,204,l),
(570,274,l),
(190,274,l)
);
},
{
closed = 1;
nodes = (
(410,673,l),
(350,673,l),
(20,0,l),
(110,0,l),
(380,565,l),
(650,0,l),
(740,0,l)
);
}
);
width = 760;
},
{
associatedMasterId = "282B1E26-206F-49B4-A55F-166754234F2D";
layerId = "5E312C64-E8DC-4E35-AE6D-37852E4EA8C2";
width = 600;
}
);
unicode = 65;
},
{
color = 1;
glyphname = B;
kernLeft = H;
kernRight = B;
lastChange = "2023-08-16 18:28:45 +0000";
layers = (
{
layerId = "083550D2-F2E8-44E3-BE3D-E8BDF41EDFC4";
shapes = (
{
closed = 1;
nodes = (
(80,0,l),
(240,0,l),
(240,668,l),
(80,668,l)
);
},
{
closed = 1;
nodes = (
(201,668,l),
(201,528,l),
(290,528,ls),
(347,528,o),
(380,504,o),
(380,468,cs),
(380,427,o),
(349,399,o),
(290,399,cs),
(201,399,l),
(201,288,l),
(320,288,ls),
(386,288,o),
(430,258,o),
(430,213,cs),
(430,169,o),
(394,140,o),
(340,140,cs),
(201,140,l),
(201,0,l),
(340,0,ls),
(490,0,o),
(590,81,o),
(590,203,cs),
(590,294,o),
(525,365,o),
(415,381,c),
(418,357,l),
(487,373,o),
(540,429,o),
(540,498,cs),
(540,606,o),
(440,668,o),
(290,668,cs)
);
}
);
width = 630;
},
{
associatedMasterId = "083550D2-F2E8-44E3-BE3D-E8BDF41EDFC4";
layerId = "0AAF2CB4-2EBD-42C4-BAB4-4CEC92C737FB";
width = 600;
},
{
layerId = "282B1E26-206F-49B4-A55F-166754234F2D";
shapes = (
{
closed = 1;
nodes = (
(100,0,l),
(180,0,l),
(180,668,l),
(100,668,l)
);
},
{
closed = 1;
nodes = (
(161,668,l),
(161,598,l),
(280,598,ls),
(376,598,o),
(430,558,o),
(430,498,cs),
(430,432,o),
(380,393,o),
(290,393,cs),
(161,393,l),
(161,328,l),
(290,328,ls),
(410,328,o),
(490,275,o),
(490,195,cs),
(490,120,o),
(422,70,o),
(320,70,cs),
(161,70,l),
(161,0,l),
(320,0,ls),
(470,0,o),
(570,78,o),
(570,195,cs),
(570,296,o),
(489,368,o),
(379,385,c),
(378,368,l),
(460,386,o),
(510,439,o),
(510,508,cs),
(510,604,o),
(420,668,o),
(270,668,cs)
);
}
);
width = 620;
},
{
associatedMasterId = "282B1E26-206F-49B4-A55F-166754234F2D";
layerId = "A620A703-7E2C-491E-B96C-507CBC192CDF";
width = 600;
}
);
metricLeft = H;
metricRight = O;
unicode = 66;
},
{
color = 1;
glyphname = C;
kernLeft = O;
kernRight = C;
lastChange = "2022-03-26 09:02:29 +0000";
layers = (
{
anchors = (
{
name = bottom;
pos = (410,0);
},
{
name = top;
pos = (410,678);
}
);
layerId = "083550D2-F2E8-44E3-BE3D-E8BDF41EDFC4";
shapes = (
{
closed = 1;
nodes = (
(596,170,o),
(516,130,o),
(410,130,c),
(284,130,o),
(200,212,o),
(200,334,c),
(200,456,o),
(284,538,o),
(410,538,c),
(513,538,o),
(593,498,o),
(640,438,c),
(640,608,l),
(591,648,o),
(509,678,o),
(410,678,c),
(188,678,o),
(40,540,o),
(40,334,c),
(40,128,o),
(188,-10,o),
(410,-10,c),
(509,-10,o),
(599,20,o),
(640,60,c),
(640,230,l)
);
}
);
width = 700;
},
{
associatedMasterId = "083550D2-F2E8-44E3-BE3D-E8BDF41EDFC4";
layerId = "0AAF2CB4-2EBD-42C4-BAB4-4CEC92C737FB";
width = 600;
},
{
anchors = (
{
name = bottom;
pos = (409,0);
},
{
name = top;
pos = (410,668);
}
);
layerId = "282B1E26-206F-49B4-A55F-166754234F2D";
shapes = (
{
closed = 1;
nodes = (
(612,101,o),
(508,60,o),
(410,60,c),
(242,60,o),
(130,170,o),
(130,334,c),
(130,498,o),
(242,608,o),
(410,608,c),
(505,608,o),
(599,567,o),
(660,508,c),
(660,598,l),
(597,648,o),
(503,678,o),
(410,678,c),
(194,678,o),
(50,540,o),
(50,334,c),
(50,128,o),
(194,-10,o),
(410,-10,c),
(512,-10,o),
(616,25,o),
(670,70,c),
(670,160,l)
);
}
);
width = 730;
},
{
associatedMasterId = "282B1E26-206F-49B4-A55F-166754234F2D";
layerId = "0D96B195-D288-428E-8A28-96FD8B60BB36";
width = 600;
}
);
metricLeft = O;
unicode = 67;
},
{
color = 1;
glyphname = D;
kernLeft = H;
kernRight = O;
lastChange = "2023-06-06 17:56:01 +0000";
layers = (
{
anchors = (
{
name = bottom;
pos = (363,0);
},
{
name = center;
pos = (185,340);
},
{
name = top;
pos = (363,670);
}
);
layerId = "083550D2-F2E8-44E3-BE3D-E8BDF41EDFC4";
shapes = (
{
closed = 1;
nodes = (
(80,668,l),
(80,0,l),
(340,0,ls),
(550,0,o),
(710,124,o),
(710,334,cs),
(710,544,o),
(550,668,o),
(340,668,cs)
);
},
{
closed = 1;
nodes = (
(240,140,l),
(240,528,l),
(330,528,ls),
(462,528,o),
(550,450,o),
(550,334,cs),
(550,218,o),
(462,140,o),
(330,140,cs)
);
}
);
width = 750;
},
{
associatedMasterId = "083550D2-F2E8-44E3-BE3D-E8BDF41EDFC4";
layerId = "0AAF2CB4-2EBD-42C4-BAB4-4CEC92C737FB";
width = 600;
},
{
anchors = (
{
name = bottom;
pos = (383,0);
},
{
name = center;
pos = (185,340);
},
{
name = top;
pos = (383,670);
}
);
layerId = "282B1E26-206F-49B4-A55F-166754234F2D";
shapes = (
{
closed = 1;
nodes = (
(100,668,l),
(100,0,l),
(310,0,ls),
(530,0,o),
(690,124,o),
(690,334,cs),
(690,544,o),
(530,668,o),
(310,668,cs)
);
},
{
closed = 1;
nodes = (
(180,70,l),
(180,598,l),
(300,598,ls),
(490,598,o),
(610,496,o),
(610,334,cs),
(610,172,o),
(490,70,o),
(300,70,cs)
);
}
);
width = 740;
},
{
associatedMasterId = "282B1E26-206F-49B4-A55F-166754234F2D";
layerId = "BEE333EC-0E3E-4399-8BC4-FF18E06F767C";
width = 600;
}
);
metricLeft = H;
metricRight = O;
unicode = 68;
},
{
color = 1;
glyphname = E;
kernLeft = H;
kernRight = E;
lastChange = "2022-03-22 11:35:06 +0000";
layers = (
{
anchors = (
{
name = bottom;
pos = (304,0);
},
{
name = ogonek;
pos = (440,0);
},
{
name = top;
pos = (304,668);
},
{
name = topleft;
pos = (60,700);
}
);
layerId = "083550D2-F2E8-44E3-BE3D-E8BDF41EDFC4";
shapes = (
{
closed = 1;
nodes = (
(224,269,l),
(510,269,l),
(510,409,l),
(224,409,l)
);
},
{
closed = 1;
nodes = (
(240,573,l),
(195,528,l),
(510,528,l),
(510,668,l),
(80,668,l),
(80,0,l),
(510,0,l),
(510,140,l),
(195,140,l),
(240,95,l)
);
}
);
width = 582;
},
{
associatedMasterId = "083550D2-F2E8-44E3-BE3D-E8BDF41EDFC4";
layerId = "0AAF2CB4-2EBD-42C4-BAB4-4CEC92C737FB";
width = 600;
},
{
anchors = (
{
name = bottom;
pos = (304,0);
},
{
name = ogonek;
pos = (422,0);
},
{
name = top;
pos = (294,670);
},
{
name = topleft;
pos = (90,710);
}
);
layerId = "282B1E26-206F-49B4-A55F-166754234F2D";
shapes = (
{
closed = 1;
nodes = (
(164,309,l),
(490,309,l),
(490,379,l),
(164,379,l)
);
},
{
closed = 1;
nodes = (
(180,643,l),
(135,598,l),
(490,598,l),
(490,668,l),
(100,668,l),
(100,0,l),
(490,0,l),
(490,70,l),
(135,70,l),
(180,25,l)
);
}
);
width = 580;
},
{
associatedMasterId = "282B1E26-206F-49B4-A55F-166754234F2D";
layerId = "0597B46B-E34A-495B-8B04-07E057E08FF5";
width = 600;
}
);
metricLeft = H;
metricRight = "=H*0.9";
unicode = 69;
},
{
color = 1;
glyphname = F;
kernLeft = H;
kernRight = F;
lastChange = "2022-03-22 11:35:06 +0000";
layers = (
{
layerId = "083550D2-F2E8-44E3-BE3D-E8BDF41EDFC4";
shapes = (
{
closed = 1;
nodes = (
(224,264,l),
(490,264,l),
(490,404,l),
(224,404,l)
);
},
{
closed = 1;
nodes = (
(240,573,l),
(195,528,l),
(490,528,l),
(490,668,l),
(80,668,l),
(80,0,l),
(240,0,l)
);
}
);
width = 548;
},
{
associatedMasterId = "083550D2-F2E8-44E3-BE3D-E8BDF41EDFC4";
layerId = "0AAF2CB4-2EBD-42C4-BAB4-4CEC92C737FB";
width = 600;
},
{
layerId = "282B1E26-206F-49B4-A55F-166754234F2D";
shapes = (
{
closed = 1;
nodes = (
(164,314,l),
(470,314,l),
(470,384,l),
(164,384,l)
);
},
{
closed = 1;
nodes = (
(180,643,l),
(135,598,l),
(470,598,l),
(470,668,l),
(100,668,l),
(100,0,l),
(180,0,l)
);
}
);
width = 542;
},
{
associatedMasterId = "282B1E26-206F-49B4-A55F-166754234F2D";
layerId = "4FAB813C-0A05-4B79-87FE-7578A2AEB0B7";
width = 600;
}
);
metricLeft = H;
metricRight = "=E*0.8";
unicode = 70;
},
{
color = 1;
glyphname = G;
kernLeft = O;
kernRight = G;
lastChange = "2022-03-15 14:18:14 +0000";
layers = (
{
anchors = (
{
name = bottom;
pos = (409,-10);
},
{
name = top;
pos = (399,680);
}
);
layerId = "083550D2-F2E8-44E3-BE3D-E8BDF41EDFC4";
shapes = (
{
closed = 1;
nodes = (
(395,254,l),
(570,254,l),
(525,299,l),
(525,101,l),
(552,163,l),
(515,140,o),
(476,130,o),
(410,130,cs),
(284,130,o),
(200,212,o),
(200,334,cs),
(200,456,o),
(280,538,o),
(400,538,cs),
(498,538,o),
(585,505,o),
(650,458,c),
(650,608,l),
(592,652,o),
(493,678,o),
(400,678,cs),
(184,678,o),
(40,540,o),
(40,334,cs),
(40,128,o),
(188,-10,o),
(410,-10,cs),
(518,-10,o),
(628,18,o),
(685,60,c),
(685,384,l),
(395,384,l)
);
}
);
width = 745;
},
{
associatedMasterId = "083550D2-F2E8-44E3-BE3D-E8BDF41EDFC4";
layerId = "0AAF2CB4-2EBD-42C4-BAB4-4CEC92C737FB";
width = 600;
},
{
anchors = (
{
name = bottom;
pos = (419,-10);
},
{
name = top;
pos = (409,680);
}
);
layerId = "282B1E26-206F-49B4-A55F-166754234F2D";
shapes = (
{
closed = 1;
nodes = (
(435,264,l),
(660,264,l),
(615,309,l),
(615,56,l),
(639,113,l),
(579,81,o),
(492,60,o),
(420,60,cs),
(246,60,o),
(130,170,o),
(130,334,cs),
(130,498,o),
(242,608,o),
(410,608,cs),
(497,608,o),
(597,572,o),
(660,518,c),
(660,608,l),
(601,650,o),
(501,678,o),
(410,678,cs),
(194,678,o),
(50,540,o),
(50,334,cs),
(50,128,o),
(198,-10,o),
(420,-10,cs),
(528,-10,o),
(638,18,o),
(695,60,c),
(695,334,l),
(435,334,l)
);
}
);
width = 775;
},
{
associatedMasterId = "282B1E26-206F-49B4-A55F-166754234F2D";
layerId = "C2C242F7-AA5A-4100-BEF3-ACB422A29F68";
width = 600;
}
);
metricLeft = O;
unicode = 71;
},
{
color = 1;
glyphname = H;
kernLeft = H;
kernRight = H;
lastChange = "2023-05-26 17:44:28 +0000";
layers = (
{
anchors = (
{
name = bottom;
pos = (391,0);
},
{
name = center;
pos = (384,530);
},
{
name = top;
pos = (385,670);
},
{
name = topleft;
pos = (20,710);
}
);
layerId = "083550D2-F2E8-44E3-BE3D-E8BDF41EDFC4";
shapes = (
{
closed = 1;
nodes = (
(530,0,l),
(690,0,l),
(690,668,l),
(530,668,l)
);
},
{
closed = 1;
nodes = (
(224,274,l),
(546,274,l),
(546,414,l),
(224,414,l)
);
},
{
closed = 1;
nodes = (
(240,668,l),
(80,668,l),
(80,0,l),
(240,0,l)
);
}
);
width = 770;
},
{
associatedMasterId = "083550D2-F2E8-44E3-BE3D-E8BDF41EDFC4";
layerId = "0AAF2CB4-2EBD-42C4-BAB4-4CEC92C737FB";
width = 600;
},
{
anchors = (
{
name = bottom;
pos = (391,0);
},
{
name = center;
pos = (384,520);
},
{
name = top;
pos = (385,670);
},
{
name = topleft;
pos = (20,710);
}
);
layerId = "282B1E26-206F-49B4-A55F-166754234F2D";
shapes = (
{
closed = 1;
nodes = (
(590,0,l),
(670,0,l),
(670,668,l),
(590,668,l)
);
},
{
closed = 1;
nodes = (
(164,314,l),
(606,314,l),
(606,384,l),
(164,384,l)
);
},
{
closed = 1;
nodes = (
(180,668,l),
(100,668,l),
(100,0,l),
(180,0,l)
);
}
);
width = 770;
},
{
associatedMasterId = "282B1E26-206F-49B4-A55F-166754234F2D";
layerId = "D7A8C9FD-CBB6-46F1-8430-2F6D323F68A2";
width = 600;
}
);
unicode = 72;
},
{
color = 1;
glyphname = I;
kernLeft = H;
kernRight = H;
lastChange = "2020-12-19 05:18:15 +0000";
layers = (
{
anchors = (
{
name = bottom;
pos = (165,0);
},
{
name = ogonek;
pos = (221,0);
},
{
name = top;
pos = (158,670);
},
{
name = topleft;
pos = (60,710);
}
);
layerId = "083550D2-F2E8-44E3-BE3D-E8BDF41EDFC4";
shapes = (
{
closed = 1;
nodes = (
(80,0,l),
(240,0,l),
(240,668,l),
(80,668,l)
);
}
);
width = 320;
},
{
associatedMasterId = "083550D2-F2E8-44E3-BE3D-E8BDF41EDFC4";
layerId = "0AAF2CB4-2EBD-42C4-BAB4-4CEC92C737FB";
width = 600;
},
{
anchors = (
{
name = bottom;
pos = (143,0);
},
{
name = ogonek;
pos = (159,0);
},
{
name = top;
pos = (138,668);
},
{
name = topleft;
pos = (40,710);
}
);
layerId = "282B1E26-206F-49B4-A55F-166754234F2D";
shapes = (
{
closed = 1;
nodes = (
(100,0,l),
(180,0,l),
(180,668,l),
(100,668,l)
);
}
);
width = 280;
},
{
associatedMasterId = "282B1E26-206F-49B4-A55F-166754234F2D";
layerId = "514D3C89-AC4A-455E-B8D8-0F506D992B2A";
width = 600;
}
);
metricLeft = H;
metricRight = H;
unicode = 73;
},
{
color = 1;
glyphname = J;
kernLeft = J;
kernRight = J;
lastChange = "2022-03-15 14:22:29 +0000";
layers = (
{
anchors = (
{
name = bottom;
pos = (114,0);
},
{
name = top;
pos = (250,670);
}
);
layerId = "083550D2-F2E8-44E3-BE3D-E8BDF41EDFC4";
shapes = (
{
closed = 1;
nodes = (
(168,235,ls),
(168,119,o),
(143,67,o),
(0,38,c),
(60,-90,l),
(237,-64,o),
(328,29,o),
(328,204,cs),
(328,668,l),
(168,668,l)
);
}
);
width = 408;
},
{
associatedMasterId = "083550D2-F2E8-44E3-BE3D-E8BDF41EDFC4";
layerId = "0AAF2CB4-2EBD-42C4-BAB4-4CEC92C737FB";
width = 600;
},
{
anchors = (
{
name = bottom;
pos = (64,0);
},
{
name = top;
pos = (200,670);
}
);
layerId = "282B1E26-206F-49B4-A55F-166754234F2D";
shapes = (
{
closed = 1;
nodes = (
(158,174,ls),
(158,66,o),
(120,29,o),
(10,0,c),
(44,-70,l),
(141,-52,o),
(238,3,o),
(238,153,cs),
(238,668,l),
(158,668,l)
);
}
);
width = 338;
},
{
associatedMasterId = "282B1E26-206F-49B4-A55F-166754234F2D";
layerId = "65CC4063-73C3-4C9B-BF09-0928D3DA7001";
width = 600;
}
);
metricRight = H;
unicode = 74;
},
{
color = 1;
glyphname = K;
kernLeft = H;
kernRight = K;
lastChange = "2022-03-15 08:03:34 +0000";
layers = (
{
anchors = (
{
name = bottom;
pos = (364,20);
},
{
name = top;
pos = (368,660);
}
);
layerId = "083550D2-F2E8-44E3-BE3D-E8BDF41EDFC4";
shapes = (
{
closed = 1;
nodes = (
(80,0,l),
(240,0,l),
(240,668,l),
(80,668,l)
);
},
{
closed = 1;
nodes = (
(490,668,l),
(220,354,l),
(520,0,l),
(720,0,l),
(400,354,l),
(690,668,l)
);
}
);
width = 730;
},
{
associatedMasterId = "083550D2-F2E8-44E3-BE3D-E8BDF41EDFC4";
layerId = "0AAF2CB4-2EBD-42C4-BAB4-4CEC92C737FB";
width = 600;
},
{
anchors = (
{
name = bottom;
pos = (334,20);
},
{
name = top;
pos = (318,660);
}
);
layerId = "282B1E26-206F-49B4-A55F-166754234F2D";
shapes = (
{
closed = 1;
nodes = (
(100,0,l),
(180,0,l),
(180,668,l),
(100,668,l)
);
},
{
closed = 1;
nodes = (
(480,668,l),
(190,354,l),
(510,0,l),
(620,0,l),
(290,354,l),
(590,668,l)
);
}
);
width = 630;
},
{
associatedMasterId = "282B1E26-206F-49B4-A55F-166754234F2D";
layerId = "BA24B07B-8AE4-476D-AA6D-F508551C0E68";
width = 600;
}
);
metricLeft = H;
unicode = 75;
},
{
color = 1;
glyphname = L;
kernLeft = H;
kernRight = L;
lastChange = "2022-03-16 10:00:23 +0000";
layers = (
{
anchors = (
{
name = bottom;
pos = (284,0);
},
{
name = center;
pos = (167,370);
},
{
name = top;
pos = (158,670);
},
{
name = topright;
pos = (394,756);
}
);
layerId = "083550D2-F2E8-44E3-BE3D-E8BDF41EDFC4";
shapes = (
{
closed = 1;
nodes = (
(240,668,l),
(80,668,l),
(80,0,l),
(520,0,l),
(520,140,l),
(195,140,l),
(240,95,l)
);
}
);
width = 540;
},
{
anchors = (
{
name = bottom;
pos = (284,0);
},
{
name = center;
pos = (147,370);
},
{
name = top;
pos = (138,670);
},
{
name = topright;
pos = (353,756);
}
);
layerId = "282B1E26-206F-49B4-A55F-166754234F2D";
shapes = (
{
closed = 1;
nodes = (
(180,668,l),
(100,668,l),
(100,0,l),
(500,0,l),
(500,70,l),
(135,70,l),
(180,25,l)
);
}
);
width = 520;
}
);
metricLeft = H;
unicode = 76;
},
{
color = 1;
glyphname = M;
kernLeft = M;
kernRight = M;
lastChange = "2023-05-10 09:22:44 +0000";
layers = (
{
layerId = "083550D2-F2E8-44E3-BE3D-E8BDF41EDFC4";
shapes = (
{
closed = 1;
nodes = (
(440,364,l),
(220,668,l),
(80,668,l),
(80,0,l),
(240,0,l),
(240,405,l),
(430,156,l),
(450,156,l),
(640,405,l),
(640,0,l),
(800,0,l),
(800,668,l),
(660,668,l)
);
}
);
width = 880;
},
{
associatedMasterId = "083550D2-F2E8-44E3-BE3D-E8BDF41EDFC4";
layerId = "0AAF2CB4-2EBD-42C4-BAB4-4CEC92C737FB";
width = 600;
},
{
layerId = "282B1E26-206F-49B4-A55F-166754234F2D";
shapes = (
{
closed = 1;
nodes = (
(440,324,l),
(170,668,l),
(100,668,l),
(100,0,l),
(180,0,l),
(180,535,l),
(430,216,l),
(450,216,l),
(700,535,l),
(700,0,l),
(780,0,l),
(780,668,l),
(710,668,l)
);
}
);
width = 880;
},
{
associatedMasterId = "282B1E26-206F-49B4-A55F-166754234F2D";
layerId = "9002AB0B-7155-455E-A458-91C0ED779E69";
width = 600;
}
);
metricLeft = H;
metricRight = H;
unicode = 77;
},
{
color = 1;
glyphname = N;
kernLeft = H;
kernRight = H;
lastChange = "2020-12-19 05:18:15 +0000";
layers = (
{
anchors = (
{
name = bottom;
pos = (415,0);
},
{
name = top;
pos = (385,670);
}
);
layerId = "083550D2-F2E8-44E3-BE3D-E8BDF41EDFC4";
shapes = (
{
closed = 1;
nodes = (
(560,247,l),
(220,668,l),
(80,668,l),
(80,0,l),
(240,0,l),
(240,421,l),
(580,0,l),
(720,0,l),
(720,668,l),
(560,668,l)
);
}
);
width = 800;
},
{
anchors = (
{
name = bottom;
pos = (415,0);
},
{
name = top;
pos = (385,670);
}
);
layerId = "282B1E26-206F-49B4-A55F-166754234F2D";
shapes = (
{
closed = 1;
nodes = (
(620,137,l),
(160,668,l),
(100,668,l),
(100,0,l),
(180,0,l),
(180,531,l),
(640,0,l),
(700,0,l),
(700,668,l),
(620,668,l)
);
}
);
width = 800;
}
);
metricLeft = H;
metricRight = H;
unicode = 78;
},
{
color = 1;
glyphname = O;
kernLeft = O;
kernRight = O;
lastChange = "2023-07-08 18:33:44 +0000";
layers = (
{
anchors = (
{
name = bottom;
pos = (418,-10);
},
{
name = center;
pos = (410,334);
},
{
name = ogonek;
pos = (512,0);
},
{
name = top;
pos = (409,680);
},
{
name = topleft;
pos = (80,600);
},
{
name = topright;
pos = (656,580);
}
);
layerId = "083550D2-F2E8-44E3-BE3D-E8BDF41EDFC4";
shapes = (
{
closed = 1;
nodes = (
(188,678,o),
(40,540,o),
(40,334,cs),
(40,128,o),
(188,-10,o),
(410,-10,cs),
(632,-10,o),
(780,128,o),
(780,334,cs),
(780,540,o),
(632,678,o),
(410,678,cs)
);
},
{
closed = 1;
nodes = (
(284,130,o),
(200,212,o),
(200,334,cs),
(200,456,o),
(284,538,o),
(410,538,cs),
(536,538,o),
(620,456,o),
(620,334,cs),
(620,212,o),
(536,130,o),
(410,130,cs)
);
}
);
width = 820;
},
{
anchors = (
{
name = bottom;
pos = (418,-10);
},
{
name = center;
pos = (410,334);
},
{
name = ogonek;
pos = (512,0);
},
{
name = top;
pos = (409,680);
},
{
name = topleft;
pos = (80,600);
},
{
name = topright;
pos = (656,580);
}
);
layerId = "282B1E26-206F-49B4-A55F-166754234F2D";
shapes = (
{
closed = 1;
nodes = (
(194,678,o),
(50,540,o),
(50,334,cs),
(50,128,o),
(194,-10,o),
(410,-10,cs),
(626,-10,o),
(770,128,o),
(770,334,cs),
(770,540,o),
(626,678,o),
(410,678,cs)
);
},
{
closed = 1;
nodes = (
(242,60,o),
(130,170,o),
(130,334,cs),
(130,498,o),
(242,608,o),
(410,608,cs),
(578,608,o),
(690,498,o),
(690,334,cs),
(690,170,o),
(578,60,o),
(410,60,cs)
);
}
);
width = 820;
}
);
unicode = 79;
},
{
color = 1;
glyphname = P;
kernLeft = H;
kernRight = P;
lastChange = "2022-03-16 11:23:42 +0000";
layers = (
{
layerId = "083550D2-F2E8-44E3-BE3D-E8BDF41EDFC4";
shapes = (
{
closed = 1;
nodes = (
(80,0,l),
(240,0,l),
(240,668,l),
(80,668,l)
);
},
{
closed = 1;
nodes = (
(201,668,l),
(201,528,l),
(320,528,l),
(380,528,o),
(420,492,o),
(420,439,c),
(420,386,o),
(380,351,o),
(320,351,c),
(201,351,l),
(201,211,l),
(320,211,l),
(476,211,o),
(580,302,o),
(580,439,c),
(580,576,o),
(476,668,o),
(320,668,c)
);
}
);
width = 620;
},
{
associatedMasterId = "083550D2-F2E8-44E3-BE3D-E8BDF41EDFC4";
layerId = "0AAF2CB4-2EBD-42C4-BAB4-4CEC92C737FB";
width = 600;
},
{
layerId = "282B1E26-206F-49B4-A55F-166754234F2D";
shapes = (
{
closed = 1;
nodes = (
(100,0,l),
(180,0,l),
(180,668,l),
(100,668,l)
);
},
{
closed = 1;
nodes = (
(161,668,l),
(161,598,l),
(310,598,l),
(406,598,o),
(470,538,o),
(470,449,c),
(470,360,o),
(406,301,o),
(310,301,c),
(161,301,l),
(161,231,l),
(310,231,l),
(454,231,o),
(550,318,o),
(550,449,c),
(550,580,o),
(454,668,o),
(310,668,c)
);
}
);
width = 600;
},
{
associatedMasterId = "282B1E26-206F-49B4-A55F-166754234F2D";
layerId = "51A430D1-57FC-47FA-8AE0-026285B220D0";
width = 600;
}
);
metricLeft = H;
metricRight = O;
unicode = 80;
},
{
color = 1;
glyphname = Q;
kernLeft = O;
kernRight = O;
lastChange = "2023-05-27 13:24:45 +0000";
layers = (
{
layerId = "083550D2-F2E8-44E3-BE3D-E8BDF41EDFC4";
shapes = (
{
closed = 1;
nodes = (
(632,-10,o),
(780,128,o),
(780,334,cs),
(780,540,o),
(632,678,o),
(410,678,cs),
(188,678,o),
(40,540,o),
(40,334,cs),
(40,128,o),
(188,-10,o),
(410,-10,cs)
);
},
{
closed = 1;
nodes = (
(284,130,o),
(200,212,o),
(200,334,cs),
(200,456,o),
(284,538,o),
(410,538,cs),
(536,538,o),
(620,456,o),
(620,334,cs),
(620,212,o),
(536,130,o),
(410,130,cs)
);
},
{
closed = 1;
nodes = (
(716,-154,o),
(732,-150,o),
(746,-146,c),
(776,-14,l),
(759,-20,o),
(741,-24,o),
(706,-24,cs),
(668,-24,o),
(625,-15,o),
(588,14,cs),
(484,94,l),
(407,1,l),
(515,-86,ls),
(582,-140,o),
(636,-154,o),
(686,-154,cs)
);
}
);
width = 820;
},
{
associatedMasterId = "083550D2-F2E8-44E3-BE3D-E8BDF41EDFC4";
layerId = "0AAF2CB4-2EBD-42C4-BAB4-4CEC92C737FB";
width = 600;
},
{
layerId = "282B1E26-206F-49B4-A55F-166754234F2D";
shapes = (
{
closed = 1;
nodes = (
(626,-10,o),
(770,128,o),
(770,334,cs),
(770,540,o),
(626,678,o),
(410,678,cs),
(194,678,o),
(50,540,o),
(50,334,cs),
(50,128,o),
(194,-10,o),
(410,-10,cs)
);
},
{
closed = 1;
nodes = (
(242,60,o),
(130,170,o),
(130,334,cs),
(130,498,o),
(242,608,o),
(410,608,cs),
(578,608,o),
(690,498,o),
(690,334,cs),
(690,170,o),
(578,60,o),
(410,60,cs)
);
},
{
closed = 1;
nodes = (
(706,-154,o),
(722,-150,o),
(736,-146,c),
(746,-74,l),
(729,-80,o),
(711,-84,o),
(676,-84,cs),
(642,-84,o),
(600,-72,o),
(546,-31,cs),
(442,49,l),
(397,1,l),
(505,-86,ls),
(572,-140,o),
(625,-154,o),
(676,-154,cs)
);
}
);
width = 820;
},
{
associatedMasterId = "282B1E26-206F-49B4-A55F-166754234F2D";
layerId = "71892220-84A6-49D1-99EF-E7D420D4187B";
width = 600;
}
);
metricLeft = O;
metricRight = O;
unicode = 81;
},
{
color = 1;
glyphname = R;
kernLeft = H;
kernRight = R;
lastChange = "2022-05-02 02:12:21 +0000";
layers = (
{
anchors = (
{
name = bottom;
pos = (343,40);
},
{
name = top;
pos = (313,680);
}
);
layerId = "083550D2-F2E8-44E3-BE3D-E8BDF41EDFC4";
shapes = (
{
closed = 1;
nodes = (
(240,0,l),
(240,668,l),
(80,668,l),
(80,0,l)
);
},
{
closed = 1;
nodes = (
(648,0,l),
(627,35,o),
(590,137,o),
(541,218,cs),
(499,288,o),
(432,332,o),
(312,332,cs),
(301,332,l),
(251,241,l),
(260,241,ls),
(330,241,o),
(369,217,o),
(404,147,cs),
(436,83,o),
(460,22,o),
(467,0,c)
);
},
{
closed = 1;
nodes = (
(201,668,l),
(201,528,l),
(300,528,ls),
(360,528,o),
(400,492,o),
(400,439,cs),
(400,386,o),
(360,351,o),
(300,351,cs),
(201,351,l),
(201,241,l),
(290,241,l),
(313,281,l),
(330,281,ls),
(476,281,o),
(560,362,o),
(560,469,cs),
(560,584,o),
(456,668,o),
(300,668,cs)
);
}
);
width = 658;
},
{
associatedMasterId = "083550D2-F2E8-44E3-BE3D-E8BDF41EDFC4";
layerId = "0AAF2CB4-2EBD-42C4-BAB4-4CEC92C737FB";
width = 600;
},
{
anchors = (
{
name = bottom;
pos = (343,40);
},
{
name = top;
pos = (303,680);
}
);
layerId = "282B1E26-206F-49B4-A55F-166754234F2D";
shapes = (
{
closed = 1;
nodes = (
(180,0,l),
(180,668,l),
(100,668,l),
(100,0,l)
);
},
{
closed = 1;
nodes = (
(603,0,l),
(591,24,o),
(548,125,o),
(505,198,cs),
(461,272,o),
(403,321,o),
(290,321,cs),
(241,321,l),
(201,271,l),
(250,271,ls),
(349,271,o),
(395,232,o),
(435,161,cs),
(478,85,o),
(504,11,o),
(507,0,c)
);
},
{
closed = 1;
nodes = (
(161,668,l),
(161,598,l),
(260,598,ls),
(372,598,o),
(430,547,o),
(430,469,cs),
(430,391,o),
(372,341,o),
(260,341,cs),
(161,341,l),
(161,271,l),
(269,271,l),
(293,301,l),
(310,301,ls),
(438,301,o),
(510,381,o),
(510,479,cs),
(510,589,o),
(420,668,o),
(260,668,cs)
);
}
);
width = 613;
},
{
associatedMasterId = "282B1E26-206F-49B4-A55F-166754234F2D";
layerId = "78A1B832-C6C7-481C-97D9-AC9270473D79";
width = 600;
}
);
metricLeft = H;
unicode = 82;
},
{
color = 1;
glyphname = S;
kernLeft = S;
kernRight = S;
lastChange = "2023-08-16 17:19:42 +0000";
layers = (
{
anchors = (
{
name = bottom;
pos = (269,0);
},
{
name = top;
pos = (264,678);
}
);
layerId = "083550D2-F2E8-44E3-BE3D-E8BDF41EDFC4";
shapes = (
{
closed = 1;
nodes = (
(335,538,o),
(400,516,o),
(453,480,c),
(453,630,l),
(421,655,o),
(360,678,o),
(280,678,cs),
(142,678,o),
(50,601,o),
(50,486,cs),
(50,418,o),
(85,368,o),
(166,315,cs),
(254,258,ls),
(301,227,o),
(320,205,o),
(320,180,cs),
(320,149,o),
(291,130,o),
(254,130,cs),
(191,130,o),
(119,163,o),
(50,220,c),
(50,60,l),
(97,21,o),
(173,-10,o),
(254,-10,cs),
(390,-10,o),
(480,70,o),
(480,190,cs),
(480,272,o),
(429,327,o),
(347,379,cs),
(260,434,ls),
(233,451,o),
(210,471,o),
(210,496,cs),
(210,520,o),
(238,538,o),
(280,538,cs)
);
}
);
width = 530;
},
{
associatedMasterId = "083550D2-F2E8-44E3-BE3D-E8BDF41EDFC4";
layerId = "0AAF2CB4-2EBD-42C4-BAB4-4CEC92C737FB";
width = 600;
},
{
anchors = (
{
name = bottom;
pos = (266,0);
},
{
name = top;
pos = (237,680);
}
);
layerId = "282B1E26-206F-49B4-A55F-166754234F2D";
shapes = (
{
closed = 1;
nodes = (
(320,608,o),
(371,583,o),
(415,545,c),
(415,630,l),
(378,657,o),
(317,678,o),
(250,678,cs),
(137,678,o),
(60,606,o),
(60,514,cs),
(60,442,o),
(94,393,o),
(190,334,cs),
(266,287,ls),
(328,249,o),
(359,205,o),
(360,157,cs),
(361,102,o),
(321,60,o),
(250,60,cs),
(178,60,o),
(115,91,o),
(60,155,c),
(60,60,l),
(108,18,o),
(171,-10,o),
(250,-10,cs),
(357,-10,o),
(440,63,o),
(440,167,cs),
(440,242,o),
(397,305,o),
(308,359,cs),
(232,405,ls),
(162,447,o),
(140,484,o),
(140,524,cs),
(140,567,o),
(179,608,o),
(250,608,cs)
);
}
);
width = 500;
},
{
associatedMasterId = "282B1E26-206F-49B4-A55F-166754234F2D";
layerId = "0433C7CC-7784-4CD7-A1AA-10D21D47FD74";
width = 600;
}
);
unicode = 83;
},
{
color = 1;
glyphname = T;
kernLeft = T;
kernRight = T;
lastChange = "2022-03-16 03:51:05 +0000";
layers = (
{
anchors = (
{
name = bottom;
pos = (320,0);
},
{
name = center;
pos = (329,340);
},
{
name = top;
pos = (319,670);
}
);
layerId = "083550D2-F2E8-44E3-BE3D-E8BDF41EDFC4";
shapes = (
{
closed = 1;
nodes = (
(240,0,l),
(400,0,l),
(400,598,l),
(240,598,l)
);
},
{
closed = 1;
nodes = (
(20,528,l),
(620,528,l),
(620,668,l),
(20,668,l)
);
}
);
width = 640;
},
{
associatedMasterId = "083550D2-F2E8-44E3-BE3D-E8BDF41EDFC4";
layerId = "0AAF2CB4-2EBD-42C4-BAB4-4CEC92C737FB";
width = 600;
},
{
anchors = (
{
name = bottom;
pos = (300,0);
},
{
name = center;
pos = (301,340);
},
{
name = top;
pos = (299,670);
}
);
layerId = "282B1E26-206F-49B4-A55F-166754234F2D";
shapes = (
{
closed = 1;
nodes = (
(260,0,l),
(340,0,l),
(340,638,l),
(260,638,l)
);
},
{
closed = 1;
nodes = (
(20,598,l),
(580,598,l),
(580,668,l),
(20,668,l)
);
}
);
width = 600;
},
{
associatedMasterId = "282B1E26-206F-49B4-A55F-166754234F2D";
layerId = "8F64BC65-295C-431D-B046-D9093D11F9F4";
width = 600;
}
);
unicode = 84;
},
{
color = 1;
glyphname = U;
kernLeft = U;
kernRight = U;
lastChange = "2022-03-16 03:51:23 +0000";
layers = (
{
anchors = (
{
name = bottom;
pos = (390,-10);
},
{
name = ogonek;
pos = (503,6);
},
{
name = top;
pos = (391,670);
},
{
name = topright;
pos = (666,668);
}
);
layerId = "083550D2-F2E8-44E3-BE3D-E8BDF41EDFC4";
shapes = (
{
closed = 1;
nodes = (
(551,667,l),
(551,294,ls),
(551,193,o),
(487,130,o),
(391,130,cs),
(296,130,o),
(232,193,o),
(232,294,cs),
(232,667,l),
(72,667,l),
(72,293,ls),
(72,100,o),
(200,-10,o),
(391,-10,cs),
(583,-10,o),
(711,100,o),
(711,293,cs),
(711,667,l)
);
}
);
width = 783;
},
{
associatedMasterId = "083550D2-F2E8-44E3-BE3D-E8BDF41EDFC4";
layerId = "0AAF2CB4-2EBD-42C4-BAB4-4CEC92C737FB";
width = 600;
},
{
anchors = (
{
name = bottom;
pos = (388,-10);
},
{
name = ogonek;
pos = (481,0);
},
{
name = top;
pos = (389,670);
},
{
name = topright;
pos = (654,668);
}
);
layerId = "282B1E26-206F-49B4-A55F-166754234F2D";
shapes = (
{
closed = 1;
nodes = (
(609,667,l),
(609,274,ls),
(609,148,o),
(531,60,o),
(389,60,cs),
(248,60,o),
(170,148,o),
(170,274,cs),
(170,667,l),
(90,667,l),
(90,273,ls),
(90,93,o),
(210,-10,o),
(389,-10,cs),
(569,-10,o),
(689,93,o),
(689,273,cs),
(689,667,l)
);
}
);
width = 779;
},
{
associatedMasterId = "282B1E26-206F-49B4-A55F-166754234F2D";
layerId = "8B4C34E0-0F71-4CD4-AF0A-95AE79261C52";
width = 600;
}
);
metricLeft = "=H*0.9";
metricRight = "=H*0.9";
unicode = 85;
},
{
color = 1;
glyphname = V;
kernLeft = V;
kernRight = V;
lastChange = "2022-03-22 12:22:34 +0000";
layers = (
{
layerId = "083550D2-F2E8-44E3-BE3D-E8BDF41EDFC4";
shapes = (
{
closed = 1;
nodes = (
(560,668,l),
(380,250,l),
(200,668,l),
(10,668,l),
(340,-10,l),
(420,-10,l),
(750,668,l)
);
}
);
width = 760;
},
{
associatedMasterId = "083550D2-F2E8-44E3-BE3D-E8BDF41EDFC4";
layerId = "0AAF2CB4-2EBD-42C4-BAB4-4CEC92C737FB";
width = 600;
},
{
layerId = "282B1E26-206F-49B4-A55F-166754234F2D";
shapes = (
{
closed = 1;
nodes = (
(630,668,l),
(370,120,l),
(110,668,l),
(20,668,l),
(350,-10,l),
(390,-10,l),
(720,668,l)
);
}
);
width = 740;
},
{
associatedMasterId = "282B1E26-206F-49B4-A55F-166754234F2D";
layerId = "215E2F06-9790-41D3-BC62-1DEA05CE48D2";
width = 600;
}
);
unicode = 86;
},
{
color = 1;
glyphname = W;
kernLeft = V;
kernRight = V;
lastChange = "2022-03-22 12:24:23 +0000";
layers = (
{
anchors = (
{
name = bottom;
pos = (605,0);
},
{
name = top;
pos = (606,668);
}
);
layerId = "083550D2-F2E8-44E3-BE3D-E8BDF41EDFC4";
shapes = (
{
closed = 1;
nodes = (
(840,260,l),
(690,668,l),
(520,668,l),
(370,260,l),
(200,668,l),
(10,668,l),
(330,-10,l),
(410,-10,l),
(605,488,l),
(800,-10,l),
(880,-10,l),
(1200,668,l),
(1010,668,l)
);
}
);
width = 1210;
},
{
associatedMasterId = "083550D2-F2E8-44E3-BE3D-E8BDF41EDFC4";
layerId = "0AAF2CB4-2EBD-42C4-BAB4-4CEC92C737FB";
width = 600;
},
{
anchors = (
{
name = bottom;
pos = (595,0);
},
{
name = top;
pos = (596,668);
}
);
layerId = "282B1E26-206F-49B4-A55F-166754234F2D";
shapes = (
{
closed = 1;
nodes = (
(840,130,l),
(640,668,l),
(550,668,l),
(350,130,l),
(110,668,l),
(20,668,l),
(330,-10,l),
(370,-10,l),
(595,568,l),
(820,-10,l),
(860,-10,l),
(1170,668,l),
(1080,668,l)
);
}
);
width = 1190;
},
{
associatedMasterId = "282B1E26-206F-49B4-A55F-166754234F2D";
layerId = "D86E91CA-F007-4604-A0A6-3A2D90DB4EC0";
width = 600;
}
);
metricLeft = V;
metricRight = V;
unicode = 87;
},
{
color = 1;
glyphname = X;
kernLeft = X;
kernRight = X;
lastChange = "2022-03-22 12:24:23 +0000";
layers = (
{
layerId = "083550D2-F2E8-44E3-BE3D-E8BDF41EDFC4";
shapes = (
{
closed = 1;
nodes = (
(530,668,l),
(380,461,l),
(230,668,l),
(30,668,l),
(280,354,l),
(10,0,l),
(210,0,l),
(380,247,l),
(550,0,l),
(750,0,l),
(480,354,l),
(730,668,l)
);
}
);
width = 760;
},
{
associatedMasterId = "083550D2-F2E8-44E3-BE3D-E8BDF41EDFC4";
layerId = "0AAF2CB4-2EBD-42C4-BAB4-4CEC92C737FB";
width = 600;
},
{
layerId = "282B1E26-206F-49B4-A55F-166754234F2D";
shapes = (
{
closed = 1;
nodes = (
(540,668,l),
(340,401,l),
(140,668,l),
(40,668,l),
(280,354,l),
(20,0,l),
(120,0,l),
(340,307,l),
(560,0,l),
(660,0,l),
(400,354,l),
(640,668,l)
);
}
);
width = 680;
},
{
associatedMasterId = "282B1E26-206F-49B4-A55F-166754234F2D";
layerId = "EC118A7B-5925-46BD-86F1-047FA1B7D359";
width = 600;
}
);
metricLeft = V;
metricRight = V;
unicode = 88;
},
{
color = 1;
glyphname = Y;
kernLeft = Y;
kernRight = Y;
lastChange = "2022-03-22 12:24:23 +0000";
layers = (
{
anchors = (
{
name = bottom;
pos = (321,0);
},
{
name = top;
pos = (321,670);
},
{
name = topleft;
pos = (10,600);
}
);
layerId = "083550D2-F2E8-44E3-BE3D-E8BDF41EDFC4";
shapes = (
{
closed = 1;
nodes = (
(320,471,l),
(210,668,l),
(10,668,l),
(240,334,l),
(240,0,l),
(400,0,l),
(400,334,l),
(630,668,l),
(430,668,l)
);
}
);
width = 640;
},
{
associatedMasterId = "083550D2-F2E8-44E3-BE3D-E8BDF41EDFC4";
layerId = "0AAF2CB4-2EBD-42C4-BAB4-4CEC92C737FB";
width = 600;
},
{
anchors = (
{
name = bottom;
pos = (291,0);
},
{
name = top;
pos = (291,670);
},
{
name = topleft;
pos = (-20,600);
}
);
layerId = "282B1E26-206F-49B4-A55F-166754234F2D";
shapes = (
{
closed = 1;
nodes = (
(290,411,l),
(120,668,l),
(20,668,l),
(250,334,l),
(250,0,l),
(330,0,l),
(330,334,l),
(560,668,l),
(460,668,l)
);
}
);
width = 580;
},
{
associatedMasterId = "282B1E26-206F-49B4-A55F-166754234F2D";
layerId = "98566368-C656-450D-B2A9-87086248CBB0";
width = 600;
}
);
metricLeft = V;
metricRight = V;
unicode = 89;
},
{
color = 1;
glyphname = Z;
kernLeft = Z;
kernRight = Z;
lastChange = "2022-03-04 21:52:35 +0000";
layers = (
{
anchors = (
{
name = bottom;
pos = (343,0);
},
{
name = top;
pos = (328,668);
}
);
layerId = "083550D2-F2E8-44E3-BE3D-E8BDF41EDFC4";
shapes = (
{
closed = 1;
nodes = (
(50,668,l),
(50,528,l),
(422,528,l),
(402,565,l),
(20,0,l),
(660,0,l),
(660,140,l),
(258,140,l),
(278,103,l),
(660,668,l)
);
}
);
width = 680;
},
{
associatedMasterId = "083550D2-F2E8-44E3-BE3D-E8BDF41EDFC4";
layerId = "0AAF2CB4-2EBD-42C4-BAB4-4CEC92C737FB";
width = 600;
},
{
anchors = (
{
name = bottom;
pos = (333,0);
},
{
name = top;
pos = (313,668);
}
);
layerId = "282B1E26-206F-49B4-A55F-166754234F2D";
shapes = (
{
closed = 1;
nodes = (
(60,668,l),
(60,598,l),
(512,598,l),
(493,635,l),
(40,0,l),
(610,0,l),
(610,70,l),
(138,70,l),
(157,33,l),
(610,668,l)
);
}
);
width = 650;
},
{
associatedMasterId = "282B1E26-206F-49B4-A55F-166754234F2D";
layerId = "A8F8E7A3-05CA-42F8-BA3E-07FED32E0834";
width = 600;
}
);
unicode = 90;
},
{
color = 3;
glyphname = a.ss01;
kernLeft = a.alt;
kernRight = a.alt;
lastChange = "2024-02-28 19:21:57 +0000";
layers = (
{
layerId = "083550D2-F2E8-44E3-BE3D-E8BDF41EDFC4";
shapes = (
{
closed = 1;
nodes = (
(530,0,l),
(530,392,l),
(380,392,l),
(380,0,l)
);
},
{
closed = 1;
nodes = (
(354,-10,o),
(406,60,o),
(420,140,c),
(420,180,l),
(398,144,o),
(362,120,o),
(300,120,c),
(228,120,o),
(180,166,o),
(180,236,c),
(180,306,o),
(232,352,o),
(310,352,c),
(391,352,o),
(449,342,o),
(530,342,c),
(530,472,l),
(429,472,o),
(405,482,o),
(310,482,c),
(142,482,o),
(30,384,o),
(30,236,c),
(30,88,o),
(132,-10,o),
(250,-10,c)
);
}
);
width = 590;
},
{
layerId = "282B1E26-206F-49B4-A55F-166754234F2D";
shapes = (
{
closed = 1;
nodes = (
(510,0,l),
(510,442,l),
(435,442,l),
(435,0,l)
);
},
{
closed = 1;
nodes = (
(368,-10,o),
(449,40,o),
(475,95,c),
(475,145,l),
(432,87,o),
(371,55,o),
(290,55,c),
(191,55,o),
(125,127,o),
(125,236,c),
(125,345,o),
(199,417,o),
(310,417,c),
(391,417,o),
(442,407,o),
(510,407,c),
(510,472,l),
(439,472,o),
(401,482,o),
(310,482,c),
(154,482,o),
(50,384,o),
(50,236,c),
(50,88,o),
(146,-10,o),
(290,-10,c)
);
}
);
width = 590;
}
);
metricLeft = o;
metricRight = d;
},
{
color = 1;
glyphname = a;
kernLeft = a;
kernRight = n;
lastChange = "2023-05-29 17:09:38 +0000";
layers = (
{
anchors = (
{
name = bottom;
pos = (258,0);
},
{
name = ogonek;
pos = (480,-2);
},
{
name = top;
pos = (270,483);
}
);
layerId = "083550D2-F2E8-44E3-BE3D-E8BDF41EDFC4";
shapes = (
{
closed = 1;
nodes = (
(453,-10,o),
(495,0,o),
(520,10,c),
(520,105,l),
(510,102,o),
(500,100,o),
(487,100,cs),
(469,100,o),
(460,110,o),
(460,132,cs),
(460,303,ls),
(460,413,o),
(385,482,o),
(260,482,cs),
(170,482,o),
(103,456,o),
(60,432,c),
(60,302,l),
(108,328,o),
(184,352,o),
(240,352,cs),
(290,352,o),
(310,331,o),
(310,294,cs),
(310,100,ls),
(310,24,o),
(342,-10,o),
(410,-10,cs)
);
},
{
closed = 1;
nodes = (
(264,-10,o),
(330,45,o),
(370,95,c),
(370,175,l),
(325,125,o),
(278,100,o),
(235,100,cs),
(208,100,o),
(190,116,o),
(190,141,cs),
(190,165,o),
(212,187,o),
(247,201,cs),
(284,216,o),
(331,225,o),
(370,229,c),
(370,292,l),
(338,291,o),
(289,285,o),
(224,270,cs),
(106,243,o),
(40,186,o),
(40,111,cs),
(40,40,o),
(92,-10,o),
(170,-10,cs)
);
}
);
width = 530;
},
{
anchors = (
{
name = bottom;
pos = (248,0);
},
{
name = ogonek;
pos = (454,0);
},
{
name = top;
pos = (250,473);
}
);
layerId = "282B1E26-206F-49B4-A55F-166754234F2D";
shapes = (
{
closed = 1;
nodes = (
(427,-10,o),
(464,2,o),
(480,10,c),
(480,65,l),
(468,60,o),
(453,55,o),
(435,55,cs),
(416,55,o),
(410,63,o),
(410,85,cs),
(410,303,ls),
(410,423,o),
(349,482,o),
(240,482,cs),
(175,482,o),
(102,455,o),
(70,432,c),
(70,357,l),
(115,387,o),
(179,417,o),
(240,417,cs),
(305,417,o),
(335,381,o),
(335,294,cs),
(335,70,ls),
(335,20,o),
(354,-10,o),
(400,-10,cs)
);
},
{
closed = 1;
nodes = (
(259,-10,o),
(346,44,o),
(390,105,c),
(390,160,l),
(341,99,o),
(265,55,o),
(195,55,cs),
(151,55,o),
(125,75,o),
(125,111,cs),
(125,154,o),
(158,183,o),
(236,209,cs),
(304,231,o),
(358,241,o),
(390,244,c),
(390,295,l),
(359,293,o),
(291,283,o),
(220,263,cs),
(101,230,o),
(50,183,o),
(50,106,cs),
(50,35,o),
(103,-10,o),
(175,-10,cs)
);
}
);
width = 500;
}
);
unicode = 97;
},
{
color = 1;
glyphname = b;
kernLeft = h;
kernRight = o;
lastChange = "2022-03-18 15:57:27 +0000";
layers = (
{
layerId = "083550D2-F2E8-44E3-BE3D-E8BDF41EDFC4";
shapes = (
{
closed = 1;
nodes = (
(60,80,l),
(210,80,l),
(210,716,l),
(60,716,l)
);
},
{
closed = 1;
nodes = (
(60,40,l),
(113,11,o),
(185,-10,o),
(270,-10,c),
(438,-10,o),
(550,88,o),
(550,236,c),
(550,384,o),
(452,482,o),
(320,482,c),
(235,482,o),
(171,439,o),
(140,370,c),
(140,300,l),
(175,331,o),
(226,352,o),
(280,352,c),
(352,352,o),
(400,306,o),
(400,236,c),
(400,166,o),
(348,120,o),
(270,120,c),
(194,120,o),
(138,140,o),
(60,170,c)
);
}
);
width = 580;
},
{
associatedMasterId = "083550D2-F2E8-44E3-BE3D-E8BDF41EDFC4";
layerId = "0AAF2CB4-2EBD-42C4-BAB4-4CEC92C737FB";
width = 600;
},
{
layerId = "282B1E26-206F-49B4-A55F-166754234F2D";
shapes = (
{
closed = 1;
nodes = (
(80,60,l),
(155,60,l),
(155,716,l),
(80,716,l)
);
},
{
closed = 1;
nodes = (
(80,40,l),
(129,16,o),
(190,-10,o),
(280,-10,c),
(436,-10,o),
(540,88,o),
(540,236,c),
(540,384,o),
(448,482,o),
(310,482,c),
(217,482,o),
(151,437,o),
(115,400,c),
(115,340,l),
(158,385,o),
(227,417,o),
(300,417,c),
(399,417,o),
(465,345,o),
(465,236,c),
(465,127,o),
(391,55,o),
(280,55,c),
(205,55,o),
(148,75,o),
(80,105,c)
);
}
);
width = 590;
},
{
associatedMasterId = "282B1E26-206F-49B4-A55F-166754234F2D";
layerId = "E456E769-DE5E-4D9F-8DE4-ACE3D6AFAFD9";
width = 600;
}
);
metricLeft = n;
metricRight = o;
unicode = 98;
},
{
color = 1;
glyphname = c;
kernLeft = o;
kernRight = c;
lastChange = "2022-03-16 03:53:21 +0000";
layers = (
{
anchors = (
{
name = bottom;
pos = (298,-2);
},
{
name = top;
pos = (298,481);
}
);
layerId = "083550D2-F2E8-44E3-BE3D-E8BDF41EDFC4";
shapes = (
{
closed = 1;
nodes = (
(417,140,o),
(373,120,o),
(310,120,c),
(232,120,o),
(180,166,o),
(180,236,c),
(180,306,o),
(232,352,o),
(310,352,c),
(373,352,o),
(412,335,o),
(445,312,c),
(445,442,l),
(420,460,o),
(368,482,o),
(280,482,c),
(138,482,o),
(30,384,o),
(30,236,c),
(30,88,o),
(138,-10,o),
(280,-10,c),
(368,-10,o),
(424,15,o),
(450,40,c),
(450,170,l)
);
}
);
width = 500;
},
{
associatedMasterId = "083550D2-F2E8-44E3-BE3D-E8BDF41EDFC4";
layerId = "0AAF2CB4-2EBD-42C4-BAB4-4CEC92C737FB";
width = 600;
},
{
anchors = (
{
name = bottom;
pos = (318,-2);
},
{
name = top;
pos = (318,481);
}
);
layerId = "282B1E26-206F-49B4-A55F-166754234F2D";
shapes = (
{
closed = 1;
nodes = (
(449,83,o),
(381,55,o),
(310,55,c),
(200,55,o),
(125,124,o),
(125,236,c),
(125,348,o),
(200,417,o),
(310,417,c),
(381,417,o),
(444,389,o),
(485,347,c),
(485,422,l),
(444,458,o),
(381,482,o),
(310,482,c),
(154,482,o),
(50,384,o),
(50,236,c),
(50,88,o),
(154,-10,o),
(310,-10,c),
(381,-10,o),
(453,14,o),
(490,50,c),
(490,125,l)
);
}
);
width = 530;
},
{
associatedMasterId = "282B1E26-206F-49B4-A55F-166754234F2D";
layerId = "293CB26D-26E0-4133-920F-C16E1F03D4BE";
width = 600;
}
);
metricLeft = o;
unicode = 99;
},
{
color = 1;
glyphname = d;
kernLeft = o;
kernRight = l;
lastChange = "2023-06-09 17:55:09 +0000";
layers = (
{
anchors = (
{
name = bottom;
pos = (298,0);
},
{
name = center;
pos = (448,594);
},
{
name = top;
pos = (168,503);
},
{
name = topright;
pos = (660,756);
}
);
layerId = "083550D2-F2E8-44E3-BE3D-E8BDF41EDFC4";
shapes = (
{
closed = 1;
nodes = (
(355,-10,o),
(395,78,o),
(410,130,c),
(410,200,l),
(394,166,o),
(364,120,o),
(300,120,c),
(228,120,o),
(180,166,o),
(180,236,c),
(180,306,o),
(232,352,o),
(305,352,c),
(364,352,o),
(401,336,o),
(430,310,c),
(430,435,l),
(400,462,o),
(349,482,o),
(265,482,c),
(134,482,o),
(30,384,o),
(30,236,c),
(30,88,o),
(132,-10,o),
(250,-10,c)
);
},
{
closed = 1;
nodes = (
(520,0,l),
(520,716,l),
(370,716,l),
(370,0,l)
);
}
);
width = 580;
},
{
associatedMasterId = "083550D2-F2E8-44E3-BE3D-E8BDF41EDFC4";
layerId = "0AAF2CB4-2EBD-42C4-BAB4-4CEC92C737FB";
width = 600;
},
{
anchors = (
{
name = bottom;
pos = (318,0);
},
{
name = center;
pos = (466,594);
},
{
name = top;
pos = (188,503);
},
{
name = topright;
pos = (615,756);
}
);
layerId = "282B1E26-206F-49B4-A55F-166754234F2D";
shapes = (
{
closed = 1;
nodes = (
(383,-10,o),
(468,59,o),
(480,115,c),
(480,165,l),
(434,93,o),
(370,55,o),
(290,55,c),
(191,55,o),
(125,127,o),
(125,236,c),
(125,345,o),
(199,417,o),
(310,417,c),
(384,417,o),
(442,396,o),
(475,370,c),
(475,430,l),
(454,448,o),
(401,482,o),
(300,482,c),
(150,482,o),
(50,384,o),
(50,236,c),
(50,88,o),
(142,-10,o),
(280,-10,c)
);
},
{
closed = 1;
nodes = (
(510,0,l),
(510,716,l),
(435,716,l),
(435,0,l)
);
}
);
width = 590;
},
{
associatedMasterId = "282B1E26-206F-49B4-A55F-166754234F2D";
layerId = "82F61F89-1AD6-4278-8F6D-5963B359934C";
width = 600;
}
);
metricLeft = o;
metricRight = u;
unicode = 100;
},
{
color = 1;
glyphname = e;
kernLeft = o;
kernRight = e;
lastChange = "2022-03-15 10:18:29 +0000";
layers = (
{
anchors = (
{
name = bottom;
pos = (292,-8);
},
{
name = ogonek;
pos = (406,3);
},
{
name = top;
pos = (285,482);
}
);
layerId = "083550D2-F2E8-44E3-BE3D-E8BDF41EDFC4";
shapes = (
{
closed = 1;
nodes = (
(136,206,l),
(545,206,l),
(519,191,l),
(524,237,o),
(524,314,o),
(486,376,cs),
(455,427,o),
(387,482,o),
(285,482,cs),
(135,482,o),
(30,384,o),
(30,236,cs),
(30,88,o),
(138,-10,o),
(300,-10,cs),
(384,-10,o),
(452,13,o),
(490,40,c),
(490,160,l),
(442,140,o),
(394,120,o),
(320,120,cs),
(233,120,o),
(181,160,o),
(180,235,c),
(181,266,l),
(187,319,o),
(227,362,o),
(285,362,cs),
(349,362,o),
(389,314,o),
(383,251,c),
(415,281,l),
(136,281,l)
);
}
);
width = 551;
},
{
anchors = (
{
name = bottom;
pos = (300,0);
},
{
name = ogonek;
pos = (388,0);
},
{
name = top;
pos = (291,480);
}
);
layerId = "282B1E26-206F-49B4-A55F-166754234F2D";
shapes = (
{
closed = 1;
nodes = (
(96,216,l),
(555,216,l),
(514,185,l),
(524,238,o),
(515,313,o),
(489,363,cs),
(465,409,o),
(406,482,o),
(290,482,cs),
(150,482,o),
(50,384,o),
(50,236,cs),
(50,88,o),
(154,-10,o),
(300,-10,cs),
(386,-10,o),
(457,19,o),
(490,50,c),
(490,120,l),
(446,83,o),
(382,55,o),
(310,55,cs),
(201,55,o),
(126,124,o),
(125,235,c),
(126,256,l),
(133,356,o),
(199,417,o),
(290,417,cs),
(383,417,o),
(450,343,o),
(445,236,c),
(495,276,l),
(96,276,l)
);
}
);
width = 558;
}
);
metricLeft = o;
unicode = 101;
},
{
color = 1;
glyphname = f;
kernLeft = f;
kernRight = f;
lastChange = "2023-08-16 18:23:27 +0000";
layers = (
{
layerId = "083550D2-F2E8-44E3-BE3D-E8BDF41EDFC4";
shapes = (
{
closed = 1;
nodes = (
(100,0,l),
(250,0,l),
(250,522,ls),
(250,592,o),
(283,626,o),
(350,626,cs),
(383,626,o),
(410,617,o),
(430,606,c),
(430,736,l),
(415,744,o),
(377,756,o),
(330,756,cs),
(182,756,o),
(100,672,o),
(100,522,cs)
);
},
{
closed = 1;
nodes = (
(234,342,l),
(410,342,l),
(410,472,l),
(234,472,l)
);
},
{
closed = 1;
nodes = (
(116,472,l),
(20,472,l),
(20,342,l),
(116,342,l)
);
}
);
width = 440;
},
{
layerId = "282B1E26-206F-49B4-A55F-166754234F2D";
shapes = (
{
closed = 1;
nodes = (
(110,0,l),
(185,0,l),
(185,562,ls),
(185,649,o),
(226,691,o),
(310,691,cs),
(345,691,o),
(382,680,o),
(400,671,c),
(400,736,l),
(385,744,o),
(347,756,o),
(300,756,cs),
(178,756,o),
(110,687,o),
(110,562,cs)
);
},
{
closed = 1;
nodes = (
(165,407,l),
(380,407,l),
(380,472,l),
(165,472,l)
);
},
{
closed = 1;
nodes = (
(125,472,l),
(30,472,l),
(30,407,l),
(125,407,l)
);
}
);
width = 410;
}
);
unicode = 102;
},
{
color = 1;
glyphname = g;
kernLeft = g;
kernRight = g;
lastChange = "2024-01-16 20:01:53 +0000";
layers = (
{
anchors = (
{
name = bottom;
pos = (259,-242);
},
{
name = top;
pos = (268,472);
}
);
layerId = "083550D2-F2E8-44E3-BE3D-E8BDF41EDFC4";
shapes = (
{
closed = 1;
nodes = (
(340,472,l),
(260,472,o),
(206,469,o),
(163,455,cs),
(91,432,o),
(47,376,o),
(47,311,cs),
(47,233,o),
(90,187,o),
(144,162,c),
(96,143,o),
(72,121,o),
(72,92,cs),
(72,60,o),
(96,40,o),
(140,21,c),
(81,3,o),
(20,-36,o),
(20,-102,cs),
(20,-181,o),
(105,-244,o),
(260,-244,cs),
(423,-244,o),
(510,-161,o),
(510,-82,cs),
(510,-24,o),
(476,15,o),
(431,40,cs),
(390,63,o),
(345,75,o),
(300,83,cs),
(254,91,o),
(232,101,o),
(232,119,cs),
(232,135,o),
(253,143,o),
(291,150,cs),
(337,158,o),
(371,167,o),
(400,185,cs),
(429,203,o),
(448,232,o),
(448,269,cs),
(448,307,o),
(428,357,o),
(350,383,c)
);
},
{
closed = 1;
nodes = (
(360,-117,o),
(321,-144,o),
(260,-144,cs),
(205,-144,o),
(170,-119,o),
(170,-82,cs),
(170,-48,o),
(203,-20,o),
(255,-20,cs),
(316,-20,o),
(360,-49,o),
(360,-82,cs)
);
},
{
closed = 1;
nodes = (
(209,240,o),
(187,267,o),
(187,296,cs),
(187,329,o),
(212,352,o),
(250,352,cs),
(290,352,o),
(314,329,o),
(314,296,cs),
(314,267,o),
(290,240,o),
(250,240,cs)
);
},
{
closed = 1;
nodes = (
(340,373,l),
(400,352,o),
(449,342,o),
(490,342,cs),
(510,342,l),
(510,472,l),
(340,472,l)
);
}
);
width = 520;
},
{
associatedMasterId = "083550D2-F2E8-44E3-BE3D-E8BDF41EDFC4";
layerId = "0AAF2CB4-2EBD-42C4-BAB4-4CEC92C737FB";
width = 600;
},
{
anchors = (
{
name = bottom;
pos = (249,-232);
},
{
name = top;
pos = (258,472);
}
);
layerId = "282B1E26-206F-49B4-A55F-166754234F2D";
shapes = (
{
closed = 1;
nodes = (
(320,472,l),
(248,472,o),
(199,469,o),
(160,454,cs),
(92,427,o),
(57,376,o),
(57,311,cs),
(57,226,o),
(117,187,o),
(160,172,c),
(119,153,o),
(92,131,o),
(92,104,cs),
(92,76,o),
(112,54,o),
(141,38,c),
(81,21,o),
(20,-22,o),
(20,-94,cs),
(20,-178,o),
(106,-244,o),
(250,-244,cs),
(389,-244,o),
(480,-176,o),
(480,-89,cs),
(480,-36,o),
(446,0,o),
(402,23,cs),
(360,45,o),
(309,55,o),
(245,64,cs),
(185,72,o),
(165,88,o),
(165,108,cs),
(165,127,o),
(185,141,o),
(225,149,cs),
(262,156,o),
(309,163,o),
(349,185,cs),
(390,208,o),
(424,249,o),
(424,304,cs),
(424,362,o),
(390,412,o),
(326,431,c)
);
},
{
closed = 1;
nodes = (
(405,-142,o),
(349,-179,o),
(250,-179,cs),
(156,-179,o),
(95,-144,o),
(95,-89,cs),
(95,-39,o),
(152,-1,o),
(236,-1,cs),
(346,-1,o),
(405,-43,o),
(405,-89,cs)
);
},
{
closed = 1;
nodes = (
(173,212,o),
(132,251,o),
(132,309,cs),
(132,368,o),
(173,407,o),
(239,407,cs),
(307,407,o),
(349,368,o),
(349,309,cs),
(349,251,o),
(307,212,o),
(239,212,cs)
);
},
{
closed = 1;
nodes = (
(320,424,l),
(360,410,o),
(401,407,o),
(450,407,cs),
(490,407,l),
(490,472,l),
(320,472,l)
);
}
);
width = 500;
},
{
associatedMasterId = "282B1E26-206F-49B4-A55F-166754234F2D";
layerId = "1694E11C-63AF-483C-83CE-DEC5A41067C3";
width = 600;
}
);
unicode = 103;
},
{
color = 3;
glyphname = g.ss01;
kernLeft = g.alt;
kernRight = g.alt;
lastChange = "2024-02-28 19:22:06 +0000";
layers = (
{
layerId = "282B1E26-206F-49B4-A55F-166754234F2D";
shapes = (
{
closed = 1;
nodes = (
(414,-244,o),
(510,-181,o),
(510,-40,cs),
(510,442,l),
(435,442,l),
(435,-50,ls),
(435,-138,o),
(379,-179,o),
(290,-179,cs),
(200,-179,o),
(126,-145,o),
(80,-109,c),
(80,-184,l),
(112,-206,o),
(175,-244,o),
(290,-244,cs)
);
},
{
closed = 1;
nodes = (
(368,-10,o),
(439,21,o),
(475,65,c),
(475,135,l),
(432,87,o),
(361,55,o),
(290,55,c),
(191,55,o),
(125,127,o),
(125,236,c),
(125,345,o),
(199,417,o),
(310,417,c),
(391,417,o),
(442,407,o),
(510,407,c),
(510,472,l),
(439,472,o),
(401,482,o),
(310,482,c),
(154,482,o),
(50,384,o),
(50,236,c),
(50,88,o),
(146,-10,o),
(290,-10,c)
);
}
);
width = 590;
},
{
layerId = "083550D2-F2E8-44E3-BE3D-E8BDF41EDFC4";
shapes = (
{
closed = 1;
nodes = (
(439,-244,o),
(550,-167,o),
(550,0,cs),
(550,432,l),
(400,432,l),
(400,0,ls),
(400,-74,o),
(354,-114,o),
(280,-114,cs),
(205,-114,o),
(121,-93,o),
(70,-74,c),
(70,-204,l),
(105,-218,o),
(173,-244,o),
(280,-244,cs)
);
},
{
closed = 1;
nodes = (
(354,-10,o),
(426,50,o),
(440,140,c),
(440,200,l),
(413,151,o),
(362,120,o),
(300,120,c),
(228,120,o),
(180,166,o),
(180,236,c),
(180,306,o),
(232,352,o),
(310,352,c),
(391,352,o),
(469,342,o),
(550,342,c),
(550,472,l),
(449,472,o),
(405,482,o),
(310,482,c),
(142,482,o),
(30,384,o),
(30,236,c),
(30,88,o),
(122,-10,o),
(260,-10,c)
);
}
);
width = 610;
}
);
metricLeft = o;
metricRight = u;
},
{
color = 1;
glyphname = h;
kernLeft = h;
kernRight = n;
lastChange = "2023-07-30 19:16:50 +0000";
layers = (
{
anchors = (
{
name = bottom;
pos = (308,0);
},
{
name = center;
pos = (138,574);
},
{
name = top;
pos = (138,716);
}
);
layerId = "083550D2-F2E8-44E3-BE3D-E8BDF41EDFC4";
shapes = (
{
closed = 1;
nodes = (
(60,0,l),
(210,0,l),
(210,716,l),
(60,716,l)
);
},
{
closed = 1;
nodes = (
(180,262,l),
(205,315,o),
(251,352,o),
(304,352,cs),
(358,352,o),
(390,316,o),
(390,254,cs),
(390,0,l),
(540,0,l),
(540,254,ls),
(540,397,o),
(471,482,o),
(354,482,cs),
(275,482,o),
(215,427,o),
(180,372,c)
);
}
);
width = 590;
},
{
anchors = (
{
name = bottom;
pos = (328,0);
},
{
name = center;
pos = (154,574);
},
{
name = top;
pos = (158,716);
}
);
layerId = "282B1E26-206F-49B4-A55F-166754234F2D";
shapes = (
{
closed = 1;
nodes = (
(80,0,l),
(155,0,l),
(155,716,l),
(80,716,l)
);
},
{
closed = 1;
nodes = (
(130,297,l),
(174,359,o),
(242,417,o),
(314,417,cs),
(390,417,o),
(425,362,o),
(425,263,cs),
(425,0,l),
(500,0,l),
(500,263,ls),
(500,408,o),
(437,482,o),
(324,482,cs),
(239,482,o),
(163,417,o),
(130,362,c)
);
}
);
width = 570;
}
);
metricLeft = n;
metricRight = n;
unicode = 104;
},
{
color = 1;
glyphname = i;
kernLeft = i;
kernRight = i;
lastChange = "2022-03-15 07:57:44 +0000";
layers = (
{
anchors = (
{
name = bottom;
pos = (139,0);
}
);
layerId = "083550D2-F2E8-44E3-BE3D-E8BDF41EDFC4";
shapes = (
{
closed = 1;
nodes = (
(224,595,o),
(190,561,o),
(139,561,cs),
(90,561,o),
(54,593,o),
(54,641,cs),
(54,687,o),
(88,721,o),
(139,721,cs),
(188,721,o),
(224,689,o),
(224,641,cs)
);
},
{
closed = 1;
nodes = (
(64,472,l),
(64,0,l),
(214,0,l),
(214,472,l)
);
}
);
width = 278;
},
{
anchors = (
{
name = bottom;
pos = (129,0);
}
);
layerId = "282B1E26-206F-49B4-A55F-166754234F2D";
shapes = (
{
closed = 1;
nodes = (
(182,614,o),
(160,591,o),
(127,591,cs),
(95,591,o),
(72,613,o),
(72,646,cs),
(72,678,o),
(94,701,o),
(127,701,cs),
(159,701,o),
(182,679,o),
(182,646,cs)
);
},
{
closed = 1;
nodes = (
(90,472,l),
(90,0,l),
(165,0,l),
(165,472,l)
);
}
);
width = 254;
}
);
metricLeft = "=n*0.9";
metricRight = "=u*0.9";
unicode = 105;
},
{
color = 1;
glyphname = j;
kernLeft = j;
kernRight = j;
lastChange = "2022-03-16 04:03:44 +0000";
layers = (
{
layerId = "083550D2-F2E8-44E3-BE3D-E8BDF41EDFC4";
shapes = (
{
closed = 1;
nodes = (
(74,10,ls),
(74,-75,o),
(49,-108,o),
(2,-134,c),
(84,-244,l),
(157,-212,o),
(224,-146,o),
(224,10,cs),
(224,472,l),
(74,472,l)
);
},
{
closed = 1;
nodes = (
(231,595,o),
(197,561,o),
(146,561,cs),
(97,561,o),
(61,593,o),
(61,641,cs),
(61,687,o),
(95,721,o),
(146,721,cs),
(195,721,o),
(231,689,o),
(231,641,cs)
);
}
);
width = 285;
},
{
layerId = "282B1E26-206F-49B4-A55F-166754234F2D";
shapes = (
{
closed = 1;
nodes = (
(99,-20,ls),
(99,-114,o),
(74,-156,o),
(10,-186,c),
(34,-244,l),
(134,-212,o),
(174,-149,o),
(174,-20,cs),
(174,472,l),
(99,472,l)
);
},
{
closed = 1;
nodes = (
(190,614,o),
(168,591,o),
(135,591,cs),
(103,591,o),
(80,613,o),
(80,646,cs),
(80,678,o),
(102,701,o),
(135,701,cs),
(167,701,o),
(190,679,o),
(190,646,cs)
);
}
);
width = 262;
}
);
metricRight = i;
unicode = 106;
},
{
color = 1;
glyphname = k;
kernLeft = h;
kernRight = k;
lastChange = "2023-07-30 19:28:47 +0000";
layers = (
{
anchors = (
{
name = bottom;
pos = (293,0);
},
{
name = top;
pos = (283,478);
}
);
layerId = "083550D2-F2E8-44E3-BE3D-E8BDF41EDFC4";
shapes = (
{
closed = 1;
nodes = (
(360,472,l),
(200,257,l),
(400,0,l),
(590,0,l),
(370,256,l),
(550,472,l)
);
},
{
closed = 1;
nodes = (
(60,0,l),
(210,0,l),
(210,716,l),
(60,716,l)
);
}
);
width = 590;
},
{
associatedMasterId = "083550D2-F2E8-44E3-BE3D-E8BDF41EDFC4";
layerId = "0AAF2CB4-2EBD-42C4-BAB4-4CEC92C737FB";
width = 600;
},
{
anchors = (
{
name = bottom;
pos = (263,0);
},
{
name = top;
pos = (243,478);
}
);
layerId = "282B1E26-206F-49B4-A55F-166754234F2D";
shapes = (
{
closed = 1;
nodes = (
(360,472,l),
(150,257,l),
(380,0,l),
(485,0,l),
(245,256,l),
(465,472,l)
);
},
{
closed = 1;
nodes = (
(80,0,l),
(155,0,l),
(155,716,l),
(80,716,l)
);
}
);
width = 485;
},
{
associatedMasterId = "282B1E26-206F-49B4-A55F-166754234F2D";
layerId = "E12615AE-52C4-431B-9F15-5ABE5D54C0DE";
width = 600;
}
);
metricLeft = n;
unicode = 107;
},
{
color = 1;
glyphname = l;
kernLeft = h;
kernRight = l;
lastChange = "2023-06-25 16:31:52 +0000";
layers = (
{
anchors = (
{
name = bottom;
pos = (137,0);
},
{
name = center;
pos = (139,364);
},
{
name = top;
pos = (139,718);
},
{
name = topright;
pos = (353,756);
}
);
layerId = "083550D2-F2E8-44E3-BE3D-E8BDF41EDFC4";
shapes = (
{
closed = 1;
nodes = (
(64,0,l),
(214,0,l),
(214,716,l),
(64,716,l)
);
}
);
width = 278;
},
{
associatedMasterId = "083550D2-F2E8-44E3-BE3D-E8BDF41EDFC4";
layerId = "0AAF2CB4-2EBD-42C4-BAB4-4CEC92C737FB";
width = 600;
},
{
anchors = (
{
name = bottom;
pos = (123,0);
},
{
name = center;
pos = (122,364);
},
{
name = top;
pos = (123,718);
},
{
name = topright;
pos = (267,756);
}
);
layerId = "282B1E26-206F-49B4-A55F-166754234F2D";
shapes = (
{
closed = 1;
nodes = (
(85,0,l),
(160,0,l),
(160,716,l),
(85,716,l)
);
}
);
width = 245;
},
{
associatedMasterId = "282B1E26-206F-49B4-A55F-166754234F2D";
layerId = "53E19D90-5E6C-45B6-AA0F-868009CF6336";
width = 600;
}
);
metricLeft = "=n*1.06";
metricRight = "=u*1.06";
unicode = 108;
},
{
color = 1;
glyphname = m;
kernLeft = n;
kernRight = n;
lastChange = "2023-07-30 19:26:20 +0000";
layers = (
{
layerId = "083550D2-F2E8-44E3-BE3D-E8BDF41EDFC4";
shapes = (
{
closed = 1;
nodes = (
(870,0,l),
(870,254,ls),
(870,397,o),
(801,482,o),
(684,482,cs),
(575,482,o),
(480,407,o),
(480,254,c),
(540,254,l),
(540,315,o),
(581,352,o),
(634,352,cs),
(688,352,o),
(720,316,o),
(720,254,cs),
(720,0,l)
);
},
{
closed = 1;
nodes = (
(210,0,l),
(210,472,l),
(60,472,l),
(60,0,l)
);
},
{
closed = 1;
nodes = (
(180,262,l),
(205,315,o),
(251,352,o),
(304,352,cs),
(358,352,o),
(390,316,o),
(390,254,cs),
(390,0,l),
(540,0,l),
(540,254,ls),
(540,397,o),
(471,482,o),
(354,482,cs),
(275,482,o),
(215,427,o),
(180,362,c)
);
}
);
width = 920;
},
{
associatedMasterId = "083550D2-F2E8-44E3-BE3D-E8BDF41EDFC4";
layerId = "0AAF2CB4-2EBD-42C4-BAB4-4CEC92C737FB";
width = 600;
},
{
layerId = "282B1E26-206F-49B4-A55F-166754234F2D";
shapes = (
{
closed = 1;
nodes = (
(820,0,l),
(820,273,ls),
(820,413,o),
(751,482,o),
(644,482,cs),
(544,482,o),
(445,415,o),
(445,243,c),
(490,243,l),
(490,347,o),
(548,417,o),
(634,417,cs),
(705,417,o),
(745,372,o),
(745,273,cs),
(745,0,l)
);
},
{
closed = 1;
nodes = (
(155,0,l),
(155,472,l),
(80,472,l),
(80,0,l)
);
},
{
closed = 1;
nodes = (
(125,307,l),
(173,368,o),
(238,417,o),
(304,417,cs),
(375,417,o),
(415,372,o),
(415,293,cs),
(415,0,l),
(490,0,l),
(490,293,ls),
(490,413,o),
(421,482,o),
(324,482,cs),
(234,482,o),
(161,422,o),
(125,377,c)
);
}
);
width = 890;
},
{
associatedMasterId = "282B1E26-206F-49B4-A55F-166754234F2D";
layerId = "310B89ED-86C5-408B-A119-ED2DE2FD2829";
width = 600;
}
);
metricLeft = n;
metricRight = n;
unicode = 109;
},
{
color = 1;
glyphname = n;
kernLeft = n;
kernRight = n;
lastChange = "2023-07-30 19:23:12 +0000";
layers = (
{
anchors = (
{
name = bottom;
pos = (308,0);
},
{
name = top;
pos = (298,481);
}
);
layerId = "083550D2-F2E8-44E3-BE3D-E8BDF41EDFC4";
shapes = (
{
closed = 1;
nodes = (
(60,0,l),
(210,0,l),
(210,392,l),
(210,472,l),
(60,472,l)
);
},
{
closed = 1;
nodes = (
(180,262,l),
(205,315,o),
(251,352,o),
(304,352,cs),
(358,352,o),
(390,316,o),
(390,254,cs),
(390,0,l),
(540,0,l),
(540,254,ls),
(540,397,o),
(471,482,o),
(354,482,cs),
(275,482,o),
(215,427,o),
(180,362,c)
);
}
);
width = 590;
},
{
associatedMasterId = "083550D2-F2E8-44E3-BE3D-E8BDF41EDFC4";
layerId = "0AAF2CB4-2EBD-42C4-BAB4-4CEC92C737FB";
width = 600;
},
{
anchors = (
{
name = bottom;
pos = (288,10);
},
{
name = top;
pos = (308,481);
}
);
layerId = "282B1E26-206F-49B4-A55F-166754234F2D";
shapes = (
{
closed = 1;
nodes = (
(80,0,l),
(155,0,l),
(155,392,l),
(155,472,l),
(80,472,l)
);
},
{
closed = 1;
nodes = (
(125,307,l),
(173,368,o),
(238,417,o),
(304,417,cs),
(375,417,o),
(415,372,o),
(415,293,cs),
(415,0,l),
(490,0,l),
(490,293,ls),
(490,413,o),
(421,482,o),
(324,482,cs),
(234,482,o),
(161,422,o),
(125,377,c)
);
}
);
width = 560;
},
{
associatedMasterId = "282B1E26-206F-49B4-A55F-166754234F2D";
layerId = "A8928693-7B6A-4D6B-AC24-F6F48E6A9082";
width = 600;
}
);
unicode = 110;
},
{
color = 1;
glyphname = o;
kernLeft = o;
kernRight = o;
lastChange = "2023-07-08 18:33:57 +0000";
layers = (
{
anchors = (
{
name = bottom;
pos = (300,0);
},
{
name = center;
pos = (300,236);
},
{
name = ogonek;
pos = (388,1);
},
{
name = top;
pos = (300,482);
},
{
name = topright;
pos = (486,398);
}
);
layerId = "083550D2-F2E8-44E3-BE3D-E8BDF41EDFC4";
shapes = (
{
closed = 1;
nodes = (
(138,482,o),
(30,384,o),
(30,236,cs),
(30,88,o),
(138,-10,o),
(300,-10,cs),
(462,-10,o),
(570,88,o),
(570,236,cs),
(570,384,o),
(462,482,o),
(300,482,cs)
);
},
{
closed = 1;
nodes = (
(228,120,o),
(180,166,o),
(180,236,cs),
(180,306,o),
(228,352,o),
(300,352,cs),
(372,352,o),
(420,306,o),
(420,236,cs),
(420,166,o),
(372,120,o),
(300,120,cs)
);
}
);
width = 600;
},
{
associatedMasterId = "083550D2-F2E8-44E3-BE3D-E8BDF41EDFC4";
layerId = "0AAF2CB4-2EBD-42C4-BAB4-4CEC92C737FB";
width = 600;
},
{
anchors = (
{
name = bottom;
pos = (311,-10);
},
{
name = center;
pos = (310,236);
},
{
name = ogonek;
pos = (360,0);
},
{
name = top;
pos = (308,481);
},
{
name = topright;
pos = (506,398);
}
);
layerId = "282B1E26-206F-49B4-A55F-166754234F2D";
shapes = (
{
closed = 1;
nodes = (
(154,482,o),
(50,384,o),
(50,236,cs),
(50,88,o),
(154,-10,o),
(310,-10,cs),
(466,-10,o),
(570,88,o),
(570,236,cs),
(570,384,o),
(466,482,o),
(310,482,cs)
);
},
{
closed = 1;
nodes = (
(199,55,o),
(125,127,o),
(125,236,cs),
(125,345,o),
(199,417,o),
(310,417,cs),
(421,417,o),
(495,345,o),
(495,236,cs),
(495,127,o),
(421,55,o),
(310,55,cs)
);
}
);
width = 620;
},
{
associatedMasterId = "282B1E26-206F-49B4-A55F-166754234F2D";
layerId = "FD50507D-7435-49DF-B8D2-BEB89C894C4E";
width = 600;
}
);
unicode = 111;
},
{
color = 1;
glyphname = p;
kernLeft = p;
kernRight = o;
lastChange = "2022-04-04 08:43:20 +0000";
layers = (
{
layerId = "083550D2-F2E8-44E3-BE3D-E8BDF41EDFC4";
shapes = (
{
closed = 1;
nodes = (
(446,-10,o),
(550,88,o),
(550,236,cs),
(550,384,o),
(438,482,o),
(330,482,cs),
(225,482,o),
(183,416,o),
(170,370,c),
(170,280,l),
(187,315,o),
(216,352,o),
(280,352,cs),
(352,352,o),
(400,306,o),
(400,236,cs),
(400,166,o),
(348,120,o),
(270,120,cs),
(200,120,o),
(135,151,o),
(80,210,c),
(80,70,l),
(116,31,o),
(184,-10,o),
(290,-10,cs)
);
},
{
closed = 1;
nodes = (
(210,-244,l),
(210,472,l),
(60,472,l),
(60,-244,l)
);
}
);
width = 580;
},
{
associatedMasterId = "083550D2-F2E8-44E3-BE3D-E8BDF41EDFC4";
layerId = "0AAF2CB4-2EBD-42C4-BAB4-4CEC92C737FB";
width = 600;
},
{
layerId = "282B1E26-206F-49B4-A55F-166754234F2D";
shapes = (
{
closed = 1;
nodes = (
(436,-10,o),
(540,88,o),
(540,236,cs),
(540,384,o),
(444,482,o),
(310,482,cs),
(217,482,o),
(155,443,o),
(115,400,c),
(115,340,l),
(160,386,o),
(220,417,o),
(300,417,cs),
(399,417,o),
(465,345,o),
(465,236,cs),
(465,127,o),
(391,55,o),
(280,55,cs),
(211,55,o),
(145,85,o),
(90,130,c),
(90,70,l),
(131,28,o),
(199,-10,o),
(280,-10,cs)
);
},
{
closed = 1;
nodes = (
(155,-244,l),
(155,472,l),
(80,472,l),
(80,-244,l)
);
}
);
width = 590;
},
{
associatedMasterId = "282B1E26-206F-49B4-A55F-166754234F2D";
layerId = "61B9DEB6-7FF2-4978-BBE7-65EBD3CD2692";
width = 600;
}
);
metricLeft = n;
metricRight = o;
unicode = 112;
},
{
color = 1;
glyphname = q;
kernLeft = o;
kernRight = q;
lastChange = "2022-03-19 17:37:12 +0000";
layers = (
{
layerId = "083550D2-F2E8-44E3-BE3D-E8BDF41EDFC4";
shapes = (
{
closed = 1;
nodes = (
(364,-10,o),
(426,40,o),
(440,120,c),
(440,190,l),
(414,146,o),
(362,120,o),
(300,120,c),
(228,120,o),
(180,166,o),
(180,236,c),
(180,306,o),
(232,352,o),
(310,352,c),
(391,352,o),
(459,342,o),
(520,342,c),
(520,472,l),
(439,472,o),
(405,482,o),
(310,482,c),
(142,482,o),
(30,384,o),
(30,236,c),
(30,88,o),
(122,-10,o),
(260,-10,c)
);
},
{
closed = 1;
nodes = (
(520,-244,l),
(520,392,l),
(370,392,l),
(370,-244,l)
);
}
);
width = 580;
},
{
associatedMasterId = "083550D2-F2E8-44E3-BE3D-E8BDF41EDFC4";
layerId = "0AAF2CB4-2EBD-42C4-BAB4-4CEC92C737FB";
width = 600;
},
{
layerId = "282B1E26-206F-49B4-A55F-166754234F2D";
shapes = (
{
closed = 1;
nodes = (
(368,-10,o),
(439,21,o),
(475,65,c),
(475,135,l),
(432,87,o),
(361,55,o),
(290,55,c),
(191,55,o),
(125,127,o),
(125,236,c),
(125,345,o),
(199,417,o),
(310,417,c),
(391,417,o),
(442,407,o),
(510,407,c),
(510,472,l),
(439,472,o),
(401,482,o),
(310,482,c),
(154,482,o),
(50,384,o),
(50,236,c),
(50,88,o),
(146,-10,o),
(290,-10,c)
);
},
{
closed = 1;
nodes = (
(510,-244,l),
(510,442,l),
(435,442,l),
(435,-244,l)
);
}
);
width = 590;
},
{
associatedMasterId = "282B1E26-206F-49B4-A55F-166754234F2D";
layerId = "3B092EB2-EF90-42A0-90DC-7F581D8DC250";
width = 600;
}
);
metricLeft = o;
metricRight = u;
unicode = 113;
},
{
color = 1;
glyphname = r;
kernLeft = n;
kernRight = r;
lastChange = "2022-03-15 10:18:32 +0000";
layers = (
{
anchors = (
{
name = bottom;
pos = (134,0);
},
{
name = top;
pos = (211,472);
}
);
layerId = "083550D2-F2E8-44E3-BE3D-E8BDF41EDFC4";
shapes = (
{
closed = 1;
nodes = (
(210,472,l),
(60,472,l),
(60,0,l),
(210,0,l)
);
},
{
closed = 1;
nodes = (
(198,232,l),
(236,303,o),
(278,337,o),
(313,337,c),
(342,337,o),
(372,321,o),
(408,287,c),
(487,391,l),
(448,444,o),
(410,482,o),
(351,482,c),
(286,482,o),
(247,427,o),
(199,345,c)
);
}
);
width = 491;
},
{
associatedMasterId = "083550D2-F2E8-44E3-BE3D-E8BDF41EDFC4";
layerId = "0AAF2CB4-2EBD-42C4-BAB4-4CEC92C737FB";
width = 600;
},
{
anchors = (
{
name = bottom;
pos = (119,0);
},
{
name = top;
pos = (241,472);
}
);
layerId = "282B1E26-206F-49B4-A55F-166754234F2D";
shapes = (
{
closed = 1;
nodes = (
(155,472,l),
(80,472,l),
(80,0,l),
(155,0,l)
);
},
{
closed = 1;
nodes = (
(143,274,l),
(194,370,o),
(244,407,o),
(290,407,c),
(325,407,o),
(349,391,o),
(377,364,c),
(423,423,l),
(386,460,o),
(355,482,o),
(301,482,c),
(236,482,o),
(191,439,o),
(144,354,c)
);
}
);
width = 433;
},
{
associatedMasterId = "282B1E26-206F-49B4-A55F-166754234F2D";
layerId = "B4D69A20-A967-4F87-86FC-CDA31A8624F7";
width = 600;
}
);
metricLeft = n;
unicode = 114;
},
{
color = 1;
glyphname = s;
kernLeft = s;
kernRight = s;
lastChange = "2022-03-16 05:48:05 +0000";
layers = (
{
anchors = (
{
name = bottom;
pos = (226,0);
},
{
name = top;
pos = (239,475);
}
);
layerId = "083550D2-F2E8-44E3-BE3D-E8BDF41EDFC4";
shapes = (
{
closed = 1;
nodes = (
(281,362,o),
(339,340,o),
(390,310,c),
(390,440,l),
(362,460,o),
(295,482,o),
(222,482,cs),
(103,482,o),
(40,416,o),
(40,342,cs),
(40,270,o),
(87,227,o),
(160,197,cs),
(226,170,ls),
(250,160,o),
(260,147,o),
(260,136,cs),
(260,121,o),
(245,110,o),
(221,110,cs),
(167,110,o),
(88,134,o),
(40,170,c),
(40,40,l),
(83,13,o),
(149,-10,o),
(226,-10,cs),
(332,-10,o),
(410,42,o),
(410,133,cs),
(410,203,o),
(359,241,o),
(296,270,cs),
(227,302,ls),
(202,313,o),
(190,322,o),
(190,337,cs),
(190,352,o),
(206,362,o),
(232,362,cs)
);
}
);
width = 450;
},
{
associatedMasterId = "083550D2-F2E8-44E3-BE3D-E8BDF41EDFC4";
layerId = "0AAF2CB4-2EBD-42C4-BAB4-4CEC92C737FB";
width = 600;
},
{
anchors = (
{
name = bottom;
pos = (216,0);
},
{
name = top;
pos = (209,475);
}
);
layerId = "282B1E26-206F-49B4-A55F-166754234F2D";
shapes = (
{
closed = 1;
nodes = (
(271,417,o),
(326,390,o),
(360,360,c),
(360,440,l),
(331,458,o),
(280,482,o),
(212,482,cs),
(115,482,o),
(50,430,o),
(50,360,cs),
(50,287,o),
(101,252,o),
(157,224,cs),
(232,187,ls),
(257,175,o),
(305,151,o),
(305,115,cs),
(305,78,o),
(278,55,o),
(218,55,cs),
(159,55,o),
(99,76,o),
(50,120,c),
(50,40,l),
(84,14,o),
(148,-10,o),
(218,-10,cs),
(314,-10,o),
(380,38,o),
(380,115,cs),
(380,187,o),
(319,225,o),
(262,253,cs),
(187,290,ls),
(157,305,o),
(125,324,o),
(125,360,cs),
(125,392,o),
(152,417,o),
(212,417,cs)
);
}
);
width = 430;
},
{
associatedMasterId = "282B1E26-206F-49B4-A55F-166754234F2D";
layerId = "4D00D116-B0D0-4EA0-B091-1291B88261C1";
width = 600;
}
);
unicode = 115;
},
{
color = 1;
glyphname = t;
kernLeft = t;
kernRight = t;
lastChange = "2023-05-27 14:01:00 +0000";
layers = (
{
anchors = (
{
name = bottom;
pos = (267,0);
},
{
name = center;
pos = (226,244);
},
{
name = top;
pos = (205,618);
},
{
name = topright;
pos = (393,756);
}
);
layerId = "083550D2-F2E8-44E3-BE3D-E8BDF41EDFC4";
shapes = (
{
closed = 1;
nodes = (
(420,472,l),
(250,472,l),
(250,597,l),
(10,372,l),
(10,342,l),
(100,342,l),
(100,151,ls),
(100,49,o),
(167,-10,o),
(280,-10,c),
(341,-10,o),
(405,6,o),
(440,20,c),
(440,148,l),
(408,134,o),
(358,121,o),
(315,121,c),
(271,121,o),
(250,140,o),
(250,181,cs),
(250,342,l),
(420,342,l)
);
}
);
width = 450;
},
{
associatedMasterId = "083550D2-F2E8-44E3-BE3D-E8BDF41EDFC4";
layerId = "0AAF2CB4-2EBD-42C4-BAB4-4CEC92C737FB";
width = 600;
},
{
anchors = (
{
name = bottom;
pos = (227,0);
},
{
name = center;
pos = (173,284);
},
{
name = top;
pos = (151,617);
},
{
name = topright;
pos = (303,756);
}
);
layerId = "282B1E26-206F-49B4-A55F-166754234F2D";
shapes = (
{
closed = 1;
nodes = (
(340,472,l),
(175,472,l),
(175,557,l),
(20,412,l),
(20,407,l),
(100,407,l),
(100,121,ls),
(100,33,o),
(151,-10,o),
(235,-10,c),
(281,-10,o),
(327,4,o),
(360,25,c),
(360,95,l),
(325,71,o),
(284,55,o),
(245,55,c),
(198,55,o),
(175,77,o),
(175,131,cs),
(175,407,l),
(340,407,l)
);
}
);
width = 380;
},
{
associatedMasterId = "282B1E26-206F-49B4-A55F-166754234F2D";
layerId = "1DB4E4C7-8996-43C2-A0D7-2A72F9A8DB38";
width = 600;
}
);
unicode = 116;
},
{
color = 1;
glyphname = u;
kernLeft = u;
kernRight = u;
lastChange = "2023-05-27 13:29:10 +0000";
layers = (
{
anchors = (
{
name = bottom;
pos = (291,0);
},
{
name = ogonek;
pos = (497,0);
},
{
name = top;
pos = (293,472);
},
{
name = topright;
pos = (456,473);
}
);
layerId = "083550D2-F2E8-44E3-BE3D-E8BDF41EDFC4";
shapes = (
{
closed = 1;
nodes = (
(296,-10,o),
(376,43,o),
(400,110,c),
(400,210,l),
(376,153,o),
(328,120,o),
(276,120,cs),
(224,120,o),
(200,155,o),
(200,208,cs),
(200,472,l),
(50,472,l),
(50,208,ls),
(50,57,o),
(114,-10,o),
(226,-10,cs)
);
},
{
closed = 1;
nodes = (
(530,0,l),
(530,472,l),
(380,472,l),
(380,80,l),
(380,0,l)
);
}
);
width = 590;
},
{
associatedMasterId = "083550D2-F2E8-44E3-BE3D-E8BDF41EDFC4";
layerId = "0AAF2CB4-2EBD-42C4-BAB4-4CEC92C737FB";
width = 600;
},
{
anchors = (
{
name = bottom;
pos = (287,0);
},
{
name = ogonek;
pos = (463,0);
},
{
name = top;
pos = (286,472);
},
{
name = topright;
pos = (450,472);
}
);
layerId = "282B1E26-206F-49B4-A55F-166754234F2D";
shapes = (
{
closed = 1;
nodes = (
(331,-10,o),
(403,48,o),
(440,110,c),
(440,175,l),
(393,103,o),
(332,55,o),
(256,55,cs),
(180,55,o),
(145,110,o),
(145,209,cs),
(145,472,l),
(70,472,l),
(70,209,ls),
(70,64,o),
(133,-10,o),
(246,-10,cs)
);
},
{
closed = 1;
nodes = (
(490,0,l),
(490,472,l),
(415,472,l),
(415,80,l),
(415,0,l)
);
}
);
width = 570;
},
{
associatedMasterId = "282B1E26-206F-49B4-A55F-166754234F2D";
layerId = "57BE25A3-B788-4AF8-B674-CF7B2BC7320F";
width = 600;
}
);
unicode = 117;
},
{
color = 1;
glyphname = v;
kernLeft = v;
kernRight = v;
lastChange = "2022-03-22 12:22:44 +0000";
layers = (
{
layerId = "083550D2-F2E8-44E3-BE3D-E8BDF41EDFC4";
shapes = (
{
closed = 1;
nodes = (
(280,207,l),
(180,472,l),
(10,472,l),
(240,-10,l),
(320,-10,l),
(550,472,l),
(380,472,l)
);
}
);
width = 560;
},
{
associatedMasterId = "083550D2-F2E8-44E3-BE3D-E8BDF41EDFC4";
layerId = "0AAF2CB4-2EBD-42C4-BAB4-4CEC92C737FB";
width = 600;
},
{
layerId = "282B1E26-206F-49B4-A55F-166754234F2D";
shapes = (
{
closed = 1;
nodes = (
(270,97,l),
(100,472,l),
(20,472,l),
(250,-10,l),
(290,-10,l),
(520,472,l),
(440,472,l)
);
}
);
width = 540;
},
{
associatedMasterId = "282B1E26-206F-49B4-A55F-166754234F2D";
layerId = "8D6EB492-5E7B-4870-8AAE-0B7739C0BEB1";
width = 600;
}
);
unicode = 118;
},
{
color = 1;
glyphname = w;
kernLeft = v;
kernRight = v;
lastChange = "2022-03-22 12:24:23 +0000";
layers = (
{
anchors = (
{
name = bottom;
pos = (442,0);
},
{
name = top;
pos = (435,472);
}
);
layerId = "083550D2-F2E8-44E3-BE3D-E8BDF41EDFC4";
shapes = (
{
closed = 1;
nodes = (
(590,217,l),
(505,472,l),
(365,472,l),
(280,217,l),
(180,472,l),
(10,472,l),
(240,-10,l),
(320,-10,l),
(435,300,l),
(550,-10,l),
(630,-10,l),
(860,472,l),
(690,472,l)
);
}
);
width = 870;
},
{
associatedMasterId = "083550D2-F2E8-44E3-BE3D-E8BDF41EDFC4";
layerId = "0AAF2CB4-2EBD-42C4-BAB4-4CEC92C737FB";
width = 600;
},
{
anchors = (
{
name = bottom;
pos = (432,0);
},
{
name = top;
pos = (425,472);
}
);
layerId = "282B1E26-206F-49B4-A55F-166754234F2D";
shapes = (
{
closed = 1;
nodes = (
(600,117,l),
(465,472,l),
(385,472,l),
(250,117,l),
(100,472,l),
(20,472,l),
(230,-10,l),
(270,-10,l),
(425,390,l),
(580,-10,l),
(620,-10,l),
(830,472,l),
(750,472,l)
);
}
);
width = 850;
},
{
associatedMasterId = "282B1E26-206F-49B4-A55F-166754234F2D";
layerId = "1B5390BF-936B-4D35-AE6E-E608EA7ABBD4";
width = 600;
}
);
metricLeft = v;
metricRight = v;
unicode = 119;
},
{
color = 1;
glyphname = x;
kernLeft = x;
kernRight = x;
lastChange = "2022-03-22 12:24:23 +0000";
layers = (
{
layerId = "083550D2-F2E8-44E3-BE3D-E8BDF41EDFC4";
shapes = (
{
closed = 1;
nodes = (
(410,472,l),
(300,317,l),
(190,472,l),
(10,472,l),
(200,236,l),
(10,0,l),
(190,0,l),
(300,155,l),
(410,0,l),
(590,0,l),
(400,236,l),
(590,472,l)
);
}
);
width = 600;
},
{
associatedMasterId = "083550D2-F2E8-44E3-BE3D-E8BDF41EDFC4";
layerId = "0AAF2CB4-2EBD-42C4-BAB4-4CEC92C737FB";
width = 600;
},
{
layerId = "282B1E26-206F-49B4-A55F-166754234F2D";
shapes = (
{
closed = 1;
nodes = (
(430,472,l),
(270,277,l),
(110,472,l),
(20,472,l),
(215,236,l),
(20,0,l),
(110,0,l),
(270,195,l),
(430,0,l),
(520,0,l),
(325,236,l),
(520,472,l)
);
}
);
width = 540;
},
{
associatedMasterId = "282B1E26-206F-49B4-A55F-166754234F2D";
layerId = "9E8F5B53-1634-47A7-BDB5-CFD3F1C2BF71";
width = 600;
}
);
metricLeft = v;
metricRight = v;
unicode = 120;
},
{
color = 1;
glyphname = y;
kernLeft = y;
kernRight = y;
lastChange = "2023-07-30 19:28:13 +0000";
layers = (
{
anchors = (
{
name = bottom;
pos = (449,0);
},
{
name = top;
pos = (276,472);
}
);
layerId = "083550D2-F2E8-44E3-BE3D-E8BDF41EDFC4";
shapes = (
{
closed = 1;
nodes = (
(270,207,l),
(50,-244,l),
(210,-244,l),
(550,472,l),
(380,472,l)
);
},
{
closed = 1;
nodes = (
(180,472,l),
(10,472,l),
(240,0,l),
(290,0,l),
(290,207,l)
);
}
);
width = 560;
},
{
associatedMasterId = "083550D2-F2E8-44E3-BE3D-E8BDF41EDFC4";
layerId = "0AAF2CB4-2EBD-42C4-BAB4-4CEC92C737FB";
width = 600;
},
{
anchors = (
{
name = bottom;
pos = (359,0);
},
{
name = top;
pos = (249,472);
}
);
layerId = "282B1E26-206F-49B4-A55F-166754234F2D";
shapes = (
{
closed = 1;
nodes = (
(230,97,l),
(50,-244,l),
(135,-244,l),
(490,472,l),
(410,472,l)
);
},
{
closed = 1;
nodes = (
(100,472,l),
(20,472,l),
(230,40,l),
(260,40,l),
(270,117,l)
);
}
);
width = 510;
},
{
associatedMasterId = "282B1E26-206F-49B4-A55F-166754234F2D";
layerId = "E309B821-7309-445B-B58A-705172FC6683";
width = 600;
}
);
metricLeft = v;
metricRight = v;
unicode = 121;
},
{
color = 1;
glyphname = z;
kernLeft = z;
kernRight = z;
lastChange = "2022-03-16 04:01:10 +0000";
layers = (
{
anchors = (
{
name = bottom;
pos = (268,0);
},
{
name = top;
pos = (257,472);
}
);
layerId = "083550D2-F2E8-44E3-BE3D-E8BDF41EDFC4";
shapes = (
{
closed = 1;
nodes = (
(500,0,l),
(500,130,l),
(219,130,l),
(238,93,l),
(500,472,l),
(20,472,l),
(20,342,l),
(291,342,l),
(272,379,l),
(10,0,l)
);
}
);
width = 510;
},
{
associatedMasterId = "083550D2-F2E8-44E3-BE3D-E8BDF41EDFC4";
layerId = "0AAF2CB4-2EBD-42C4-BAB4-4CEC92C737FB";
width = 600;
},
{
anchors = (
{
name = bottom;
pos = (258,0);
},
{
name = top;
pos = (247,472);
}
);
layerId = "282B1E26-206F-49B4-A55F-166754234F2D";
shapes = (
{
closed = 1;
nodes = (
(450,0,l),
(450,65,l),
(108,65,l),
(126,29,l),
(450,472,l),
(30,472,l),
(30,407,l),
(362,407,l),
(344,443,l),
(20,0,l)
);
}
);
width = 470;
},
{
associatedMasterId = "282B1E26-206F-49B4-A55F-166754234F2D";
layerId = "54E1996F-BB98-4EC3-991C-DDD9B5038238";
width = 600;
}
);
unicode = 122;
},
{
color = 5;
glyphname = ampersand;
kernLeft = ampersand;
kernRight = ampersand;
lastChange = "2023-08-14 22:22:45 +0000";
layers = (
{
layerId = "083550D2-F2E8-44E3-BE3D-E8BDF41EDFC4";
shapes = (
{
closed = 1;
nodes = (
(754,0,l),
(566,203,l),
(533,224,l),
(380,380,ls),
(333,428,o),
(298,471,o),
(298,505,cs),
(298,537,o),
(321,558,o),
(350,558,cs),
(381,558,o),
(402,534,o),
(402,505,cs),
(402,469,o),
(378,435,o),
(334,401,c),
(396,332,l),
(481,377,o),
(535,441,o),
(535,520,cs),
(535,604,o),
(467,678,o),
(345,678,cs),
(218,678,o),
(148,594,o),
(148,517,cs),
(148,432,o),
(195,380,o),
(264,307,cs),
(428,132,l),
(463,107,l),
(554,0,l)
);
},
{
closed = 1;
nodes = (
(392,-10,o),
(470,39,o),
(542,102,c),
(450,198,l),
(408,157,o),
(367,129,o),
(310,130,cs),
(263,131,o),
(230,160,o),
(230,200,cs),
(230,246,o),
(264,276,o),
(331,315,c),
(255,395,l),
(133,337,o),
(70,264,o),
(70,162,cs),
(70,60,o),
(157,-10,o),
(273,-10,cs)
);
},
{
closed = 1;
nodes = (
(659,212,o),
(720,309,o),
(745,404,c),
(595,404,l),
(577,344,o),
(545,281,o),
(488,231,c),
(582,140,l)
);
}
);
width = 824;
},
{
associatedMasterId = "083550D2-F2E8-44E3-BE3D-E8BDF41EDFC4";
layerId = "0AAF2CB4-2EBD-42C4-BAB4-4CEC92C737FB";
width = 600;
},
{
layerId = "282B1E26-206F-49B4-A55F-166754234F2D";
shapes = (
{
closed = 1;
nodes = (
(709,0,l),
(534,176,l),
(514,190,l),
(290,409,ls),
(253,445,o),
(223,476,o),
(223,530,cs),
(223,577,o),
(256,608,o),
(306,608,cs),
(356,608,o),
(389,577,o),
(389,530,cs),
(389,472,o),
(355,436,o),
(282,390,c),
(324,346,l),
(412,397,o),
(469,457,o),
(469,530,cs),
(469,619,o),
(404,678,o),
(306,678,cs),
(208,678,o),
(143,619,o),
(143,530,cs),
(143,461,o),
(185,415,o),
(230,370,cs),
(463,136,l),
(481,124,l),
(599,0,l)
);
},
{
closed = 1;
nodes = (
(357,-10,o),
(450,41,o),
(521,121,c),
(474,167,l),
(398,91,o),
(333,60,o),
(258,60,cs),
(197,60,o),
(160,96,o),
(160,150,cs),
(160,217,o),
(200,273,o),
(308,337,c),
(262,386,l),
(143,317,o),
(80,238,o),
(80,140,cs),
(80,57,o),
(145,-10,o),
(258,-10,cs)
);
},
{
closed = 1;
nodes = (
(604,208,o),
(663,304,o),
(690,404,c),
(610,404,l),
(585,316,o),
(545,243,o),
(485,177,c),
(534,132,l)
);
}
);
width = 789;
},
{
associatedMasterId = "282B1E26-206F-49B4-A55F-166754234F2D";
layerId = "F4C90419-5872-4CC3-8377-083D711CEEE9";
width = 600;
}
);
unicode = 38;
},
{
color = 5;
glyphname = exclam;
kernLeft = exclam;
kernRight = exclam;
lastChange = "2022-03-16 10:01:14 +0000";
layers = (
{
layerId = "083550D2-F2E8-44E3-BE3D-E8BDF41EDFC4";
shapes = (
{
closed = 1;
nodes = (
(259,673,o),
(232,718,o),
(179,718,c),
(126,718,o),
(99,673,o),
(99,597,cs),
(99,449,o),
(133,280,o),
(178,280,c),
(223,280,o),
(259,450,o),
(259,597,cs)
);
},
{
pos = (20,1);
ref = period;
}
);
width = 360;
},
{
associatedMasterId = "083550D2-F2E8-44E3-BE3D-E8BDF41EDFC4";
layerId = "0AAF2CB4-2EBD-42C4-BAB4-4CEC92C737FB";
width = 600;
},
{
layerId = "282B1E26-206F-49B4-A55F-166754234F2D";
shapes = (
{
closed = 1;
nodes = (
(178,697,o),
(159,718,o),
(133,718,c),
(107,718,o),
(88,697,o),
(88,637,c),
(88,399,o),
(106,220,o),
(133,220,c),
(159,220,o),
(178,400,o),
(178,637,c)
);
},
{
pos = (20,1);
ref = period;
}
);
width = 270;
},
{
associatedMasterId = "282B1E26-206F-49B4-A55F-166754234F2D";
layerId = "021FEA5C-12F5-4A5C-8EDB-88574B66F52C";
width = 600;
}
);
unicode = 33;
},
{
color = 5;
glyphname = question;
kernLeft = question;
kernRight = question;
lastChange = "2022-04-06 20:05:56 +0000";
layers = (
{
layerId = "083550D2-F2E8-44E3-BE3D-E8BDF41EDFC4";
shapes = (
{
closed = 1;
nodes = (
(390,426,o),
(436,470,o),
(436,545,c),
(436,650,o),
(359,720,o),
(243,720,c),
(163,720,o),
(102,688,o),
(80,670,c),
(70,533,l),
(80,525,l),
(111,552,o),
(165,578,o),
(211,578,c),
(252,578,o),
(276,557,o),
(276,526,c),
(276,475,o),
(202,448,o),
(165,374,cs),
(132,308,o),
(175,249,o),
(202,249,c),
(220,249,o),
(231,264,o),
(245,286,cs),
(264,316,o),
(294,346,o),
(336,381,cs)
);
},
{
pos = (84,0);
ref = period;
}
);
width = 516;
},
{
associatedMasterId = "083550D2-F2E8-44E3-BE3D-E8BDF41EDFC4";
layerId = "0AAF2CB4-2EBD-42C4-BAB4-4CEC92C737FB";
width = 600;
},
{
layerId = "282B1E26-206F-49B4-A55F-166754234F2D";
shapes = (
{
closed = 1;
nodes = (
(389,422,o),
(436,470,o),
(436,545,cs),
(436,650,o),
(359,720,o),
(243,720,c),
(157,720,o),
(97,682,o),
(80,665,c),
(70,592,l),
(80,585,l),
(108,612,o),
(172,650,o),
(238,650,c),
(309,650,o),
(356,608,o),
(356,545,cs),
(356,460,o),
(258,414,o),
(209,334,cs),
(176,280,o),
(185,219,o),
(212,219,c),
(230,219,o),
(236,244,o),
(253,273,cs),
(270,303,o),
(300,333,o),
(341,374,cs)
);
},
{
pos = (124,0);
ref = period;
}
);
width = 516;
},
{
associatedMasterId = "282B1E26-206F-49B4-A55F-166754234F2D";
layerId = "8C8F7D92-E545-4EA6-8200-0463D16BAF09";
width = 600;
}
);
unicode = 63;
},
{
color = 5;
glyphname = numbersign;
kernLeft = numbersign;
kernRight = numbersign;
lastChange = "2022-02-27 17:55:31 +0000";
layers = (
{
layerId = "083550D2-F2E8-44E3-BE3D-E8BDF41EDFC4";
shapes = (
{
closed = 1;
nodes = (
(225,0,l),
(375,0,l),
(375,668,l),
(225,668,l)
);
},
{
closed = 1;
nodes = (
(505,0,l),
(655,0,l),
(655,668,l),
(505,668,l)
);
},
{
closed = 1;
nodes = (
(80,400,l),
(800,400,l),
(800,530,l),
(80,530,l)
);
},
{
closed = 1;
nodes = (
(80,140,l),
(800,140,l),
(800,270,l),
(80,270,l)
);
}
);
width = 880;
},
{
associatedMasterId = "083550D2-F2E8-44E3-BE3D-E8BDF41EDFC4";
layerId = "0AAF2CB4-2EBD-42C4-BAB4-4CEC92C737FB";
width = 600;
},
{
layerId = "282B1E26-206F-49B4-A55F-166754234F2D";
shapes = (
{
closed = 1;
nodes = (
(260,0,l),
(340,0,l),
(340,668,l),
(260,668,l)
);
},
{
closed = 1;
nodes = (
(540,0,l),
(620,0,l),
(620,668,l),
(540,668,l)
);
},
{
closed = 1;
nodes = (
(80,435,l),
(800,435,l),
(800,505,l),
(80,505,l)
);
},
{
closed = 1;
nodes = (
(80,165,l),
(800,165,l),
(800,235,l),
(80,235,l)
);
}
);
width = 880;
},
{
associatedMasterId = "282B1E26-206F-49B4-A55F-166754234F2D";
layerId = "F9B690E7-D188-4248-8716-3587E4B2AD19";
width = 600;
}
);
unicode = 35;
},
{
color = 5;
glyphname = euro;
kernLeft = euro;
kernRight = euro;
lastChange = "2023-06-10 09:26:44 +0000";
layers = (
{
layerId = "083550D2-F2E8-44E3-BE3D-E8BDF41EDFC4";
shapes = (
{
closed = 1;
nodes = (
(60,368,l),
(610,368,l),
(630,448,l),
(80,448,l)
);
},
{
closed = 1;
nodes = (
(60,228,l),
(580,228,l),
(600,308,l),
(80,308,l)
);
},
{
closed = 1;
nodes = (
(682,155,o),
(608,130,o),
(540,130,c),
(420,130,o),
(340,212,o),
(340,334,c),
(340,456,o),
(416,538,o),
(530,538,c),
(615,538,o),
(704,504,o),
(741,457,c),
(655,459,l),
(735,687,l),
(741,608,l),
(703,650,o),
(605,678,o),
(510,678,c),
(312,678,o),
(180,540,o),
(180,334,c),
(180,128,o),
(316,-10,o),
(520,-10,c),
(604,-10,o),
(686,12,o),
(725,46,c),
(725,192,l)
);
}
);
width = 785;
},
{
associatedMasterId = "083550D2-F2E8-44E3-BE3D-E8BDF41EDFC4";
layerId = "0AAF2CB4-2EBD-42C4-BAB4-4CEC92C737FB";
width = 600;
},
{
layerId = "282B1E26-206F-49B4-A55F-166754234F2D";
shapes = (
{
closed = 1;
nodes = (
(80,388,l),
(580,388,l),
(596,448,l),
(96,448,l)
);
},
{
closed = 1;
nodes = (
(50,258,l),
(550,258,l),
(566,318,l),
(66,318,l)
);
},
{
closed = 1;
nodes = (
(662,85,o),
(580,60,o),
(500,60,c),
(356,60,o),
(260,170,o),
(260,334,c),
(260,498,o),
(356,608,o),
(500,608,c),
(591,608,o),
(685,574,o),
(720,528,c),
(635,509,l),
(705,687,l),
(721,607,l),
(685,649,o),
(591,678,o),
(500,678,c),
(308,678,o),
(180,540,o),
(180,334,c),
(180,128,o),
(308,-10,o),
(500,-10,c),
(584,-10,o),
(666,12,o),
(705,46,c),
(705,122,l)
);
}
);
width = 765;
},
{
associatedMasterId = "282B1E26-206F-49B4-A55F-166754234F2D";
layerId = "6744BC4F-DA62-4C02-B161-1B14C13EE7C6";
width = 600;
}
);
unicode = 8364;
},
{
color = 5;
glyphname = rupeeIndian;
kernLeft = rupeeIndian;
kernRight = rupeeIndian;
lastChange = "2023-09-05 19:27:17 +0000";
layers = (
{
layerId = "083550D2-F2E8-44E3-BE3D-E8BDF41EDFC4";
shapes = (
{
closed = 1;
nodes = (
(60,518,l),
(518,518,l),
(548,648,l),
(90,648,l)
);
},
{
closed = 1;
nodes = (
(60,368,l),
(518,368,l),
(548,458,l),
(90,458,l)
);
},
{
closed = 1;
nodes = (
(255,558,l),
(267,520,o),
(282,459,o),
(282,387,cs),
(282,331,o),
(242,293,o),
(183,293,cs),
(158,293,o),
(136,300,o),
(114,312,c),
(73,247,l),
(103,210,o),
(139,166,o),
(177,119,cs),
(233,50,o),
(284,-11,o),
(303,-30,c),
(459,20,l),
(439,34,o),
(377,101,o),
(352,130,cs),
(332,154,o),
(307,183,o),
(293,199,c),
(377,229,o),
(432,292,o),
(432,387,cs),
(432,475,o),
(409,542,o),
(389,588,c)
);
}
);
width = 608;
},
{
associatedMasterId = "083550D2-F2E8-44E3-BE3D-E8BDF41EDFC4";
layerId = "0AAF2CB4-2EBD-42C4-BAB4-4CEC92C737FB";
width = 600;
},
{
layerId = "282B1E26-206F-49B4-A55F-166754234F2D";
shapes = (
{
closed = 1;
nodes = (
(60,583,l),
(453,583,l),
(473,648,l),
(80,648,l)
);
},
{
closed = 1;
nodes = (
(60,425,l),
(453,425,l),
(473,490,l),
(80,490,l)
);
},
{
closed = 1;
nodes = (
(264,598,l),
(274,568,o),
(289,516,o),
(289,447,cs),
(289,372,o),
(240,322,o),
(166,322,cs),
(139,322,o),
(117,328,o),
(96,340,c),
(60,300,l),
(94,255,o),
(149,184,o),
(196,127,cs),
(262,46,o),
(302,-1,o),
(321,-20,c),
(412,0,l),
(388,21,o),
(350,65,o),
(269,160,cs),
(228,208,o),
(209,230,o),
(189,253,c),
(296,264,o),
(364,341,o),
(364,447,cs),
(364,524,o),
(346,581,o),
(330,618,c)
);
}
);
width = 533;
},
{
associatedMasterId = "282B1E26-206F-49B4-A55F-166754234F2D";
layerId = "D14EC863-F559-4C88-9D7C-6269A782A04F";
width = 600;
}
);
unicode = 8377;
},
{
color = 1;
glyphname = zero;
kernLeft = zero;
kernRight = zero;
lastChange = "2023-08-16 18:25:26 +0000";
layers = (
{
anchors = (
{
name = center;
pos = (308,334);
}
);
layerId = "083550D2-F2E8-44E3-BE3D-E8BDF41EDFC4";
shapes = (
{
closed = 1;
nodes = (
(478,-10,o),
(578,118,o),
(578,334,cs),
(578,550,o),
(478,678,o),
(308,678,cs),
(140,678,o),
(40,550,o),
(40,334,cs),
(40,118,o),
(140,-10,o),
(308,-10,cs)
);
},
{
closed = 1;
nodes = (
(237,130,o),
(200,200,o),
(200,334,cs),
(200,468,o),
(237,538,o),
(308,538,cs),
(380,538,o),
(418,468,o),
(418,334,cs),
(418,200,o),
(380,130,o),
(308,130,cs)
);
}
);
width = 618;
},
{
associatedMasterId = "083550D2-F2E8-44E3-BE3D-E8BDF41EDFC4";
layerId = "0AAF2CB4-2EBD-42C4-BAB4-4CEC92C737FB";
width = 600;
},
{
anchors = (
{
name = center;
pos = (299,334);
}
);
layerId = "282B1E26-206F-49B4-A55F-166754234F2D";
shapes = (
{
closed = 1;
nodes = (
(453,-10,o),
(538,113,o),
(538,334,cs),
(538,555,o),
(453,678,o),
(299,678,cs),
(145,678,o),
(60,555,o),
(60,334,cs),
(60,113,o),
(145,-10,o),
(299,-10,cs)
);
},
{
closed = 1;
nodes = (
(197,60,o),
(140,158,o),
(140,334,cs),
(140,510,o),
(197,608,o),
(299,608,cs),
(401,608,o),
(458,510,o),
(458,334,cs),
(458,158,o),
(401,60,o),
(299,60,cs)
);
}
);
width = 598;
},
{
associatedMasterId = "282B1E26-206F-49B4-A55F-166754234F2D";
layerId = "F5DBB449-314D-4945-B2BE-936894E3C476";
width = 600;
}
);
unicode = 48;
},
{
color = 1;
glyphname = one;
kernLeft = one;
kernRight = one;
lastChange = "2023-05-27 13:56:13 +0000";
layers = (
{
layerId = "083550D2-F2E8-44E3-BE3D-E8BDF41EDFC4";
shapes = (
{
closed = 1;
nodes = (
(40,438,l),
(220,493,l),
(220,0,l),
(380,0,l),
(380,678,l),
(40,568,l)
);
}
);
width = 460;
},
{
associatedMasterId = "083550D2-F2E8-44E3-BE3D-E8BDF41EDFC4";
layerId = "0AAF2CB4-2EBD-42C4-BAB4-4CEC92C737FB";
width = 600;
},
{
layerId = "282B1E26-206F-49B4-A55F-166754234F2D";
shapes = (
{
closed = 1;
nodes = (
(40,518,l),
(220,580,l),
(220,0,l),
(300,0,l),
(300,678,l),
(40,588,l)
);
}
);
width = 400;
},
{
associatedMasterId = "282B1E26-206F-49B4-A55F-166754234F2D";
layerId = "C54E78DF-0DAA-479A-92A1-04FE630AEFAA";
width = 600;
}
);
unicode = 49;
},
{
color = 1;
glyphname = two;
kernLeft = two;
kernRight = two;
lastChange = "2023-08-14 22:18:13 +0000";
layers = (
{
layerId = "083550D2-F2E8-44E3-BE3D-E8BDF41EDFC4";
shapes = (
{
closed = 1;
nodes = (
(333,234,ls),
(415,330,o),
(462,402,o),
(462,490,cs),
(462,608,o),
(380,678,o),
(242,678,cs),
(174,678,o),
(93,653,o),
(40,618,c),
(40,468,l),
(96,506,o),
(167,538,o),
(222,538,cs),
(273,538,o),
(302,510,o),
(302,460,cs),
(302,416,o),
(276,364,o),
(218,295,cs),
(40,80,l),
(40,0,l),
(490,0,l),
(490,140,l),
(253,140,l)
);
}
);
width = 530;
},
{
associatedMasterId = "083550D2-F2E8-44E3-BE3D-E8BDF41EDFC4";
layerId = "0AAF2CB4-2EBD-42C4-BAB4-4CEC92C737FB";
width = 600;
},
{
layerId = "282B1E26-206F-49B4-A55F-166754234F2D";
shapes = (
{
closed = 1;
nodes = (
(294,221,ls),
(375,324,o),
(432,401,o),
(432,495,cs),
(432,605,o),
(354,678,o),
(237,678,cs),
(165,678,o),
(101,650,o),
(60,618,c),
(60,538,l),
(115,580,o),
(179,608,o),
(237,608,cs),
(306,608,o),
(352,563,o),
(352,495,cs),
(352,423,o),
(313,360,o),
(239,266,cs),
(60,40,l),
(60,0,l),
(470,0,l),
(470,70,l),
(176,70,l)
);
}
);
width = 530;
},
{
associatedMasterId = "282B1E26-206F-49B4-A55F-166754234F2D";
layerId = "F65E8F33-EB2A-439A-9B8F-20E735EFDA17";
width = 600;
}
);
unicode = 50;
},
{
color = 1;
glyphname = three;
kernLeft = three;
kernRight = three;
lastChange = "2023-08-14 22:09:05 +0000";
layers = (
{
layerId = "083550D2-F2E8-44E3-BE3D-E8BDF41EDFC4";
shapes = (
{
closed = 1;
nodes = (
(408,388,o),
(462,435,o),
(462,511,cs),
(462,611,o),
(377,678,o),
(250,678,cs),
(185,678,o),
(109,658,o),
(60,628,c),
(60,488,l),
(124,520,o),
(185,538,o),
(230,538,cs),
(273,538,o),
(302,514,o),
(302,477,cs),
(302,436,o),
(272,412,o),
(220,412,cs),
(161,412,l),
(161,292,l),
(220,292,ls),
(290,292,o),
(332,262,o),
(332,210,cs),
(332,162,o),
(291,130,o),
(230,130,cs),
(159,130,o),
(95,153,o),
(40,200,c),
(40,50,l),
(84,16,o),
(159,-10,o),
(250,-10,cs),
(395,-10,o),
(492,74,o),
(492,200,cs),
(492,291,o),
(437,352,o),
(372,373,c)
);
}
);
width = 532;
},
{
associatedMasterId = "083550D2-F2E8-44E3-BE3D-E8BDF41EDFC4";
layerId = "0AAF2CB4-2EBD-42C4-BAB4-4CEC92C737FB";
width = 600;
},
{
layerId = "282B1E26-206F-49B4-A55F-166754234F2D";
shapes = (
{
closed = 1;
nodes = (
(389,375,o),
(452,428,o),
(452,506,cs),
(452,609,o),
(372,678,o),
(252,678,cs),
(188,678,o),
(127,660,o),
(80,628,c),
(80,548,l),
(134,587,o),
(195,608,o),
(252,608,cs),
(324,608,o),
(372,567,o),
(372,506,cs),
(372,438,o),
(321,392,o),
(222,392,cs),
(181,392,l),
(181,322,l),
(222,322,ls),
(335,322,o),
(392,268,o),
(392,188,cs),
(392,108,o),
(331,60,o),
(252,60,cs),
(186,60,o),
(117,89,o),
(60,140,c),
(60,50,l),
(108,11,o),
(177,-10,o),
(252,-10,cs),
(388,-10,o),
(472,75,o),
(472,188,cs),
(472,289,o),
(392,346,o),
(333,360,c)
);
}
);
width = 532;
},
{
associatedMasterId = "282B1E26-206F-49B4-A55F-166754234F2D";
layerId = "CFABF002-F17E-4E53-BB3D-D2427B8C496E";
width = 600;
}
);
unicode = 51;
},
{
color = 1;
glyphname = four;
kernLeft = four;
kernRight = four;
lastChange = "2022-03-22 11:30:44 +0000";
layers = (
{
layerId = "083550D2-F2E8-44E3-BE3D-E8BDF41EDFC4";
shapes = (
{
closed = 1;
nodes = (
(464,140,l),
(580,140,l),
(580,280,l),
(464,280,l)
);
},
{
closed = 1;
nodes = (
(480,668,l),
(360,668,l),
(10,220,l),
(10,140,l),
(336,140,l),
(336,280,l),
(149,280,l),
(157,264,l),
(337,504,l),
(320,513,l),
(320,0,l),
(480,0,l)
);
}
);
width = 600;
},
{
associatedMasterId = "083550D2-F2E8-44E3-BE3D-E8BDF41EDFC4";
layerId = "0AAF2CB4-2EBD-42C4-BAB4-4CEC92C737FB";
width = 600;
},
{
layerId = "282B1E26-206F-49B4-A55F-166754234F2D";
shapes = (
{
closed = 1;
nodes = (
(394,190,l),
(510,190,l),
(510,260,l),
(394,260,l)
);
},
{
closed = 1;
nodes = (
(410,668,l),
(370,668,l),
(20,230,l),
(20,190,l),
(346,190,l),
(346,260,l),
(84,260,l),
(101,225,l),
(358,548,l),
(330,558,l),
(330,0,l),
(410,0,l)
);
}
);
width = 550;
},
{
associatedMasterId = "282B1E26-206F-49B4-A55F-166754234F2D";
layerId = "CE63E7A5-EDCE-4BBC-8E49-37AAD739CCA8";
width = 600;
}
);
unicode = 52;
},
{
color = 1;
glyphname = five;
kernLeft = five;
kernRight = five;
lastChange = "2023-07-30 18:16:26 +0000";
layers = (
{
layerId = "083550D2-F2E8-44E3-BE3D-E8BDF41EDFC4";
shapes = (
{
closed = 1;
nodes = (
(250,425,o),
(237,424,o),
(230,423,c),
(238,528,l),
(440,528,l),
(440,668,l),
(90,668,l),
(70,296,l),
(101,301,o),
(140,305,o),
(192,305,cs),
(275,305,o),
(332,278,o),
(332,218,c),
(332,164,o),
(287,130,o),
(222,130,cs),
(162,130,o),
(99,150,o),
(50,180,c),
(50,30,l),
(84,11,o),
(153,-10,o),
(232,-10,cs),
(378,-10,o),
(492,84,o),
(492,218,c),
(492,346,o),
(398,425,o),
(270,425,cs)
);
}
);
width = 542;
},
{
associatedMasterId = "083550D2-F2E8-44E3-BE3D-E8BDF41EDFC4";
layerId = "0AAF2CB4-2EBD-42C4-BAB4-4CEC92C737FB";
width = 600;
},
{
layerId = "282B1E26-206F-49B4-A55F-166754234F2D";
shapes = (
{
closed = 1;
nodes = (
(212,415,o),
(190,411,o),
(171,406,c),
(183,598,l),
(420,598,l),
(420,668,l),
(111,668,l),
(91,320,l),
(130,336,o),
(170,345,o),
(222,345,cs),
(319,345,o),
(382,288,o),
(382,203,c),
(382,117,o),
(319,60,o),
(232,60,cs),
(165,60,o),
(100,92,o),
(60,140,c),
(60,50,l),
(90,20,o),
(161,-10,o),
(232,-10,c),
(373,-10,o),
(462,83,o),
(462,203,c),
(462,324,o),
(375,415,o),
(240,415,cs)
);
}
);
width = 522;
},
{
associatedMasterId = "282B1E26-206F-49B4-A55F-166754234F2D";
layerId = "3EE16340-9913-423C-8F9F-BFB68A8B0431";
width = 600;
}
);
unicode = 53;
},
{
color = 1;
glyphname = six;
kernLeft = six;
kernRight = six;
lastChange = "2023-08-14 22:10:04 +0000";
layers = (
{
layerId = "083550D2-F2E8-44E3-BE3D-E8BDF41EDFC4";
shapes = (
{
closed = 1;
nodes = (
(290,420,o),
(242,393,o),
(219,372,c),
(242,444,o),
(295,513,o),
(369,564,cs),
(387,576,o),
(410,590,o),
(424,596,c),
(330,688,l),
(156,601,o),
(40,428,o),
(40,256,cs),
(40,96,o),
(144,-10,o),
(300,-10,cs),
(450,-10,o),
(550,80,o),
(550,214,cs),
(550,339,o),
(465,420,o),
(350,420,cs)
);
},
{
closed = 1;
nodes = (
(246,130,o),
(210,165,o),
(210,218,cs),
(210,273,o),
(246,310,o),
(300,310,cs),
(354,310,o),
(390,273,o),
(390,218,cs),
(390,165,o),
(354,130,o),
(300,130,cs)
);
}
);
width = 590;
},
{
associatedMasterId = "083550D2-F2E8-44E3-BE3D-E8BDF41EDFC4";
layerId = "0AAF2CB4-2EBD-42C4-BAB4-4CEC92C737FB";
width = 600;
},
{
layerId = "282B1E26-206F-49B4-A55F-166754234F2D";
shapes = (
{
closed = 1;
nodes = (
(241,410,o),
(175,373,o),
(145,317,c),
(162,433,o),
(246,551,o),
(354,614,cs),
(367,622,o),
(383,630,o),
(402,639,c),
(350,688,l),
(176,603,o),
(60,421,o),
(60,234,cs),
(60,88,o),
(154,-10,o),
(295,-10,cs),
(430,-10,o),
(520,74,o),
(520,200,cs),
(520,326,o),
(436,410,o),
(310,410,cs)
);
},
{
closed = 1;
nodes = (
(208,60,o),
(150,116,o),
(150,200,cs),
(150,284,o),
(208,340,o),
(295,340,cs),
(382,340,o),
(440,284,o),
(440,200,cs),
(440,116,o),
(382,60,o),
(295,60,cs)
);
}
);
width = 580;
},
{
associatedMasterId = "282B1E26-206F-49B4-A55F-166754234F2D";
layerId = "458343EA-C3E3-4D4B-9927-2B034D69B813";
width = 600;
}
);
unicode = 54;
},
{
color = 1;
glyphname = seven;
kernLeft = seven;
kernRight = seven;
lastChange = "2022-03-16 08:19:58 +0000";
layers = (
{
layerId = "083550D2-F2E8-44E3-BE3D-E8BDF41EDFC4";
shapes = (
{
closed = 1;
nodes = (
(20,668,l),
(20,528,l),
(290,528,l),
(281,513,o),
(265,481,o),
(241,422,cs),
(80,30,l),
(230,-10,l),
(500,668,l)
);
}
);
width = 510;
},
{
associatedMasterId = "083550D2-F2E8-44E3-BE3D-E8BDF41EDFC4";
layerId = "0AAF2CB4-2EBD-42C4-BAB4-4CEC92C737FB";
width = 600;
},
{
layerId = "282B1E26-206F-49B4-A55F-166754234F2D";
shapes = (
{
closed = 1;
nodes = (
(20,668,l),
(20,598,l),
(360,598,l),
(347,577,o),
(335,548,o),
(321,514,cs),
(120,18,l),
(200,-10,l),
(460,668,l)
);
}
);
width = 470;
},
{
associatedMasterId = "282B1E26-206F-49B4-A55F-166754234F2D";
layerId = "7A801B00-CE8D-4660-A95A-19A27DE0D09A";
width = 600;
}
);
unicode = 55;
},
{
color = 1;
glyphname = eight;
kernLeft = eight;
kernRight = eight;
lastChange = "2022-03-22 11:30:20 +0000";
layers = (
{
layerId = "083550D2-F2E8-44E3-BE3D-E8BDF41EDFC4";
shapes = (
{
closed = 1;
nodes = (
(434,-10,o),
(530,74,o),
(530,200,cs),
(530,266,o),
(493,326,o),
(436,357,c),
(480,385,o),
(510,435,o),
(510,488,cs),
(510,602,o),
(422,678,o),
(290,678,cs),
(158,678,o),
(70,602,o),
(70,488,cs),
(70,435,o),
(100,385,o),
(144,357,c),
(87,326,o),
(50,266,o),
(50,200,cs),
(50,74,o),
(146,-10,o),
(290,-10,cs)
);
},
{
closed = 1;
nodes = (
(236,130,o),
(200,164,o),
(200,215,cs),
(200,266,o),
(236,300,o),
(290,300,cs),
(344,300,o),
(380,266,o),
(380,215,cs),
(380,164,o),
(344,130,o),
(290,130,cs)
);
},
{
closed = 1;
nodes = (
(245,408,o),
(215,434,o),
(215,473,cs),
(215,512,o),
(245,538,o),
(290,538,cs),
(335,538,o),
(365,512,o),
(365,473,cs),
(365,434,o),
(335,408,o),
(290,408,cs)
);
}
);
width = 580;
},
{
associatedMasterId = "083550D2-F2E8-44E3-BE3D-E8BDF41EDFC4";
layerId = "0AAF2CB4-2EBD-42C4-BAB4-4CEC92C737FB";
width = 600;
},
{
layerId = "282B1E26-206F-49B4-A55F-166754234F2D";
shapes = (
{
closed = 1;
nodes = (
(420,-10,o),
(510,68,o),
(510,185,cs),
(510,260,o),
(467,324,o),
(394,351,c),
(450,377,o),
(490,433,o),
(490,498,cs),
(490,606,o),
(408,678,o),
(285,678,cs),
(162,678,o),
(80,606,o),
(80,498,cs),
(80,433,o),
(120,377,o),
(176,351,c),
(103,324,o),
(60,260,o),
(60,185,cs),
(60,68,o),
(150,-10,o),
(285,-10,cs)
);
},
{
closed = 1;
nodes = (
(198,60,o),
(140,112,o),
(140,190,cs),
(140,268,o),
(198,320,o),
(285,320,cs),
(372,320,o),
(430,268,o),
(430,190,cs),
(430,112,o),
(372,60,o),
(285,60,cs)
);
},
{
closed = 1;
nodes = (
(210,378,o),
(160,424,o),
(160,493,cs),
(160,562,o),
(210,608,o),
(285,608,cs),
(360,608,o),
(410,562,o),
(410,493,cs),
(410,424,o),
(360,378,o),
(285,378,cs)
);
}
);
width = 570;
},
{
associatedMasterId = "282B1E26-206F-49B4-A55F-166754234F2D";
layerId = "D90DA796-CBDE-441C-B5F6-46025768BD6E";
width = 600;
}
);
unicode = 56;
},
{
color = 1;
glyphname = nine;
kernLeft = nine;
kernRight = nine;
lastChange = "2023-08-14 22:04:26 +0000";
layers = (
{
layerId = "083550D2-F2E8-44E3-BE3D-E8BDF41EDFC4";
shapes = (
{
closed = 1;
nodes = (
(434,78,o),
(550,251,o),
(550,412,cs),
(550,572,o),
(446,678,o),
(290,678,cs),
(140,678,o),
(40,588,o),
(40,454,cs),
(40,329,o),
(128,238,o),
(245,238,cs),
(304,238,o),
(338,253,o),
(360,276,c),
(333,219,o),
(292,164,o),
(211,103,cs),
(195,91,o),
(171,75,o),
(154,67,c),
(260,-20,l)
);
},
{
closed = 1;
nodes = (
(236,358,o),
(200,395,o),
(200,450,cs),
(200,503,o),
(236,538,o),
(290,538,cs),
(344,538,o),
(380,503,o),
(380,450,cs),
(380,395,o),
(344,358,o),
(290,358,cs)
);
}
);
width = 590;
},
{
associatedMasterId = "083550D2-F2E8-44E3-BE3D-E8BDF41EDFC4";
layerId = "0AAF2CB4-2EBD-42C4-BAB4-4CEC92C737FB";
width = 600;
},
{
layerId = "282B1E26-206F-49B4-A55F-166754234F2D";
shapes = (
{
closed = 1;
nodes = (
(404,73,o),
(520,255,o),
(520,434,cs),
(520,580,o),
(426,678,o),
(285,678,cs),
(150,678,o),
(60,594,o),
(60,468,cs),
(60,342,o),
(140,258,o),
(260,258,cs),
(334,258,o),
(402,291,o),
(430,341,c),
(410,247,o),
(330,136,o),
(230,65,cs),
(204,46,o),
(181,32,o),
(172,28,c),
(230,-20,l)
);
},
{
closed = 1;
nodes = (
(198,328,o),
(140,384,o),
(140,468,cs),
(140,552,o),
(198,608,o),
(285,608,cs),
(372,608,o),
(430,552,o),
(430,468,cs),
(430,384,o),
(372,328,o),
(285,328,cs)
);
}
);
width = 580;
},
{
associatedMasterId = "282B1E26-206F-49B4-A55F-166754234F2D";
layerId = "F463A373-E039-4542-8E65-8AF38741CDDB";
width = 600;
}
);
unicode = 57;
},
{
color = 1;
glyphname = "zero-deva";
lastChange = "2023-08-14 22:02:22 +0000";
layers = (
{
layerId = "282B1E26-206F-49B4-A55F-166754234F2D";
shapes = (
{
closed = 1;
nodes = (
(394,170,o),
(458,233,o),
(458,328,cs),
(458,420,o),
(394,482,o),
(299,482,cs),
(204,482,o),
(140,420,o),
(140,328,cs),
(140,233,o),
(204,170,o),
(299,170,cs)
);
},
{
closed = 1;
nodes = (
(442,552,o),
(538,462,o),
(538,328,cs),
(538,191,o),
(442,100,o),
(299,100,cs),
(156,100,o),
(60,191,o),
(60,328,cs),
(60,462,o),
(156,552,o),
(299,552,cs)
);
}
);
width = 598;
},
{
layerId = "083550D2-F2E8-44E3-BE3D-E8BDF41EDFC4";
shapes = (
{
closed = 1;
nodes = (
(384,220,o),
(428,263,o),
(428,328,cs),
(428,390,o),
(384,432,o),
(318,432,cs),
(253,432,o),
(210,390,o),
(210,328,cs),
(210,263,o),
(253,220,o),
(318,220,cs)
);
},
{
closed = 1;
nodes = (
(480,572,o),
(588,474,o),
(588,328,cs),
(588,179,o),
(480,80,o),
(318,80,cs),
(157,80,o),
(50,179,o),
(50,328,cs),
(50,474,o),
(157,572,o),
(318,572,cs)
);
}
);
width = 638;
}
);
unicode = 2406;
},
{
color = 1;
glyphname = "one-deva";
lastChange = "2023-08-14 22:11:22 +0000";
layers = (
{
layerId = "282B1E26-206F-49B4-A55F-166754234F2D";
shapes = (
{
closed = 1;
nodes = (
(350,599,o),
(290,658,o),
(200,658,cs),
(116,658,o),
(60,607,o),
(60,531,cs),
(60,490,o),
(74,452,o),
(92,427,c),
(172,427,l),
(154,458,o),
(140,493,o),
(140,526,cs),
(140,563,o),
(164,588,o),
(200,588,cs),
(242,588,o),
(270,557,o),
(270,511,cs),
(270,432,o),
(191,376,o),
(67,277,c),
(191,148,o),
(215,103,o),
(215,58,cs),
(215,36,o),
(208,18,o),
(197,0,c),
(282,0,l),
(289,15,o),
(296,32,o),
(296,58,cs),
(296,110,o),
(265,163,o),
(171,265,c),
(266,348,o),
(350,413,o),
(350,511,cs)
);
}
);
width = 410;
},
{
layerId = "083550D2-F2E8-44E3-BE3D-E8BDF41EDFC4";
shapes = (
{
closed = 1;
nodes = (
(425,590,o),
(349,658,o),
(235,658,cs),
(124,658,o),
(50,594,o),
(50,498,cs),
(50,460,o),
(62,427,o),
(72,409,c),
(212,409,l),
(201,428,o),
(190,454,o),
(190,478,cs),
(190,508,o),
(208,528,o),
(235,528,cs),
(265,528,o),
(285,506,o),
(285,473,cs),
(285,417,o),
(236,375,o),
(79,259,c),
(170,139,o),
(202,104,o),
(202,59,cs),
(202,36,o),
(195,17,o),
(186,0,c),
(346,0,l),
(353,15,o),
(362,40,o),
(362,69,cs),
(362,112,o),
(340,142,o),
(262,239,c),
(367,327,o),
(425,381,o),
(425,488,cs)
);
}
);
width = 475;
}
);
unicode = 2407;
},
{
color = 1;
glyphname = "two-deva";
lastChange = "2023-08-14 21:58:28 +0000";
layers = (
{
layerId = "282B1E26-206F-49B4-A55F-166754234F2D";
shapes = (
{
closed = 1;
nodes = (
(362,243,o),
(454,325,o),
(454,448,cs),
(454,574,o),
(362,658,o),
(224,658,cs),
(155,658,o),
(101,638,o),
(78,628,c),
(78,553,l),
(112,569,o),
(160,588,o),
(224,588,cs),
(314,588,o),
(374,532,o),
(374,448,cs),
(374,364,o),
(314,308,o),
(224,308,cs),
(166,308,o),
(131,319,o),
(76,350,c),
(40,308,l),
(130,195,o),
(290,1,o),
(330,-40,c),
(405,0,l),
(381,14,o),
(277,131,o),
(176,249,c),
(188,246,o),
(207,243,o),
(224,243,cs)
);
}
);
width = 514;
},
{
layerId = "083550D2-F2E8-44E3-BE3D-E8BDF41EDFC4";
shapes = (
{
closed = 1;
nodes = (
(379,238,o),
(470,318,o),
(470,438,cs),
(470,570,o),
(374,658,o),
(230,658,cs),
(159,658,o),
(105,637,o),
(80,624,c),
(80,491,l),
(112,509,o),
(153,528,o),
(210,528,cs),
(270,528,o),
(310,492,o),
(310,438,cs),
(310,384,o),
(270,348,o),
(210,348,cs),
(160,348,o),
(121,365,o),
(90,385,c),
(30,316,l),
(115,189,o),
(246,11,o),
(288,-40,c),
(443,10,l),
(408,28,o),
(308,143,o),
(224,242,c),
(232,240,o),
(244,238,o),
(258,238,cs)
);
}
);
width = 520;
}
);
unicode = 2408;
},
{
color = 1;
glyphname = "three-deva";
lastChange = "2023-08-14 21:52:51 +0000";
layers = (
{
layerId = "282B1E26-206F-49B4-A55F-166754234F2D";
shapes = (
{
closed = 1;
nodes = (
(355,120,o),
(427,180,o),
(427,268,cs),
(427,345,o),
(363,393,o),
(312,402,c),
(358,418,o),
(397,460,o),
(397,514,cs),
(397,600,o),
(329,658,o),
(227,658,cs),
(171,658,o),
(119,640,o),
(96,628,c),
(96,553,l),
(127,569,o),
(174,588,o),
(227,588,cs),
(281,588,o),
(317,556,o),
(317,509,cs),
(317,465,o),
(286,426,o),
(207,426,cs),
(145,426,l),
(145,356,l),
(207,356,ls),
(301,356,o),
(347,324,o),
(347,268,cs),
(347,216,o),
(310,185,o),
(247,185,cs),
(183,185,o),
(119,214,o),
(67,259,c),
(30,217,l),
(116,125,o),
(255,-15,o),
(286,-40,c),
(371,0,l),
(350,12,o),
(291,58,o),
(217,122,c),
(224,121,o),
(233,120,o),
(247,120,cs)
);
}
);
width = 487;
},
{
layerId = "083550D2-F2E8-44E3-BE3D-E8BDF41EDFC4";
shapes = (
{
closed = 1;
nodes = (
(398,121,o),
(463,184,o),
(463,270,cs),
(463,339,o),
(415,381,o),
(360,396,c),
(407,413,o),
(443,452,o),
(443,511,cs),
(443,599,o),
(364,658,o),
(246,658,cs),
(173,658,o),
(116,642,o),
(85,629,c),
(85,502,l),
(118,514,o),
(170,528,o),
(221,528,cs),
(260,528,o),
(283,513,o),
(283,486,cs),
(283,453,o),
(258,437,o),
(206,437,cs),
(136,437,l),
(136,327,l),
(206,327,ls),
(271,327,o),
(303,308,o),
(303,270,cs),
(303,232,o),
(276,210,o),
(229,210,cs),
(176,210,o),
(122,247,o),
(77,284,c),
(20,214,l),
(102,124,o),
(224,-14,o),
(259,-40,c),
(414,10,l),
(387,24,o),
(341,65,o),
(276,121,c),
(278,120,o),
(285,120,o),
(291,120,cs)
);
}
);
width = 513;
}
);
unicode = 2409;
},
{
color = 1;
glyphname = "four-deva";
lastChange = "2023-08-14 21:58:43 +0000";
layers = (
{
layerId = "282B1E26-206F-49B4-A55F-166754234F2D";
shapes = (
{
closed = 1;
nodes = (
(377,0,o),
(445,58,o),
(445,145,cs),
(445,205,o),
(408,265,o),
(335,313,c),
(432,373,o),
(490,433,o),
(490,533,cs),
(490,583,o),
(475,614,o),
(456,648,c),
(376,648,l),
(395,614,o),
(410,577,o),
(410,533,cs),
(410,462,o),
(363,410,o),
(275,355,c),
(187,410,o),
(140,462,o),
(140,533,cs),
(140,577,o),
(152,614,o),
(174,649,c),
(94,649,l),
(74,614,o),
(60,583,o),
(60,533,cs),
(60,433,o),
(118,373,o),
(215,313,c),
(149,269,o),
(105,205,o),
(105,145,cs),
(105,58,o),
(173,0,o),
(275,0,cs)
);
},
{
closed = 1;
nodes = (
(221,65,o),
(185,97,o),
(185,145,cs),
(185,186,o),
(220,236,o),
(275,271,c),
(329,238,o),
(365,187,o),
(365,145,cs),
(365,97,o),
(329,65,o),
(275,65,cs)
);
}
);
width = 550;
},
{
layerId = "083550D2-F2E8-44E3-BE3D-E8BDF41EDFC4";
shapes = (
{
closed = 1;
nodes = (
(404,0,o),
(480,66,o),
(480,165,cs),
(480,226,o),
(450,272,o),
(390,327,c),
(488,393,o),
(530,464,o),
(530,552,cs),
(530,591,o),
(519,618,o),
(501,648,c),
(341,648,l),
(359,618,o),
(370,591,o),
(370,552,cs),
(370,499,o),
(350,449,o),
(290,390,c),
(231,449,o),
(210,499,o),
(210,552,cs),
(210,591,o),
(222,618,o),
(241,648,c),
(81,648,l),
(62,618,o),
(50,591,o),
(50,552,cs),
(50,464,o),
(91,396,o),
(190,327,c),
(130,272,o),
(100,226,o),
(100,165,cs),
(100,66,o),
(176,0,o),
(290,0,cs)
);
},
{
closed = 1;
nodes = (
(260,130,o),
(240,148,o),
(240,175,cs),
(240,198,o),
(253,224,o),
(290,257,c),
(328,225,o),
(340,201,o),
(340,175,cs),
(340,148,o),
(320,130,o),
(290,130,cs)
);
}
);
width = 580;
}
);
unicode = 2410;
},
{
color = 1;
glyphname = "five-deva";
lastChange = "2023-08-14 21:50:09 +0000";
layers = (
{
layerId = "282B1E26-206F-49B4-A55F-166754234F2D";
shapes = (
{
closed = 1;
nodes = (
(361,210,o),
(460,310,o),
(460,405,cs),
(460,455,o),
(437,489,o),
(377,489,cs),
(327,489,o),
(314,444,o),
(366,339,c),
(341,305,o),
(303,280,o),
(250,280,cs),
(184,280,o),
(140,326,o),
(140,396,cs),
(140,479,o),
(175,548,o),
(245,648,c),
(155,648,l),
(105,576,o),
(60,491,o),
(60,396,cs),
(60,284,o),
(136,210,o),
(250,210,cs)
);
},
{
closed = 1;
nodes = (
(410,248,o),
(428,194,o),
(428,128,cs),
(428,83,o),
(420,43,o),
(400,0,c),
(480,0,l),
(499,40,o),
(508,83,o),
(508,128,cs),
(508,194,o),
(482,262,o),
(436,345,c),
(375,320,l)
);
}
);
width = 549;
},
{
layerId = "083550D2-F2E8-44E3-BE3D-E8BDF41EDFC4";
shapes = (
{
closed = 1;
nodes = (
(411,175,o),
(526,308,o),
(526,418,cs),
(526,488,o),
(470,518,o),
(400,518,cs),
(340,518,o),
(311,465,o),
(372,340,c),
(356,320,o),
(330,305,o),
(290,305,cs),
(242,305,o),
(210,341,o),
(210,396,cs),
(210,461,o),
(237,546,o),
(298,648,c),
(138,648,l),
(89,569,o),
(50,488,o),
(50,396,cs),
(50,260,o),
(142,175,o),
(279,175,cs)
);
},
{
closed = 1;
nodes = (
(417,243,o),
(432,186,o),
(433,134,cs),
(434,85,o),
(424,47,o),
(396,0,c),
(556,0,l),
(574,41,o),
(583,83,o),
(583,134,cs),
(583,204,o),
(553,274,o),
(484,370,c),
(390,310,l)
);
}
);
width = 613;
}
);
unicode = 2411;
},
{
color = 1;
glyphname = "six-deva";
lastChange = "2023-06-11 19:34:34 +0000";
layers = (
{
layerId = "282B1E26-206F-49B4-A55F-166754234F2D";
shapes = (
{
closed = 1;
nodes = (
(366,130,o),
(460,205,o),
(460,265,cs),
(460,305,o),
(423,338,o),
(393,339,cs),
(363,340,o),
(337,304,o),
(337,225,c),
(323,213,o),
(293,200,o),
(250,200,cs),
(181,200,o),
(140,232,o),
(140,286,cs),
(140,341,o),
(188,377,o),
(260,377,cs),
(350,377,l),
(350,447,l),
(260,447,ls),
(197,447,o),
(160,473,o),
(160,516,cs),
(160,559,o),
(196,588,o),
(250,588,cs),
(302,588,o),
(354,570,o),
(382,555,c),
(382,625,l),
(352,643,o),
(306,658,o),
(250,658,cs),
(148,658,o),
(80,601,o),
(80,516,cs),
(80,466,o),
(110,431,o),
(155,412,c),
(108,396,o),
(60,352,o),
(60,286,cs),
(60,192,o),
(136,130,o),
(250,130,cs)
);
},
{
closed = 1;
nodes = (
(361,92,o),
(388,3,o),
(408,-30,c),
(488,0,l),
(466,25,o),
(429,111,o),
(405,205,c),
(345,180,l)
);
}
);
width = 528;
},
{
layerId = "083550D2-F2E8-44E3-BE3D-E8BDF41EDFC4";
shapes = (
{
closed = 1;
nodes = (
(381,70,o),
(506,138,o),
(506,218,cs),
(506,268,o),
(462,305,o),
(412,305,cs),
(372,305,o),
(351,267,o),
(351,211,c),
(343,207,o),
(319,200,o),
(290,200,cs),
(240,200,o),
(210,223,o),
(210,261,cs),
(210,314,o),
(254,331,o),
(328,331,cs),
(390,331,l),
(390,441,l),
(328,441,ls),
(262,441,o),
(230,444,o),
(230,481,cs),
(230,509,o),
(254,528,o),
(290,528,cs),
(325,528,o),
(362,521,o),
(420,499,c),
(420,626,l),
(372,646,o),
(324,658,o),
(260,658,cs),
(146,658,o),
(70,594,o),
(70,498,cs),
(70,445,o),
(99,400,o),
(147,376,c),
(86,346,o),
(50,308,o),
(50,241,cs),
(50,138,o),
(134,70,o),
(260,70,cs)
);
},
{
closed = 1;
nodes = (
(357,94,o),
(371,-1,o),
(388,-30,c),
(548,0,l),
(527,25,o),
(487,98,o),
(454,190,c),
(356,150,l)
);
}
);
width = 568;
}
);
unicode = 2412;
},
{
color = 1;
glyphname = "seven-deva";
lastChange = "2023-08-14 22:01:45 +0000";
layers = (
{
layerId = "282B1E26-206F-49B4-A55F-166754234F2D";
shapes = (
{
closed = 1;
nodes = (
(140,505,o),
(170,598,o),
(190,648,c),
(110,648,l),
(90,598,o),
(60,515,o),
(60,388,cs),
(60,179,o),
(177,40,o),
(353,40,cs),
(505,40,o),
(607,150,o),
(607,316,cs),
(607,434,o),
(537,512,o),
(431,512,cs),
(346,512,o),
(290,458,o),
(290,378,cs),
(290,303,o),
(351,251,o),
(406,251,c),
(446,311,l),
(400,311,o),
(369,338,o),
(369,378,cs),
(369,416,o),
(394,442,o),
(431,442,cs),
(489,442,o),
(527,392,o),
(527,316,cs),
(527,192,o),
(457,110,o),
(353,110,cs),
(225,110,o),
(140,221,o),
(140,388,cs)
);
}
);
width = 667;
},
{
layerId = "083550D2-F2E8-44E3-BE3D-E8BDF41EDFC4";
shapes = (
{
closed = 1;
nodes = (
(210,506,o),
(230,584,o),
(255,648,c),
(95,648,l),
(75,592,o),
(50,520,o),
(50,418,cs),
(50,191,o),
(186,40,o),
(391,40,cs),
(559,40,o),
(671,161,o),
(671,342,cs),
(671,468,o),
(591,552,o),
(472,552,cs),
(365,552,o),
(293,486,o),
(293,387,cs),
(293,307,o),
(349,250,o),
(433,245,c),
(483,345,l),
(453,345,o),
(433,361,o),
(433,384,cs),
(433,407,o),
(449,422,o),
(472,422,cs),
(507,422,o),
(531,390,o),
(531,342,cs),
(531,245,o),
(475,180,o),
(391,180,cs),
(282,180,o),
(210,275,o),
(210,418,cs)
);
}
);
width = 721;
}
);
unicode = 2413;
},
{
color = 1;
glyphname = "eight-deva";
lastChange = "2023-06-11 19:31:50 +0000";
layers = (
{
layerId = "282B1E26-206F-49B4-A55F-166754234F2D";
shapes = (
{
closed = 1;
nodes = (
(345,40,o),
(420,85,o),
(474,153,c),
(418,202,l),
(375,150,o),
(322,110,o),
(255,110,cs),
(186,110,o),
(140,152,o),
(140,216,cs),
(140,256,o),
(155,301,o),
(196,375,cs),
(337,628,l),
(267,668,l),
(126,413,ls),
(77,325,o),
(60,270,o),
(60,216,cs),
(60,110,o),
(138,40,o),
(255,40,cs)
);
}
);
width = 514;
},
{
layerId = "083550D2-F2E8-44E3-BE3D-E8BDF41EDFC4";
shapes = (
{
closed = 1;
nodes = (
(371,40,o),
(449,92,o),
(516,151,c),
(446,271,l),
(388,215,o),
(330,180,o),
(278,180,cs),
(237,180,o),
(210,206,o),
(210,246,cs),
(210,273,o),
(219,305,o),
(247,360,cs),
(382,620,l),
(240,678,l),
(107,423,ls),
(65,343,o),
(50,288,o),
(50,226,cs),
(50,114,o),
(134,40,o),
(260,40,cs)
);
}
);
width = 546;
}
);
unicode = 2414;
},
{
color = 1;
glyphname = "nine-deva";
lastChange = "2023-08-14 22:11:34 +0000";
layers = (
{
layerId = "282B1E26-206F-49B4-A55F-166754234F2D";
shapes = (
{
closed = 1;
nodes = (
(60,410,o),
(125,340,o),
(200,249,cs),
(249,190,o),
(260,155,o),
(260,117,cs),
(260,78,o),
(245,40,o),
(228,0,c),
(313,0,l),
(326,33,o),
(340,66,o),
(340,117,cs),
(340,177,o),
(315,227,o),
(263,289,cs),
(184,383,o),
(140,442,o),
(140,506,cs),
(140,555,o),
(169,588,o),
(212,588,cs),
(253,588,o),
(280,563,o),
(280,525,cs),
(280,489,o),
(259,465,o),
(218,451,c),
(263,401,l),
(318,416,o),
(360,462,o),
(360,525,cs),
(360,605,o),
(301,658,o),
(212,658,cs),
(121,658,o),
(60,597,o),
(60,506,cs)
);
}
);
width = 420;
},
{
layerId = "083550D2-F2E8-44E3-BE3D-E8BDF41EDFC4";
shapes = (
{
closed = 1;
nodes = (
(50,383,o),
(86,315,o),
(180,230,cs),
(243,173,o),
(268,136,o),
(268,98,cs),
(268,60,o),
(257,28,o),
(245,0,c),
(405,0,l),
(416,21,o),
(428,56,o),
(428,98,cs),
(428,178,o),
(386,222,o),
(281,320,cs),
(221,376,o),
(190,412,o),
(190,460,cs),
(190,501,o),
(216,528,o),
(254,528,cs),
(290,528,o),
(314,505,o),
(314,470,cs),
(314,440,o),
(300,415,o),
(283,399,c),
(387,341,l),
(426,370,o),
(454,422,o),
(454,483,cs),
(454,588,o),
(374,658,o),
(254,658,cs),
(132,658,o),
(50,579,o),
(50,460,cs)
);
}
);
width = 504;
}
);
unicode = 2415;
},
{
color = 3;
glyphname = zero.osf;
kernLeft = zero.osf;
kernRight = zero.osf;
lastChange = "2023-06-24 11:45:45 +0000";
layers = (
{
layerId = "282B1E26-206F-49B4-A55F-166754234F2D";
shapes = (
{
closed = 1;
nodes = (
(399,60,o),
(458,126,o),
(458,238,cs),
(458,347,o),
(399,412,o),
(299,412,cs),
(199,412,o),
(140,347,o),
(140,238,cs),
(140,126,o),
(199,60,o),
(299,60,cs)
);
},
{
closed = 1;
nodes = (
(442,482,o),
(538,384,o),
(538,238,cs),
(538,89,o),
(442,-10,o),
(299,-10,cs),
(156,-10,o),
(60,89,o),
(60,238,cs),
(60,384,o),
(156,482,o),
(299,482,cs)
);
}
);
width = 598;
},
{
layerId = "083550D2-F2E8-44E3-BE3D-E8BDF41EDFC4";
shapes = (
{
closed = 1;
nodes = (
(377,130,o),
(418,170,o),
(418,238,cs),
(418,303,o),
(377,342,o),
(308,342,cs),
(240,342,o),
(200,303,o),
(200,238,cs),
(200,170,o),
(240,130,o),
(308,130,cs)
);
},
{
closed = 1;
nodes = (
(470,482,o),
(578,384,o),
(578,238,cs),
(578,89,o),
(470,-10,o),
(308,-10,cs),
(147,-10,o),
(40,89,o),
(40,238,cs),
(40,384,o),
(147,482,o),
(308,482,cs)
);
}
);
width = 618;
}
);
metricLeft = zero;
metricRight = zero;
},
{
color = 3;
glyphname = one.osf;
kernLeft = one.osf;
kernRight = one.osf;
lastChange = "2023-06-24 11:45:45 +0000";
layers = (
{
layerId = "282B1E26-206F-49B4-A55F-166754234F2D";
shapes = (
{
closed = 1;
nodes = (
(40,332,l),
(220,394,l),
(220,0,l),
(300,0,l),
(300,492,l),
(40,402,l)
);
}
);
width = 400;
},
{
layerId = "083550D2-F2E8-44E3-BE3D-E8BDF41EDFC4";
shapes = (
{
closed = 1;
nodes = (
(40,272,l),
(180,317,l),
(180,0,l),
(340,0,l),
(340,492,l),
(40,402,l)
);
}
);
width = 420;
}
);
metricLeft = one;
metricRight = one;
},
{
color = 3;
glyphname = two.osf;
kernLeft = two.osf;
kernRight = two.osf;
lastChange = "2023-06-24 11:45:45 +0000";
layers = (
{
layerId = "282B1E26-206F-49B4-A55F-166754234F2D";
shapes = (
{
closed = 1;
nodes = (
(271,114,ls),
(389,197,o),
(432,254,o),
(432,334,c),
(432,426,o),
(348,482,o),
(247,482,c),
(165,482,o),
(101,450,o),
(60,422,c),
(60,342,l),
(115,380,o),
(179,412,o),
(247,412,c),
(308,412,o),
(352,378,o),
(352,324,c),
(352,267,o),
(313,223,o),
(215,152,cs),
(60,40,l),
(60,0,l),
(470,0,l),
(470,70,l),
(208,70,l)
);
}
);
width = 530;
},
{
layerId = "083550D2-F2E8-44E3-BE3D-E8BDF41EDFC4";
shapes = (
{
closed = 1;
nodes = (
(345,169,ls),
(398,208,o),
(452,259,o),
(452,334,c),
(452,421,o),
(378,482,o),
(242,482,c),
(174,482,o),
(96,462,o),
(40,422,c),
(40,272,l),
(102,320,o),
(167,342,o),
(222,342,c),
(270,342,o),
(292,327,o),
(292,296,c),
(292,264,o),
(261,229,o),
(193,177,cs),
(40,60,l),
(40,0,l),
(490,0,l),
(490,140,l),
(306,140,l)
);
}
);
width = 530;
}
);
metricLeft = two;
metricRight = two;
},
{
color = 3;
glyphname = three.osf;
kernLeft = three.osf;
kernRight = three.osf;
lastChange = "2023-07-30 18:49:23 +0000";
layers = (
{
layerId = "282B1E26-206F-49B4-A55F-166754234F2D";
shapes = (
{
closed = 1;
nodes = (
(347,-164,o),
(432,-57,o),
(432,62,c),
(432,162,o),
(362,227,o),
(260,235,c),
(422,442,l),
(422,482,l),
(60,482,l),
(60,412,l),
(316,412,l),
(145,190,l),
(145,170,l),
(221,170,l),
(305,170,o),
(352,131,o),
(352,62,c),
(352,-34,o),
(285,-128,o),
(119,-224,c),
(189,-264,l)
);
}
);
width = 492;
},
{
layerId = "083550D2-F2E8-44E3-BE3D-E8BDF41EDFC4";
shapes = (
{
closed = 1;
nodes = (
(394,-157,o),
(452,-65,o),
(452,54,cs),
(452,157,o),
(391,222,o),
(287,236,c),
(421,402,l),
(421,482,l),
(40,482,l),
(40,342,l),
(214,342,l),
(76,164,l),
(76,134,l),
(151,134,ls),
(235,134,o),
(292,107,o),
(292,34,cs),
(292,-52,o),
(228,-135,o),
(103,-234,c),
(295,-254,l)
);
}
);
width = 492;
}
);
metricLeft = three;
metricRight = three;
},
{
color = 3;
glyphname = four.osf;
kernLeft = four.osf;
kernRight = four.osf;
lastChange = "2023-06-24 11:45:45 +0000";
layers = (
{
layerId = "282B1E26-206F-49B4-A55F-166754234F2D";
shapes = (
{
closed = 1;
nodes = (
(410,70,l),
(410,478,l),
(370,478,l),
(20,40,l),
(20,0,l),
(330,0,l),
(330,-190,l),
(410,-190,l),
(410,0,l),
(510,0,l),
(510,70,l)
);
},
{
closed = 1;
nodes = (
(330,323,l),
(330,70,l),
(129,70,l)
);
}
);
width = 550;
},
{
layerId = "083550D2-F2E8-44E3-BE3D-E8BDF41EDFC4";
shapes = (
{
closed = 1;
nodes = (
(480,140,l),
(480,488,l),
(360,488,l),
(10,80,l),
(10,0,l),
(320,0,l),
(320,-190,l),
(480,-190,l),
(480,0,l),
(580,0,l),
(580,140,l)
);
},
{
closed = 1;
nodes = (
(320,308,l),
(320,140,l),
(174,140,l)
);
}
);
width = 600;
}
);
metricLeft = four;
metricRight = four;
},
{
color = 3;
glyphname = five.osf;
kernLeft = five.osf;
kernRight = five.osf;
lastChange = "2023-08-16 17:43:00 +0000";
layers = (
{
layerId = "282B1E26-206F-49B4-A55F-166754234F2D";
shapes = (
{
closed = 1;
nodes = (
(186,-264,l),
(310,-191,o),
(411,-91,o),
(411,37,cs),
(411,150,o),
(322,230,o),
(189,230,cs),
(169,230,o),
(157,229,o),
(140,227,c),
(164,402,l),
(379,402,l),
(379,472,l),
(100,472,l),
(60,152,l),
(92,156,o),
(129,160,o),
(179,160,cs),
(273,160,o),
(331,116,o),
(331,37,cs),
(331,-76,o),
(241,-154,o),
(110,-224,c)
);
}
);
width = 471;
},
{
layerId = "083550D2-F2E8-44E3-BE3D-E8BDF41EDFC4";
shapes = (
{
closed = 1;
nodes = (
(296,-254,l),
(376,-186,o),
(452,-83,o),
(452,32,cs),
(452,154,o),
(372,228,o),
(250,228,cs),
(231,228,o),
(220,227,o),
(208,226,c),
(220,332,l),
(410,332,l),
(410,472,l),
(90,472,l),
(50,86,l),
(95,93,o),
(140,98,o),
(189,98,cs),
(255,98,o),
(292,67,o),
(292,12,cs),
(292,-62,o),
(230,-137,o),
(114,-234,c)
);
}
);
width = 502;
}
);
metricLeft = five;
metricRight = five;
},
{
color = 10;
glyphname = one.tf;
lastChange = "2023-07-29 21:50:32 +0000";
layers = (
{
anchors = (
{
name = _center;
pos = (297.4,29);
}
);
layerId = "282B1E26-206F-49B4-A55F-166754234F2D";
shapes = (
{
pos = (66,0);
ref = one;
},
{
closed = 1;
nodes = (
(505,-1,l),
(505,69,l),
(95,69,l),
(95,-1,l)
);
}
);
width = 600;
},
{
anchors = (
{
name = _center;
pos = (297.4,60);
}
);
layerId = "083550D2-F2E8-44E3-BE3D-E8BDF41EDFC4";
shapes = (
{
pos = (55,0);
ref = one;
},
{
closed = 1;
nodes = (
(505,0,l),
(505,130,l),
(95,130,l),
(95,0,l)
);
}
);
width = 600;
}
);
},
{
color = 1;
glyphname = AE;
kernLeft = A;
kernRight = E;
lastChange = "2022-03-22 12:24:23 +0000";
layers = (
{
anchors = (
{
name = bottom;
pos = (1718,0);
},
{
name = top;
pos = (540,668);
}
);
layerId = "083550D2-F2E8-44E3-BE3D-E8BDF41EDFC4";
shapes = (
{
closed = 1;
nodes = (
(220,134,l),
(540,134,l),
(540,264,l),
(220,264,l)
);
},
{
closed = 1;
nodes = (
(540,668,l),
(300,668,l),
(10,0,l),
(190,0,l),
(417,555,l),
(345,530,l),
(540,530,l)
);
},
{
pos = (370,0);
ref = E;
}
);
width = 952;
},
{
associatedMasterId = "083550D2-F2E8-44E3-BE3D-E8BDF41EDFC4";
layerId = "0AAF2CB4-2EBD-42C4-BAB4-4CEC92C737FB";
width = 600;
},
{
anchors = (
{
name = bottom;
pos = (1708,0);
},
{
name = top;
pos = (460,668);
}
);
layerId = "282B1E26-206F-49B4-A55F-166754234F2D";
shapes = (
{
closed = 1;
nodes = (
(190,204,l),
(500,204,l),
(500,274,l),
(190,274,l)
);
},
{
closed = 1;
nodes = (
(540,668,l),
(340,668,l),
(20,0,l),
(110,0,l),
(399,611,l),
(375,600,l),
(540,600,l)
);
},
{
pos = (360,0);
ref = E;
}
);
width = 940;
},
{
associatedMasterId = "282B1E26-206F-49B4-A55F-166754234F2D";
layerId = "970ED173-FBA5-4B66-BEF2-2B81F90CA0D3";
width = 600;
}
);
metricLeft = A;
metricRight = E;
unicode = 198;
},
{
color = 1;
glyphname = Schwa;
kernLeft = O;
kernRight = O;
lastChange = "2023-05-29 17:14:54 +0000";
layers = (
{
layerId = "083550D2-F2E8-44E3-BE3D-E8BDF41EDFC4";
shapes = (
{
closed = 1;
nodes = (
(253,679,o),
(153,652,o),
(89,602,c),
(89,452,l),
(138,498,o),
(227,539,o),
(338,539,c),
(447,539,o),
(519,469,o),
(519,368,c),
(40,368,l),
(40,284,l),
(40,99,o),
(159,-10,o),
(361,-10,c),
(552,-10,o),
(679,129,o),
(679,337,c),
(679,542,o),
(543,679,o),
(338,679,c)
);
},
{
closed = 1;
nodes = (
(260,130,o),
(200,181,o),
(200,268,c),
(519,268,l),
(519,187,o),
(456,130,o),
(361,130,c)
);
}
);
width = 689;
},
{
layerId = "282B1E26-206F-49B4-A55F-166754234F2D";
shapes = (
{
closed = 1;
nodes = (
(239,679,o),
(163,652,o),
(99,612,c),
(99,532,l),
(162,578,o),
(258,609,o),
(338,609,cs),
(477,609,o),
(569,521,o),
(569,368,c),
(50,368,l),
(50,314,ls),
(50,110,o),
(162,-10,o),
(351,-10,cs),
(530,-10,o),
(649,118,o),
(649,337,cs),
(649,542,o),
(525,679,o),
(338,679,cs)
);
},
{
closed = 1;
nodes = (
(212,60,o),
(130,148,o),
(130,298,c),
(569,298,l),
(569,155,o),
(482,60,o),
(351,60,cs)
);
}
);
width = 669;
}
);
metricLeft = a;
metricRight = a;
unicode = 399;
},
{
color = 1;
glyphname = Nhookleft;
kernLeft = Nhookleft;
kernRight = Nhookleft;
lastChange = "2022-03-15 10:18:32 +0000";
layers = (
{
layerId = "083550D2-F2E8-44E3-BE3D-E8BDF41EDFC4";
shapes = (
{
closed = 1;
nodes = (
(584,277,l),
(204,668,l),
(104,668,l),
(104,0,l),
(264,0,l),
(264,391,l),
(644,0,l),
(744,0,l),
(744,668,l),
(584,668,l)
);
},
{
closed = 1;
nodes = (
(104,10,ls),
(104,-72,o),
(75,-110,o),
(2,-124,c),
(44,-244,l),
(194,-230,o),
(264,-157,o),
(264,10,cs),
(264,472,l),
(104,472,l)
);
}
);
width = 824;
},
{
layerId = "282B1E26-206F-49B4-A55F-166754234F2D";
shapes = (
{
closed = 1;
nodes = (
(623,127,l),
(173,668,l),
(103,668,l),
(103,0,l),
(183,0,l),
(183,541,l),
(633,0,l),
(703,0,l),
(703,668,l),
(623,668,l)
);
},
{
closed = 1;
nodes = (
(103,-20,ls),
(103,-114,o),
(76,-163,o),
(10,-191,c),
(33,-244,l),
(133,-213,o),
(183,-149,o),
(183,-20,cs),
(183,472,l),
(103,472,l)
);
}
);
width = 803;
}
);
metricLeft = j;
metricRight = N;
unicode = 413;
},
{
color = 1;
glyphname = Eng;
kernLeft = Eng;
kernRight = Eng;
lastChange = "2020-12-19 05:18:15 +0000";
layers = (
{
layerId = "083550D2-F2E8-44E3-BE3D-E8BDF41EDFC4";
shapes = (
{
closed = 1;
nodes = (
(560,277,l),
(180,668,l),
(80,668,l),
(80,0,l),
(240,0,l),
(240,391,l),
(620,0,l),
(720,0,l),
(720,668,l),
(560,668,l)
);
},
{
closed = 1;
nodes = (
(570,10,ls),
(570,-72,o),
(541,-110,o),
(468,-124,c),
(510,-244,l),
(660,-230,o),
(720,-157,o),
(720,10,cs),
(720,472,l),
(570,472,l)
);
}
);
width = 800;
},
{
layerId = "282B1E26-206F-49B4-A55F-166754234F2D";
shapes = (
{
closed = 1;
nodes = (
(620,127,l),
(170,668,l),
(100,668,l),
(100,0,l),
(180,0,l),
(180,541,l),
(630,0,l),
(700,0,l),
(700,668,l),
(620,668,l)
);
},
{
closed = 1;
nodes = (
(630,-20,ls),
(630,-114,o),
(603,-163,o),
(537,-191,c),
(560,-244,l),
(660,-213,o),
(700,-149,o),
(700,-20,cs),
(700,472,l),
(630,472,l)
);
}
);
width = 800;
}
);
metricLeft = N;
metricRight = N;
unicode = 330;
},
{
color = 1;
glyphname = OE;
kernLeft = O;
kernRight = E;
lastChange = "2023-05-29 17:14:16 +0000";
layers = (
{
layerId = "083550D2-F2E8-44E3-BE3D-E8BDF41EDFC4";
shapes = (
{
closed = 1;
nodes = (
(163,678,o),
(40,545,o),
(40,334,cs),
(40,123,o),
(163,-10,o),
(360,-10,cs),
(544,-10,o),
(660,123,o),
(660,334,cs),
(660,545,o),
(544,678,o),
(360,678,cs)
);
},
{
closed = 1;
nodes = (
(269,130,o),
(200,209,o),
(200,334,cs),
(200,459,o),
(269,538,o),
(380,538,cs),
(491,538,o),
(560,459,o),
(560,334,cs),
(560,209,o),
(491,130,o),
(380,130,cs)
);
},
{
pos = (480,0);
ref = E;
}
);
width = 1062;
},
{
associatedMasterId = "083550D2-F2E8-44E3-BE3D-E8BDF41EDFC4";
layerId = "0AAF2CB4-2EBD-42C4-BAB4-4CEC92C737FB";
width = 600;
},
{
layerId = "282B1E26-206F-49B4-A55F-166754234F2D";
shapes = (
{
closed = 1;
nodes = (
(181,678,o),
(50,545,o),
(50,334,cs),
(50,123,o),
(181,-10,o),
(390,-10,cs),
(580,-10,o),
(700,123,o),
(700,334,cs),
(700,545,o),
(580,678,o),
(390,678,cs)
);
},
{
closed = 1;
nodes = (
(230,60,o),
(130,166,o),
(130,334,cs),
(130,502,o),
(230,608,o),
(390,608,cs),
(550,608,o),
(650,502,o),
(650,334,cs),
(650,166,o),
(550,60,o),
(390,60,cs)
);
},
{
pos = (550,0);
ref = E;
}
);
width = 1130;
},
{
associatedMasterId = "282B1E26-206F-49B4-A55F-166754234F2D";
layerId = "CB02EDDF-D385-4475-A12C-334FDEFFB35D";
width = 600;
}
);
metricLeft = O;
metricRight = E;
unicode = 338;
},
{
color = 1;
glyphname = Thorn;
kernLeft = H;
kernRight = Thorn;
lastChange = "2023-07-30 19:08:09 +0000";
layers = (
{
layerId = "083550D2-F2E8-44E3-BE3D-E8BDF41EDFC4";
shapes = (
{
closed = 1;
nodes = (
(80,0,l),
(240,0,l),
(240,668,l),
(80,668,l)
);
},
{
closed = 1;
nodes = (
(201,568,l),
(201,428,l),
(290,428,ls),
(353,428,o),
(390,399,o),
(390,349,cs),
(390,300,o),
(353,271,o),
(290,271,cs),
(201,271,l),
(201,131,l),
(290,131,ls),
(453,131,o),
(550,212,o),
(550,349,cs),
(550,487,o),
(453,568,o),
(290,568,cs)
);
}
);
width = 590;
},
{
associatedMasterId = "083550D2-F2E8-44E3-BE3D-E8BDF41EDFC4";
layerId = "0AAF2CB4-2EBD-42C4-BAB4-4CEC92C737FB";
width = 600;
},
{
layerId = "282B1E26-206F-49B4-A55F-166754234F2D";
shapes = (
{
closed = 1;
nodes = (
(100,0,l),
(180,0,l),
(180,668,l),
(100,668,l)
);
},
{
closed = 1;
nodes = (
(161,568,l),
(161,498,l),
(270,498,ls),
(383,498,o),
(450,443,o),
(450,349,cs),
(450,256,o),
(383,201,o),
(270,201,cs),
(161,201,l),
(161,131,l),
(270,131,ls),
(433,131,o),
(530,212,o),
(530,349,cs),
(530,487,o),
(433,568,o),
(270,568,cs)
);
}
);
width = 580;
},
{
associatedMasterId = "282B1E26-206F-49B4-A55F-166754234F2D";
layerId = "B2126D08-4129-4BFC-9056-4A54FA21FC2A";
width = 600;
}
);
metricLeft = H;
metricRight = P;
unicode = 222;
},
{
color = 1;
glyphname = Germandbls;
kernLeft = Germandbls;
kernRight = Germandbls;
lastChange = "2022-03-16 10:36:23 +0000";
layers = (
{
layerId = "083550D2-F2E8-44E3-BE3D-E8BDF41EDFC4";
shapes = (
{
closed = 1;
nodes = (
(586,631,l),
(538,654,o),
(440,679,o),
(339,679,c),
(184,679,o),
(80,581,o),
(80,434,c),
(80,0,l),
(240,0,l),
(240,437,l),
(240,498,o),
(280,539,o),
(339,539,c),
(386,539,o),
(409,535,o),
(426,529,c),
(426,527,l),
(396,506,o),
(374,469,o),
(374,431,cs),
(374,389,o),
(399,347,o),
(441,308,cs),
(486,266,o),
(514,233,o),
(514,196,cs),
(514,162,o),
(486,130,o),
(443,130,cs),
(394,130,o),
(344,162,o),
(318,211,c),
(318,41,l),
(345,16,o),
(411,-10,o),
(484,-10,c),
(598,-10,o),
(674,64,o),
(674,174,cs),
(674,249,o),
(647,304,o),
(599,351,cs),
(549,399,o),
(528,432,o),
(528,466,cs),
(528,498,o),
(555,513,o),
(586,519,c)
);
}
);
width = 714;
},
{
layerId = "282B1E26-206F-49B4-A55F-166754234F2D";
shapes = (
{
closed = 1;
nodes = (
(566,631,l),
(524,658,o),
(461,679,o),
(359,679,c),
(204,679,o),
(100,581,o),
(100,434,c),
(100,0,l),
(180,0,l),
(180,437,l),
(180,540,o),
(252,609,o),
(359,609,c),
(432,609,o),
(481,596,o),
(496,590,c),
(496,588,l),
(461,566,o),
(438,529,o),
(438,484,cs),
(438,431,o),
(466,380,o),
(510,338,cs),
(557,293,o),
(584,238,o),
(584,186,cs),
(584,110,o),
(536,60,o),
(463,60,cs),
(411,60,o),
(361,88,o),
(318,141,c),
(318,41,l),
(365,6,o),
(415,-10,o),
(464,-10,c),
(578,-10,o),
(654,74,o),
(654,184,cs),
(654,257,o),
(630,304,o),
(576,363,cs),
(536,407,o),
(508,445,o),
(508,486,cs),
(508,532,o),
(531,563,o),
(566,569,c)
);
}
);
width = 704;
}
);
metricLeft = H;
metricRight = O;
unicode = 7838;
},
{
color = 1;
glyphname = ae;
kernLeft = a;
kernRight = e;
lastChange = "2023-05-29 17:12:40 +0000";
layers = (
{
anchors = (
{
name = bottom;
pos = (727,0);
},
{
name = top;
pos = (430,468);
}
);
layerId = "083550D2-F2E8-44E3-BE3D-E8BDF41EDFC4";
shapes = (
{
closed = 1;
nodes = (
(420,212,l),
(420,273,ls),
(420,404,o),
(353,482,o),
(240,482,cs),
(160,482,o),
(87,448,o),
(60,432,c),
(60,302,l),
(101,325,o),
(174,352,o),
(240,352,cs),
(287,352,o),
(310,330,o),
(310,284,cs),
(310,212,l)
);
},
{
closed = 1;
nodes = (
(300,-10,o),
(372,72,o),
(370,165,c),
(310,212,l),
(310,146,o),
(278,110,o),
(235,110,cs),
(206,110,o),
(190,123,o),
(190,146,cs),
(190,174,o),
(210,192,o),
(251,203,cs),
(282,211,o),
(343,212,o),
(370,212,c),
(370,272,l),
(333,274,o),
(274,278,o),
(220,272,cs),
(107,259,o),
(40,201,o),
(40,116,cs),
(40,40,o),
(100,-10,o),
(190,-10,cs)
);
},
{
pos = (280,0);
ref = e;
}
);
width = 831;
},
{
associatedMasterId = "083550D2-F2E8-44E3-BE3D-E8BDF41EDFC4";
layerId = "0AAF2CB4-2EBD-42C4-BAB4-4CEC92C737FB";
width = 600;
},
{
anchors = (
{
name = bottom;
pos = (772,0);
},
{
name = top;
pos = (452,472);
}
);
layerId = "282B1E26-206F-49B4-A55F-166754234F2D";
shapes = (
{
closed = 1;
nodes = (
(420,222,l),
(420,273,ls),
(420,413,o),
(364,482,o),
(250,482,cs),
(160,482,o),
(95,449,o),
(70,432,c),
(70,357,l),
(116,390,o),
(183,417,o),
(250,417,cs),
(327,417,o),
(360,379,o),
(360,289,cs),
(360,222,l)
);
},
{
closed = 1;
nodes = (
(302,-10,o),
(391,76,o),
(390,195,c),
(360,222,l),
(364,116,o),
(288,55,o),
(205,55,cs),
(155,55,o),
(125,78,o),
(125,116,cs),
(125,161,o),
(163,195,o),
(227,207,cs),
(298,221,o),
(378,222,o),
(410,222,c),
(410,272,l),
(380,272,o),
(298,281,o),
(220,268,cs),
(111,251,o),
(50,197,o),
(50,116,cs),
(50,40,o),
(110,-10,o),
(200,-10,cs)
);
},
{
pos = (310,0);
ref = e;
}
);
width = 868;
},
{
associatedMasterId = "282B1E26-206F-49B4-A55F-166754234F2D";
layerId = "1537EE69-0D79-4120-B023-A1180CF0E15A";
width = 600;
}
);
metricLeft = a;
metricRight = e;
unicode = 230;
},
{
color = 1;
glyphname = eth;
kernLeft = eth;
kernRight = eth;
lastChange = "2022-03-18 09:00:19 +0000";
layers = (
{
layerId = "083550D2-F2E8-44E3-BE3D-E8BDF41EDFC4";
shapes = (
{
closed = 1;
nodes = (
(144,756,o),
(89,739,o),
(50,717,c),
(50,596,l),
(96,629,o),
(145,646,o),
(207,646,c),
(305,646,o),
(401,568,o),
(401,356,c),
(393,409,o),
(336,474,o),
(242,474,c),
(133,474,o),
(30,377,o),
(30,231,c),
(30,86,o),
(123,-10,o),
(263,-10,c),
(424,-10,o),
(531,144,o),
(531,374,c),
(531,603,o),
(405,756,o),
(217,756,c)
);
},
{
closed = 1;
nodes = (
(219,120,o),
(179,164,o),
(179,231,c),
(179,299,o),
(219,345,o),
(280,345,c),
(336,345,o),
(374,299,o),
(374,231,c),
(374,164,o),
(336,120,o),
(280,120,c)
);
},
{
closed = 1;
nodes = (
(230,554,l),
(258,523,l),
(483,725,l),
(455,756,l)
);
}
);
width = 591;
},
{
associatedMasterId = "083550D2-F2E8-44E3-BE3D-E8BDF41EDFC4";
layerId = "0AAF2CB4-2EBD-42C4-BAB4-4CEC92C737FB";
width = 600;
},
{
layerId = "282B1E26-206F-49B4-A55F-166754234F2D";
shapes = (
{
closed = 1;
nodes = (
(165,756,o),
(109,734,o),
(70,707,c),
(70,636,l),
(119,667,o),
(177,686,o),
(247,686,c),
(377,686,o),
(471,570,o),
(471,346,c),
(456,401,o),
(388,474,o),
(282,474,c),
(153,474,o),
(50,377,o),
(50,231,c),
(50,86,o),
(143,-10,o),
(283,-10,c),
(444,-10,o),
(551,144,o),
(551,374,c),
(551,623,o),
(415,756,o),
(247,756,c)
);
},
{
closed = 1;
nodes = (
(196,60,o),
(130,128,o),
(130,230,c),
(130,335,o),
(196,405,o),
(295,405,c),
(388,405,o),
(450,335,o),
(450,230,c),
(450,128,o),
(388,60,o),
(295,60,c)
);
},
{
closed = 1;
nodes = (
(250,554,l),
(278,523,l),
(503,725,l),
(475,756,l)
);
}
);
width = 631;
},
{
associatedMasterId = "282B1E26-206F-49B4-A55F-166754234F2D";
layerId = "26B741B6-B7D5-40AA-96D5-1B82BDD9D14A";
width = 600;
}
);
metricLeft = d;
metricRight = d;
unicode = 240;
},
{
color = 1;
glyphname = schwa;
kernLeft = schwa;
kernRight = schwa;
lastChange = "2022-03-15 10:18:32 +0000";
layers = (
{
layerId = "083550D2-F2E8-44E3-BE3D-E8BDF41EDFC4";
shapes = (
{
closed = 1;
nodes = (
(414,256,l),
(30,256,l),
(30,196,o),
(47,130,o),
(72,91,cs),
(111,30,o),
(190,-10,o),
(270,-10,cs),
(420,-10,o),
(520,88,o),
(520,236,cs),
(520,384,o),
(412,482,o),
(250,482,cs),
(176,482,o),
(131,455,o),
(90,432,c),
(90,302,l),
(134,333,o),
(176,352,o),
(240,352,cs),
(317,352,o),
(369,306,o),
(370,237,c),
(369,216,l),
(363,158,o),
(323,120,o),
(270,120,cs),
(207,120,o),
(172,164,o),
(182,231,c),
(135,196,l),
(414,196,l)
);
}
);
width = 550;
},
{
layerId = "282B1E26-206F-49B4-A55F-166754234F2D";
shapes = (
{
closed = 1;
nodes = (
(494,256,l),
(50,256,l),
(50,204,o),
(59,152,o),
(82,109,cs),
(106,64,o),
(174,-10,o),
(290,-10,cs),
(440,-10,o),
(540,88,o),
(540,236,cs),
(540,384,o),
(436,482,o),
(290,482,cs),
(215,482,o),
(149,454,o),
(110,422,c),
(110,347,l),
(156,388,o),
(218,417,o),
(280,417,cs),
(389,417,o),
(464,348,o),
(465,237,c),
(464,216,l),
(457,116,o),
(391,55,o),
(290,55,cs),
(187,55,o),
(125,135,o),
(125,256,c),
(75,191,l),
(494,191,l)
);
}
);
width = 590;
}
);
metricLeft = o;
metricRight = o;
unicode = 601;
},
{
color = 1;
glyphname = idotless;
kernLeft = idotless;
kernRight = idotless;
lastChange = "2022-03-15 10:18:32 +0000";
layers = (
{
anchors = (
{
name = bottom;
pos = (128,0);
},
{
name = ogonek;
pos = (196,0);
},
{
name = top;
pos = (132,478);
}
);
layerId = "083550D2-F2E8-44E3-BE3D-E8BDF41EDFC4";
shapes = (
{
closed = 1;
nodes = (
(54,0,l),
(204,0,l),
(204,472,l),
(54,472,l)
);
}
);
width = 258;
},
{
associatedMasterId = "083550D2-F2E8-44E3-BE3D-E8BDF41EDFC4";
layerId = "0AAF2CB4-2EBD-42C4-BAB4-4CEC92C737FB";
width = 600;
},
{
anchors = (
{
name = bottom;
pos = (111,0);
},
{
name = ogonek;
pos = (126,0);
},
{
name = top;
pos = (110,472);
}
);
layerId = "282B1E26-206F-49B4-A55F-166754234F2D";
shapes = (
{
closed = 1;
nodes = (
(72,0,l),
(147,0,l),
(147,472,l),
(72,472,l)
);
}
);
width = 219;
},
{
associatedMasterId = "282B1E26-206F-49B4-A55F-166754234F2D";
layerId = "413867B3-FEE5-45B4-B3D1-A7BCC07412CB";
width = 600;
}
);
metricLeft = i;
metricRight = i;
unicode = 305;
},
{
color = 1;
glyphname = jdotless;
kernLeft = jdotless;
kernRight = jdotless;
lastChange = "2022-03-16 19:24:52 +0000";
layers = (
{
anchors = (
{
name = bottom;
pos = (-62,0);
},
{
name = top;
pos = (109,468);
}
);
layerId = "083550D2-F2E8-44E3-BE3D-E8BDF41EDFC4";
shapes = (
{
closed = 1;
nodes = (
(157,-212,o),
(224,-146,o),
(224,10,cs),
(224,472,l),
(74,472,l),
(74,10,ls),
(74,-75,o),
(49,-108,o),
(2,-134,c),
(84,-244,l)
);
},
{
closed = 1;
nodes = (
(144,352,l),
(144,472,l),
(14,472,l),
(14,352,l)
);
}
);
width = 278;
},
{
anchors = (
{
name = bottom;
pos = (-22,0);
},
{
name = top;
pos = (119,472);
}
);
layerId = "282B1E26-206F-49B4-A55F-166754234F2D";
shapes = (
{
closed = 1;
nodes = (
(135,-212,o),
(175,-149,o),
(175,-20,cs),
(175,472,l),
(100,472,l),
(100,-20,ls),
(100,-114,o),
(74,-156,o),
(10,-186,c),
(35,-244,l)
);
},
{
closed = 1;
nodes = (
(125,407,l),
(125,472,l),
(55,472,l),
(55,407,l)
);
}
);
width = 247;
}
);
metricLeft = j;
metricRight = j;
unicode = 567;
},
{
color = 1;
glyphname = kgreenlandic;
kernLeft = h;
kernRight = k;
lastChange = "2022-03-21 05:47:12 +0000";
layers = (
{
layerId = "083550D2-F2E8-44E3-BE3D-E8BDF41EDFC4";
shapes = (
{
closed = 1;
nodes = (
(570,0,l),
(360,256,l),
(550,472,l),
(370,472,l),
(200,257,l),
(380,0,l)
);
},
{
closed = 1;
nodes = (
(210,0,l),
(210,472,l),
(60,472,l),
(60,0,l)
);
}
);
width = 570;
},
{
layerId = "282B1E26-206F-49B4-A55F-166754234F2D";
shapes = (
{
closed = 1;
nodes = (
(485,0,l),
(235,256,l),
(445,472,l),
(340,472,l),
(150,257,l),
(380,0,l)
);
},
{
closed = 1;
nodes = (
(155,0,l),
(155,472,l),
(80,472,l),
(80,0,l)
);
}
);
width = 485;
}
);
metricLeft = k;
metricRight = k;
unicode = 312;
},
{
color = 1;
glyphname = nhookleft;
kernLeft = nhookleft;
kernRight = nhookleft;
lastChange = "2022-03-22 12:43:57 +0000";
layers = (
{
layerId = "083550D2-F2E8-44E3-BE3D-E8BDF41EDFC4";
shapes = (
{
closed = 1;
nodes = (
(104,10,ls),
(104,-62,o),
(71,-110,o),
(2,-124,c),
(74,-244,l),
(181,-216,o),
(254,-129,o),
(254,10,cs),
(254,122,l),
(104,122,l)
);
},
{
pos = (44,0);
ref = n;
}
);
width = 634;
},
{
layerId = "282B1E26-206F-49B4-A55F-166754234F2D";
shapes = (
{
closed = 1;
nodes = (
(100,-20,ls),
(100,-109,o),
(72,-154,o),
(10,-186,c),
(45,-244,l),
(128,-208,o),
(175,-139,o),
(175,-20,cs),
(175,122,l),
(100,122,l)
);
},
{
pos = (20,0);
ref = n;
}
);
width = 580;
}
);
metricLeft = j;
metricRight = n;
unicode = 626;
},
{
color = 1;
glyphname = eng;
kernLeft = n;
kernRight = j;
lastChange = "2022-03-16 10:33:31 +0000";
layers = (
{
layerId = "083550D2-F2E8-44E3-BE3D-E8BDF41EDFC4";
shapes = (
{
closed = 1;
nodes = (
(390,10,ls),
(390,-62,o),
(354,-102,o),
(288,-124,c),
(360,-244,l),
(467,-218,o),
(540,-137,o),
(540,10,cs),
(540,122,l),
(390,122,l)
);
},
{
ref = n;
}
);
width = 590;
},
{
layerId = "282B1E26-206F-49B4-A55F-166754234F2D";
shapes = (
{
closed = 1;
nodes = (
(415,-10,ls),
(415,-94,o),
(396,-146,o),
(325,-186,c),
(359,-244,l),
(445,-202,o),
(490,-132,o),
(490,-10,cs),
(490,122,l),
(415,122,l)
);
},
{
ref = n;
}
);
width = 560;
}
);
metricLeft = n;
metricRight = n;
unicode = 331;
},
{
color = 1;
glyphname = oe;
kernLeft = o;
kernRight = e;
lastChange = "2023-05-29 17:03:26 +0000";
layers = (
{
layerId = "083550D2-F2E8-44E3-BE3D-E8BDF41EDFC4";
shapes = (
{
closed = 1;
nodes = (
(130,482,o),
(30,384,o),
(30,236,cs),
(30,88,o),
(130,-10,o),
(280,-10,cs),
(424,-10,o),
(520,88,o),
(520,236,cs),
(520,384,o),
(424,482,o),
(280,482,cs)
);
},
{
closed = 1;
nodes = (
(228,120,o),
(180,166,o),
(180,236,cs),
(180,306,o),
(228,352,o),
(300,352,cs),
(372,352,o),
(420,306,o),
(420,236,cs),
(420,166,o),
(372,120,o),
(300,120,cs)
);
},
{
pos = (391,0);
ref = e;
}
);
width = 942;
},
{
associatedMasterId = "083550D2-F2E8-44E3-BE3D-E8BDF41EDFC4";
layerId = "0AAF2CB4-2EBD-42C4-BAB4-4CEC92C737FB";
width = 600;
},
{
layerId = "282B1E26-206F-49B4-A55F-166754234F2D";
shapes = (
{
closed = 1;
nodes = (
(154,482,o),
(50,384,o),
(50,236,cs),
(50,88,o),
(154,-10,o),
(310,-10,cs),
(454,-10,o),
(550,88,o),
(550,236,cs),
(550,384,o),
(454,482,o),
(310,482,cs)
);
},
{
closed = 1;
nodes = (
(199,55,o),
(125,127,o),
(125,236,cs),
(125,345,o),
(199,417,o),
(310,417,cs),
(421,417,o),
(495,345,o),
(495,236,cs),
(495,127,o),
(421,55,o),
(310,55,cs)
);
},
{
pos = (445,0);
ref = e;
}
);
width = 1003;
},
{
associatedMasterId = "282B1E26-206F-49B4-A55F-166754234F2D";
layerId = "D6C1E210-F533-4F05-BFD4-FF2E9F515825";
width = 600;
}
);
metricLeft = o;
metricRight = e;
unicode = 339;
},
{
color = 1;
glyphname = thorn;
kernLeft = h;
kernRight = o;
lastChange = "2023-06-16 11:02:37 +0000";
layers = (
{
layerId = "083550D2-F2E8-44E3-BE3D-E8BDF41EDFC4";
shapes = (
{
closed = 1;
nodes = (
(476,-10,o),
(580,88,o),
(580,236,c),
(580,384,o),
(484,482,o),
(340,482,c),
(255,482,o),
(201,442,o),
(170,412,c),
(170,302,l),
(198,328,o),
(246,352,o),
(310,352,c),
(382,352,o),
(430,306,o),
(430,236,c),
(430,166,o),
(378,120,o),
(300,120,c),
(230,120,o),
(194,152,o),
(150,180,c),
(150,50,l),
(178,31,o),
(224,-10,o),
(320,-10,c)
);
},
{
closed = 1;
nodes = (
(210,-244,l),
(210,472,l),
(60,472,l),
(60,-244,l)
);
},
{
closed = 1;
nodes = (
(210,0,l),
(210,716,l),
(60,716,l),
(60,0,l)
);
}
);
width = 610;
},
{
associatedMasterId = "083550D2-F2E8-44E3-BE3D-E8BDF41EDFC4";
layerId = "0AAF2CB4-2EBD-42C4-BAB4-4CEC92C737FB";
width = 600;
},
{
layerId = "282B1E26-206F-49B4-A55F-166754234F2D";
shapes = (
{
closed = 1;
nodes = (
(456,-10,o),
(560,88,o),
(560,236,c),
(560,384,o),
(456,482,o),
(300,482,c),
(217,482,o),
(157,450,o),
(130,428,c),
(130,357,l),
(174,393,o),
(230,417,o),
(300,417,c),
(411,417,o),
(485,345,o),
(485,236,c),
(485,127,o),
(411,55,o),
(300,55,c),
(231,55,o),
(167,79,o),
(130,105,c),
(130,40,l),
(165,14,o),
(229,-10,o),
(300,-10,c)
);
},
{
closed = 1;
nodes = (
(155,-244,l),
(155,472,l),
(80,472,l),
(80,-244,l)
);
},
{
closed = 1;
nodes = (
(155,0,l),
(155,716,l),
(80,716,l),
(80,0,l)
);
}
);
width = 610;
},
{
associatedMasterId = "282B1E26-206F-49B4-A55F-166754234F2D";
layerId = "274E647E-8B16-47D5-9690-53E6F00388D0";
width = 600;
}
);
metricLeft = n;
metricRight = o;
unicode = 254;
},
{
color = 1;
glyphname = germandbls;
kernLeft = h;
kernRight = germandbls;
lastChange = "2023-06-24 14:02:18 +0000";
layers = (
{
layerId = "083550D2-F2E8-44E3-BE3D-E8BDF41EDFC4";
shapes = (
{
closed = 1;
nodes = (
(10,342,l),
(150,342,l),
(150,472,l),
(10,472,l)
);
},
{
closed = 1;
nodes = (
(526,366,o),
(497,391,o),
(497,423,c),
(497,464,o),
(541,492,o),
(541,558,c),
(541,645,o),
(473,718,o),
(340,718,c),
(199,718,o),
(97,605,o),
(97,472,c),
(97,0,l),
(247,0,l),
(247,431,l),
(247,543,o),
(290,588,o),
(340,588,c),
(384,588,o),
(398,561,o),
(398,529,c),
(398,486,o),
(355,459,o),
(355,396,c),
(355,346,o),
(382,311,o),
(430,278,cs),
(496,233,o),
(528,200,o),
(528,167,c),
(528,138,o),
(502,117,o),
(468,117,c),
(416,117,o),
(366,137,o),
(322,165,c),
(322,30,l),
(346,12,o),
(402,-10,o),
(473,-10,c),
(608,-10,o),
(682,63,o),
(682,167,c),
(682,234,o),
(648,285,o),
(582,329,cs)
);
}
);
width = 712;
},
{
associatedMasterId = "083550D2-F2E8-44E3-BE3D-E8BDF41EDFC4";
layerId = "0AAF2CB4-2EBD-42C4-BAB4-4CEC92C737FB";
width = 600;
},
{
layerId = "282B1E26-206F-49B4-A55F-166754234F2D";
shapes = (
{
closed = 1;
nodes = (
(20,407,l),
(160,407,l),
(160,472,l),
(20,472,l)
);
},
{
closed = 1;
nodes = (
(468,362,o),
(437,382,o),
(437,423,cs),
(437,469,o),
(481,496,o),
(481,558,cs),
(481,638,o),
(417,718,o),
(310,718,c),
(199,718,o),
(107,625,o),
(107,472,c),
(107,0,l),
(182,0,l),
(182,471,l),
(182,597,o),
(246,653,o),
(310,653,c),
(372,653,o),
(403,607,o),
(403,558,cs),
(403,500,o),
(362,469,o),
(362,423,cs),
(362,373,o),
(388,337,o),
(447,299,cs),
(511,258,o),
(547,219,o),
(547,157,cs),
(547,89,o),
(501,55,o),
(433,55,c),
(379,55,o),
(309,92,o),
(272,143,c),
(272,60,l),
(299,28,o),
(365,-10,o),
(433,-10,c),
(548,-10,o),
(622,51,o),
(622,157,cs),
(622,219,o),
(585,290,o),
(522,329,cs)
);
}
);
width = 672;
},
{
associatedMasterId = "282B1E26-206F-49B4-A55F-166754234F2D";
layerId = "D38B1960-EBBD-4C7B-AF1E-9BA2E262474E";
width = 600;
}
);
metricLeft = t;
metricRight = b;
unicode = 223;
},
{
color = 1;
glyphname = f_joint;
kernLeft = f;
kernRight = f_joint;
lastChange = "2023-06-24 12:05:38 +0000";
layers = (
{
layerId = "083550D2-F2E8-44E3-BE3D-E8BDF41EDFC4";
shapes = (
{
closed = 1;
nodes = (
(100,0,l),
(250,0,l),
(250,522,ls),
(250,590,o),
(284,626,o),
(350,626,cs),
(445,626,o),
(484,556,o),
(570,556,c),
(570,676,l),
(514,676,o),
(457,756,o),
(330,756,cs),
(179,756,o),
(100,672,o),
(100,512,cs)
);
},
{
closed = 1;
nodes = (
(234,342,l),
(410,342,l),
(410,472,l),
(234,472,l)
);
},
{
closed = 1;
nodes = (
(116,472,l),
(20,472,l),
(20,342,l),
(116,342,l)
);
}
);
width = 330;
},
{
layerId = "282B1E26-206F-49B4-A55F-166754234F2D";
shapes = (
{
closed = 1;
nodes = (
(110,0,l),
(185,0,l),
(185,562,ls),
(185,650,o),
(225,691,o),
(310,691,cs),
(385,691,o),
(426,641,o),
(480,641,c),
(480,696,l),
(443,696,o),
(407,756,o),
(300,756,cs),
(175,756,o),
(110,686,o),
(110,552,cs)
);
},
{
closed = 1;
nodes = (
(165,407,l),
(380,407,l),
(380,472,l),
(165,472,l)
);
},
{
closed = 1;
nodes = (
(125,472,l),
(30,472,l),
(30,407,l),
(125,407,l)
);
}
);
width = 300;
}
);
metricLeft = f;
},
{
color = 1;
glyphname = fi;
kernLeft = f;
kernRight = i;
lastChange = "2023-06-16 14:38:20 +0000";
layers = (
{
layerId = "083550D2-F2E8-44E3-BE3D-E8BDF41EDFC4";
shapes = (
{
closed = 1;
nodes = (
(250,0,l),
(250,522,ls),
(250,595,o),
(289,636,o),
(360,636,cs),
(420,636,o),
(468,605,o),
(476,586,c),
(580,616,l),
(580,694,o),
(490,756,o),
(350,756,cs),
(199,756,o),
(100,672,o),
(100,512,cs),
(100,0,l)
);
},
{
closed = 1;
nodes = (
(116,342,l),
(116,472,l),
(20,472,l),
(20,342,l)
);
},
{
closed = 1;
nodes = (
(410,342,l),
(410,472,l),
(234,472,l),
(234,342,l)
);
},
{
closed = 1;
nodes = (
(542,531,o),
(580,569,o),
(580,616,cs),
(580,663,o),
(542,701,o),
(495,701,cs),
(448,701,o),
(410,663,o),
(410,616,cs),
(410,569,o),
(448,531,o),
(495,531,cs)
);
},
{
closed = 1;
nodes = (
(370,472,l),
(370,342,l),
(430,342,l),
(430,0,l),
(580,0,l),
(580,472,l)
);
}
);
width = 634;
},
{
layerId = "282B1E26-206F-49B4-A55F-166754234F2D";
shapes = (
{
closed = 1;
nodes = (
(185,0,l),
(185,552,ls),
(185,645,o),
(229,691,o),
(320,691,cs),
(405,691,o),
(432,661,o),
(440,646,c),
(510,646,l),
(510,700,o),
(437,756,o),
(320,756,cs),
(182,756,o),
(110,686,o),
(110,552,cs),
(110,0,l)
);
},
{
closed = 1;
nodes = (
(125,407,l),
(125,472,l),
(30,472,l),
(30,407,l)
);
},
{
closed = 1;
nodes = (
(380,407,l),
(380,472,l),
(165,472,l),
(165,407,l)
);
},
{
closed = 1;
nodes = (
(486,591,o),
(510,615,o),
(510,646,cs),
(510,677,o),
(486,701,o),
(455,701,cs),
(424,701,o),
(400,677,o),
(400,646,cs),
(400,615,o),
(424,591,o),
(455,591,cs)
);
},
{
closed = 1;
nodes = (
(380,472,l),
(380,407,l),
(425,407,l),
(425,0,l),
(500,0,l),
(500,472,l)
);
}
);
width = 582;
}
);
metricLeft = f;
metricRight = i;
unicode = 64257;
},
{
color = 1;
glyphname = fl;
kernLeft = f;
kernRight = l;
lastChange = "2023-06-16 14:37:36 +0000";
layers = (
{
layerId = "083550D2-F2E8-44E3-BE3D-E8BDF41EDFC4";
shapes = (
{
closed = 1;
nodes = (
(100,0,l),
(250,0,l),
(250,522,ls),
(250,592,o),
(283,626,o),
(350,626,cs),
(425,626,o),
(493,607,o),
(540,596,c),
(620,716,l),
(553,716,o),
(457,756,o),
(330,756,cs),
(179,756,o),
(100,672,o),
(100,512,cs)
);
},
{
closed = 1;
nodes = (
(234,342,l),
(380,342,l),
(380,472,l),
(234,472,l)
);
},
{
closed = 1;
nodes = (
(116,472,l),
(20,472,l),
(20,342,l),
(116,342,l)
);
},
{
closed = 1;
nodes = (
(470,0,l),
(620,0,l),
(620,716,l),
(470,716,l)
);
}
);
width = 684;
},
{
layerId = "282B1E26-206F-49B4-A55F-166754234F2D";
shapes = (
{
closed = 1;
nodes = (
(110,0,l),
(185,0,l),
(185,552,ls),
(185,645,o),
(223,691,o),
(300,691,cs),
(375,691,o),
(438,671,o),
(470,661,c),
(510,716,l),
(482,716,o),
(397,756,o),
(300,756,cs),
(175,756,o),
(110,686,o),
(110,552,cs)
);
},
{
closed = 1;
nodes = (
(165,407,l),
(340,407,l),
(340,472,l),
(165,472,l)
);
},
{
closed = 1;
nodes = (
(125,472,l),
(30,472,l),
(30,407,l),
(125,407,l)
);
},
{
closed = 1;
nodes = (
(435,0,l),
(510,0,l),
(510,716,l),
(435,716,l)
);
}
);
width = 595;
}
);
metricLeft = f;
metricRight = l;
unicode = 64258;
},
{
color = 1;
glyphname = Delta;
kernLeft = A;
kernRight = A;
lastChange = "2022-03-22 12:24:23 +0000";
layers = (
{
layerId = "083550D2-F2E8-44E3-BE3D-E8BDF41EDFC4";
shapes = (
{
closed = 1;
nodes = (
(430,755,l),
(370,755,l),
(10,0,l),
(790,0,l)
);
},
{
closed = 1;
nodes = (
(400,479,l),
(550,140,l),
(250,140,l)
);
}
);
width = 800;
},
{
layerId = "282B1E26-206F-49B4-A55F-166754234F2D";
shapes = (
{
closed = 1;
nodes = (
(400,755,l),
(360,755,l),
(20,0,l),
(740,0,l)
);
},
{
closed = 1;
nodes = (
(380,619,l),
(620,70,l),
(140,70,l)
);
}
);
width = 760;
}
);
metricLeft = A;
metricRight = A;
unicode = 916;
},
{
color = 1;
glyphname = Omega;
kernLeft = Omega;
kernRight = Omega;
lastChange = "2022-03-18 12:10:52 +0000";
layers = (
{
layerId = "083550D2-F2E8-44E3-BE3D-E8BDF41EDFC4";
shapes = (
{
closed = 1;
nodes = (
(709,140,l),
(762,182,o),
(829,257,o),
(829,382,c),
(829,537,o),
(692,678,o),
(481,678,c),
(269,678,o),
(130,541,o),
(130,382,c),
(130,257,o),
(196,172,o),
(251,140,c),
(80,140,l),
(80,0,l),
(420,0,l),
(420,125,l),
(342,188,o),
(291,263,o),
(291,362,c),
(291,459,o),
(365,538,o),
(481,538,c),
(592,538,o),
(669,462,o),
(669,362,c),
(669,263,o),
(619,190,o),
(542,125,c),
(542,0,l),
(879,0,l),
(879,140,l)
);
}
);
width = 959;
},
{
layerId = "282B1E26-206F-49B4-A55F-166754234F2D";
shapes = (
{
closed = 1;
nodes = (
(649,70,l),
(735,143,o),
(819,248,o),
(819,382,c),
(819,568,o),
(684,678,o),
(481,678,c),
(276,678,o),
(140,568,o),
(140,382,c),
(140,245,o),
(224,140,o),
(311,70,c),
(80,70,l),
(80,0,l),
(420,0,l),
(420,55,l),
(301,141,o),
(220,260,o),
(220,382,c),
(220,526,o),
(325,608,o),
(481,608,c),
(636,608,o),
(739,526,o),
(739,382,c),
(739,263,o),
(660,144,o),
(542,55,c),
(542,0,l),
(879,0,l),
(879,70,l)
);
}
);
width = 959;
}
);
unicode = 937;
},
{
color = 1;
glyphname = mu;
kernLeft = p;
kernRight = u;
lastChange = "2022-03-18 06:56:20 +0000";
layers = (
{
layerId = "083550D2-F2E8-44E3-BE3D-E8BDF41EDFC4";
shapes = (
{
closed = 1;
nodes = (
(50,-220,o),
(173,-220,o),
(164,-140,cs),
(119,243,l),
(50,243,l),
(50,-140,ls)
);
},
{
ref = u;
}
);
width = 590;
},
{
layerId = "282B1E26-206F-49B4-A55F-166754234F2D";
shapes = (
{
closed = 1;
nodes = (
(70,-203,o),
(141,-203,o),
(138,-150,cs),
(119,233,l),
(70,233,l),
(70,-150,ls)
);
},
{
ref = u;
}
);
width = 570;
}
);
metricLeft = u;
metricRight = u;
unicode = 956;
},
{
color = 1;
glyphname = pi;
kernLeft = pi;
kernRight = pi;
lastChange = "2022-03-18 08:55:10 +0000";
layers = (
{
layerId = "083550D2-F2E8-44E3-BE3D-E8BDF41EDFC4";
shapes = (
{
closed = 1;
nodes = (
(673,130,o),
(654,119,o),
(629,119,cs),
(599,119,o),
(579,143,o),
(579,180,cs),
(579,332,l),
(639,332,l),
(639,472,l),
(80,472,l),
(80,333,l),
(140,333,l),
(140,-1,l),
(300,-1,l),
(300,333,l),
(422,333,l),
(422,150,ls),
(422,41,o),
(482,-10,o),
(573,-10,cs),
(642,-10,o),
(701,29,o),
(729,70,c),
(684,142,l)
);
}
);
width = 809;
},
{
layerId = "282B1E26-206F-49B4-A55F-166754234F2D";
shapes = (
{
closed = 1;
nodes = (
(639,89,o),
(604,59,o),
(569,59,cs),
(534,59,o),
(509,83,o),
(509,130,cs),
(509,402,l),
(609,402,l),
(609,472,l),
(80,472,l),
(80,403,l),
(180,403,l),
(180,-1,l),
(260,-1,l),
(260,403,l),
(432,403,l),
(432,130,ls),
(432,31,o),
(492,-10,o),
(563,-10,cs),
(629,-10,o),
(668,26,o),
(699,70,c),
(653,112,l)
);
}
);
width = 779;
}
);
unicode = 960;
},
{
color = 1;
glyphname = "a-deva";
lastChange = "2023-08-17 19:39:35 +0000";
layers = (
{
anchors = (
{
name = bottom;
pos = (610,10);
},
{
name = candra;
pos = (570,648);
},
{
name = nukta;
pos = (452,0);
},
{
name = top;
pos = (610,648);
}
);
layerId = "282B1E26-206F-49B4-A55F-166754234F2D";
shapes = (
{
closed = 1;
nodes = (
(345,50,o),
(427,119,o),
(427,213,cs),
(427,285,o),
(377,339,o),
(287,366,c),
(359,379,o),
(407,435,o),
(407,506,cs),
(407,597,o),
(337,658,o),
(232,658,cs),
(183,658,o),
(130,644,o),
(90,619,c),
(90,543,l),
(135,575,o),
(185,593,o),
(232,593,cs),
(292,593,o),
(332,558,o),
(332,506,cs),
(332,442,o),
(282,407,o),
(192,407,cs),
(141,407,l),
(141,342,l),
(192,342,ls),
(295,342,o),
(352,300,o),
(352,223,cs),
(352,158,o),
(300,115,o),
(222,115,cs),
(155,115,o),
(90,143,o),
(40,194,c),
(40,109,l),
(83,74,o),
(156,50,o),
(222,50,cs)
);
},
{
closed = 1;
nodes = (
(596,382,l),
(487,360,o),
(377,360,o),
(278,383,c),
(298,339,l),
(407,303,o),
(449,288,o),
(596,312,c)
);
},
{
closed = 1;
nodes = (
(645,0,l),
(645,598,l),
(570,598,l),
(570,0,l)
);
},
{
closed = 1;
nodes = (
(755,583,l),
(755,648,l),
(480,648,l),
(480,583,l)
);
}
);
width = 745;
},
{
anchors = (
{
name = bottom;
pos = (630,0);
},
{
name = candra;
pos = (560,648);
},
{
name = nukta;
pos = (434,-40);
},
{
name = top;
pos = (630,648);
}
);
layerId = "083550D2-F2E8-44E3-BE3D-E8BDF41EDFC4";
shapes = (
{
closed = 1;
nodes = (
(357,20,o),
(442,92,o),
(442,200,cs),
(442,272,o),
(379,323,o),
(315,352,c),
(376,377,o),
(412,431,o),
(412,496,cs),
(412,593,o),
(339,658,o),
(230,658,cs),
(165,658,o),
(107,638,o),
(80,623,c),
(80,493,l),
(108,510,o),
(156,528,o),
(195,528,cs),
(238,528,o),
(262,510,o),
(262,477,cs),
(262,438,o),
(233,417,o),
(180,417,cs),
(131,417,l),
(131,297,l),
(200,297,ls),
(259,297,o),
(292,273,o),
(292,230,cs),
(292,180,o),
(258,150,o),
(200,150,cs),
(134,150,o),
(66,190,o),
(30,220,c),
(30,80,l),
(72,48,o),
(139,20,o),
(230,20,cs)
);
},
{
closed = 1;
nodes = (
(576,390,l),
(493,369,o),
(389,368,o),
(285,392,c),
(305,292,l),
(416,247,o),
(472,243,o),
(576,255,c)
);
},
{
closed = 1;
nodes = (
(700,0,l),
(700,548,l),
(550,548,l),
(550,0,l)
);
},
{
closed = 1;
nodes = (
(790,518,l),
(790,648,l),
(480,648,l),
(480,518,l)
);
}
);
width = 780;
}
);
unicode = 2309;
},
{
color = 1;
glyphname = "i-deva";
lastChange = "2023-08-21 21:13:51 +0000";
layers = (
{
anchors = (
{
name = bottom;
pos = (362,-70);
},
{
name = candra;
pos = (320,648);
},
{
name = top;
pos = (352,648);
}
);
layerId = "282B1E26-206F-49B4-A55F-166754234F2D";
shapes = (
{
closed = 1;
nodes = (
(515,583,l),
(515,648,l),
(-10,648,l),
(-10,583,l)
);
},
{
closed = 1;
nodes = (
(125,102,o),
(219,65,o),
(302,65,cs),
(400,65,o),
(465,120,o),
(465,203,cs),
(465,301,o),
(395,353,o),
(290,334,cs),
(263,329,ls),
(200,317,o),
(162,335,o),
(162,379,cs),
(162,413,o),
(190,435,o),
(233,435,cs),
(415,435,l),
(372,500,l),
(233,500,ls),
(145,500,o),
(87,452,o),
(87,379,cs),
(87,288,o),
(157,239,o),
(263,259,cs),
(290,264,ls),
(353,276,o),
(390,253,o),
(390,203,cs),
(390,154,o),
(350,125,o),
(282,125,cs),
(216,125,o),
(151,154,o),
(86,218,c),
(40,170,l)
);
},
{
closed = 1;
nodes = (
(122,88,o),
(270,-45,o),
(328,-95,c),
(403,-55,l),
(372,-37,o),
(231,77,o),
(137,139,c),
(40,170,l)
);
},
{
closed = 1;
nodes = (
(415,435,l),
(405,603,l),
(330,603,l),
(340,466,l)
);
}
);
width = 505;
},
{
anchors = (
{
name = bottom;
pos = (342,-100);
},
{
name = candra;
pos = (300,648);
},
{
name = top;
pos = (332,648);
}
);
layerId = "083550D2-F2E8-44E3-BE3D-E8BDF41EDFC4";
shapes = (
{
closed = 1;
nodes = (
(530,518,l),
(530,648,l),
(-10,648,l),
(-10,518,l)
);
},
{
closed = 1;
nodes = (
(100,49,o),
(199,10,o),
(290,10,cs),
(417,10,o),
(490,76,o),
(490,175,cs),
(490,266,o),
(423,311,o),
(303,303,cs),
(273,301,ls),
(245,299,o),
(230,308,o),
(230,327,cs),
(230,348,o),
(246,360,o),
(276,360,cs),
(432,360,l),
(352,470,l),
(241,470,ls),
(144,470,o),
(80,411,o),
(80,319,cs),
(80,237,o),
(143,185,o),
(238,191,cs),
(270,193,ls),
(318,196,o),
(340,184,o),
(340,155,cs),
(340,126,o),
(315,110,o),
(270,110,cs),
(212,110,o),
(139,137,o),
(70,181,c),
(20,89,l)
);
},
{
closed = 1;
nodes = (
(106,15,o),
(254,-126,o),
(298,-160,c),
(433,-90,l),
(385,-65,o),
(226,46,o),
(134,100,c),
(20,89,l)
);
},
{
closed = 1;
nodes = (
(432,360,l),
(422,548,l),
(272,548,l),
(282,409,l)
);
}
);
width = 520;
}
);
unicode = 2311;
},
{
color = 1;
glyphname = "u-deva";
lastChange = "2023-08-17 19:48:29 +0000";
layers = (
{
anchors = (
{
name = bottom;
pos = (292,0);
},
{
name = candra;
pos = (300,648);
},
{
name = top;
pos = (332,648);
}
);
layerId = "282B1E26-206F-49B4-A55F-166754234F2D";
shapes = (
{
closed = 1;
nodes = (
(368,50,o),
(447,117,o),
(447,224,cs),
(447,298,o),
(399,354,o),
(321,380,c),
(373,401,o),
(407,451,o),
(407,506,cs),
(407,552,o),
(392,583,o),
(378,604,c),
(319,583,l),
(326,567,o),
(332,544,o),
(332,506,cs),
(332,441,o),
(287,407,o),
(202,407,cs),
(142,407,l),
(142,342,l),
(202,342,ls),
(309,342,o),
(372,298,o),
(372,224,cs),
(372,155,o),
(324,115,o),
(242,115,cs),
(166,115,o),
(96,142,o),
(40,194,c),
(40,109,l),
(87,76,o),
(157,50,o),
(242,50,cs)
);
},
{
closed = 1;
nodes = (
(497,583,l),
(497,648,l),
(-10,648,l),
(-10,583,l)
);
}
);
width = 487;
},
{
anchors = (
{
name = bottom;
pos = (292,0);
},
{
name = candra;
pos = (260,648);
},
{
name = top;
pos = (292,648);
}
);
layerId = "083550D2-F2E8-44E3-BE3D-E8BDF41EDFC4";
shapes = (
{
closed = 1;
nodes = (
(359,20,o),
(452,100,o),
(452,225,cs),
(452,285,o),
(411,346,o),
(349,372,c),
(388,393,o),
(412,428,o),
(412,471,cs),
(412,510,o),
(397,536,o),
(378,558,c),
(254,518,l),
(258,507,o),
(262,491,o),
(262,471,cs),
(262,437,o),
(232,417,o),
(180,417,cs),
(131,417,l),
(131,297,l),
(200,297,ls),
(264,297,o),
(302,277,o),
(302,225,cs),
(302,178,o),
(264,150,o),
(200,150,cs),
(139,150,o),
(76,182,o),
(30,221,c),
(30,81,l),
(76,49,o),
(139,20,o),
(220,20,cs)
);
},
{
closed = 1;
nodes = (
(492,518,l),
(492,648,l),
(-10,648,l),
(-10,518,l)
);
}
);
width = 482;
}
);
unicode = 2313;
},
{
color = 2;
glyphname = "uu-deva";
lastChange = "2023-08-19 18:31:19 +0000";
layers = (
{
anchors = (
{
name = bottom;
pos = (254,30);
},
{
name = candra;
pos = (285,648);
},
{
name = top;
pos = (328,648);
}
);
layerId = "282B1E26-206F-49B4-A55F-166754234F2D";
shapes = (
{
ref = "u-deva";
},
{
closed = 1;
nodes = (
(752,583,l),
(752,648,l),
(470,648,l),
(470,583,l)
);
},
{
closed = 1;
nodes = (
(646,83,l),
(679,126,o),
(702,191,o),
(702,244,cs),
(702,332,o),
(644,390,o),
(557,390,cs),
(473,390,o),
(409,330,o),
(397,241,c),
(445,196,l),
(450,221,o),
(454,242,o),
(463,265,cs),
(475,295,o),
(502,324,o),
(547,324,cs),
(595,324,o),
(627,292,o),
(627,244,cs),
(627,194,o),
(602,134,o),
(566,83,c)
);
}
);
width = 742;
},
{
anchors = (
{
name = bottom;
pos = (284,0);
},
{
name = candra;
pos = (250,648);
},
{
name = top;
pos = (290,648);
}
);
layerId = "083550D2-F2E8-44E3-BE3D-E8BDF41EDFC4";
shapes = (
{
ref = "u-deva";
},
{
closed = 1;
nodes = (
(782,518,l),
(782,648,l),
(460,648,l),
(460,518,l)
);
},
{
closed = 1;
nodes = (
(683,69,l),
(711,120,o),
(732,185,o),
(732,250,cs),
(732,352,o),
(664,420,o),
(562,420,cs),
(466,420,o),
(395,356,o),
(362,240,c),
(442,160,l),
(454,195,o),
(459,218,o),
(472,243,cs),
(487,272,o),
(508,290,o),
(537,290,cs),
(570,290,o),
(592,266,o),
(592,230,cs),
(592,182,o),
(570,122,o),
(543,69,c)
);
}
);
width = 772;
}
);
unicode = 2314;
},
{
color = 2;
glyphname = "rVocalic-deva";
lastChange = "2023-08-21 21:16:07 +0000";
layers = (
{
anchors = (
{
name = bottom;
pos = (466,0);
},
{
name = candra;
pos = (462,648);
},
{
name = top;
pos = (462,648);
}
);
layerId = "282B1E26-206F-49B4-A55F-166754234F2D";
shapes = (
{
ref = "ta_rakar-deva";
},
{
closed = 1;
nodes = (
(934,131,l),
(897,94,o),
(840,70,o),
(790,70,cs),
(751,70,o),
(725,91,o),
(725,125,cs),
(725,163,o),
(756,190,o),
(815,236,cs),
(869,278,l),
(800,367,ls),
(777,397,o),
(766,417,o),
(760,430,c),
(702,399,l),
(711,383,o),
(722,361,o),
(747,327,cs),
(775,289,l),
(757,276,ls),
(696,232,o),
(650,186,o),
(650,125,cs),
(650,50,o),
(703,5,o),
(790,5,cs),
(842,5,o),
(891,22,o),
(934,56,c)
);
},
{
closed = 1;
nodes = (
(934,583,l),
(934,648,l),
(590,648,l),
(590,583,l)
);
},
{
closed = 1;
nodes = (
(596,273,o),
(704,318,o),
(761,386,cs),
(785,415,o),
(797,443,o),
(797,472,cs),
(797,507,o),
(759,530,o),
(712,530,cs),
(648,530,o),
(650,483,o),
(680,413,c),
(639,368,o),
(564,338,o),
(491,338,c),
(491,273,l)
);
}
);
width = 924;
},
{
anchors = (
{
name = bottom;
pos = (508,0);
},
{
name = candra;
pos = (526,648);
},
{
name = top;
pos = (526,648);
}
);
layerId = "083550D2-F2E8-44E3-BE3D-E8BDF41EDFC4";
shapes = (
{
ref = "ta_rakar-deva";
},
{
closed = 1;
nodes = (
(1010,160,l),
(956,116,o),
(911,90,o),
(869,90,cs),
(847,90,o),
(832,102,o),
(832,120,cs),
(832,141,o),
(842,157,o),
(862,175,cs),
(955,257,l),
(911,305,ls),
(884,334,o),
(856,370,o),
(843,394,c),
(749,333,l),
(755,320,o),
(768,299,o),
(784,277,cs),
(796,261,l),
(751,219,ls),
(704,175,o),
(680,136,o),
(680,86,cs),
(680,16,o),
(740,-30,o),
(830,-30,cs),
(910,-30,o),
(976,3,o),
(1010,30,c)
);
},
{
closed = 1;
nodes = (
(1040,518,l),
(1040,648,l),
(610,648,l),
(610,518,l)
);
},
{
closed = 1;
nodes = (
(645,188,o),
(756,244,o),
(843,327,cs),
(873,355,o),
(897,383,o),
(897,412,cs),
(897,453,o),
(843,480,o),
(762,480,cs),
(702,480,o),
(684,445,o),
(706,374,c),
(669,340,o),
(607,318,o),
(551,318,c),
(551,188,l)
);
}
);
width = 1030;
}
);
unicode = 2315;
},
{
color = 2;
glyphname = "rrVocalic-deva";
lastChange = "2023-08-21 21:16:53 +0000";
layers = (
{
anchors = (
{
name = bottom;
pos = (468,0);
},
{
name = candra;
pos = (470,648);
},
{
name = top;
pos = (450,648);
}
);
layerId = "282B1E26-206F-49B4-A55F-166754234F2D";
shapes = (
{
ref = "ta_rakar-deva";
},
{
closed = 1;
nodes = (
(882,255,l),
(868,248,ls),
(842,235,o),
(809,225,o),
(782,225,cs),
(763,225,o),
(752,234,o),
(752,249,cs),
(752,269,o),
(763,290,o),
(822,349,c),
(743,432,l),
(692,384,l),
(732,346,l),
(686,296,o),
(672,267,o),
(672,236,cs),
(672,192,o),
(710,164,o),
(766,167,c),
(747,151,o),
(729,125,o),
(729,92,cs),
(729,34,o),
(779,-5,o),
(853,-5,cs),
(904,-5,o),
(947,10,o),
(974,27,c),
(974,97,l),
(943,76,o),
(901,60,o),
(863,60,cs),
(825,60,o),
(804,75,o),
(804,102,cs),
(804,130,o),
(822,152,o),
(851,169,cs),
(906,200,l)
);
},
{
closed = 1;
nodes = (
(974,583,l),
(974,648,l),
(590,648,l),
(590,583,l)
);
},
{
closed = 1;
nodes = (
(584,273,o),
(684,318,o),
(741,386,cs),
(765,415,o),
(777,443,o),
(777,472,cs),
(777,507,o),
(739,530,o),
(692,530,cs),
(628,530,o),
(630,483,o),
(660,413,c),
(619,368,o),
(552,338,o),
(491,338,c),
(491,273,l)
);
}
);
width = 964;
},
{
anchors = (
{
name = bottom;
pos = (511,0);
},
{
name = candra;
pos = (510,648);
},
{
name = top;
pos = (510,648);
}
);
layerId = "083550D2-F2E8-44E3-BE3D-E8BDF41EDFC4";
shapes = (
{
ref = "ta_rakar-deva";
},
{
closed = 1;
nodes = (
(963,229,l),
(938,216,ls),
(921,207,o),
(902,201,o),
(883,201,cs),
(861,201,o),
(848,210,o),
(848,224,cs),
(848,242,o),
(862,262,o),
(905,296,c),
(856,366,l),
(755,301,l),
(781,267,l),
(736,230,o),
(713,200,o),
(713,165,cs),
(713,128,o),
(750,109,o),
(803,109,c),
(775,87,o),
(755,61,o),
(755,25,cs),
(755,-33,o),
(809,-71,o),
(890,-71,cs),
(953,-71,o),
(1008,-51,o),
(1040,-29,c),
(1040,86,l),
(1016,65,o),
(977,49,o),
(946,49,cs),
(920,49,o),
(906,60,o),
(906,79,cs),
(906,101,o),
(924,123,o),
(957,141,cs),
(992,160,l)
);
},
{
closed = 1;
nodes = (
(1040,518,l),
(1040,648,l),
(610,648,l),
(610,518,l)
);
},
{
closed = 1;
nodes = (
(645,188,o),
(756,244,o),
(843,327,cs),
(874,356,o),
(897,383,o),
(897,412,cs),
(897,453,o),
(843,480,o),
(762,480,cs),
(703,480,o),
(683,446,o),
(706,374,c),
(669,340,o),
(607,318,o),
(551,318,c),
(551,188,l)
);
}
);
width = 1030;
}
);
unicode = 2400;
},
{
color = 1;
glyphname = "lVocalic-deva";
lastChange = "2023-08-22 19:00:01 +0000";
layers = (
{
anchors = (
{
name = bottom;
pos = (559,-73);
},
{
name = candra;
pos = (490,648);
},
{
name = top;
pos = (530,648);
}
);
layerId = "282B1E26-206F-49B4-A55F-166754234F2D";
shapes = (
{
closed = 1;
nodes = (
(-10,648,l),
(-10,583,l),
(780,583,l),
(780,648,l)
);
},
{
closed = 1;
nodes = (
(490,603,l),
(490,437,l),
(565,437,l),
(565,603,l)
);
},
{
closed = 1;
nodes = (
(703,56,l),
(669,27,o),
(614,2,o),
(559,2,cs),
(514,2,o),
(484,24,o),
(484,58,cs),
(484,89,o),
(503,113,o),
(544,138,cs),
(567,152,o),
(588,166,o),
(608,178,c),
(569,236,l),
(554,226,o),
(530,212,o),
(506,197,cs),
(450,162,o),
(409,118,o),
(409,58,cs),
(409,-15,o),
(469,-63,o),
(559,-63,cs),
(622,-63,o),
(674,-40,o),
(703,-19,c)
);
},
{
closed = 1;
nodes = (
(608,178,l),
(664,211,o),
(695,251,o),
(695,313,cs),
(695,398,o),
(627,454,o),
(525,454,cs),
(389,454,o),
(354,335,o),
(355,231,c),
(420,231,l),
(420,271,ls),
(420,342,o),
(462,389,o),
(525,389,cs),
(582,389,o),
(620,359,o),
(620,313,cs),
(620,278,o),
(604,259,o),
(569,236,c)
);
},
{
closed = 1;
nodes = (
(289,35,l),
(193,108,o),
(125,205,o),
(125,285,cs),
(125,357,o),
(171,405,o),
(240,405,cs),
(308,405,o),
(345,361,o),
(345,281,cs),
(345,231,l),
(410,231,l),
(410,281,ls),
(410,397,o),
(342,470,o),
(240,470,cs),
(126,470,o),
(50,399,o),
(50,285,cs),
(50,184,o),
(130,66,o),
(244,-15,c)
);
}
);
width = 770;
},
{
anchors = (
{
name = bottom;
pos = (538,-124);
},
{
name = candra;
pos = (461,648);
},
{
name = top;
pos = (525,648);
}
);
layerId = "083550D2-F2E8-44E3-BE3D-E8BDF41EDFC4";
shapes = (
{
closed = 1;
nodes = (
(-10,648,l),
(-10,518,l),
(790,518,l),
(790,648,l)
);
},
{
closed = 1;
nodes = (
(460,558,l),
(460,410,l),
(600,410,l),
(600,558,l)
);
},
{
closed = 1;
nodes = (
(718,54,l),
(679,28,o),
(620,6,o),
(578,6,cs),
(544,6,o),
(528,22,o),
(528,42,cs),
(528,62,o),
(537,76,o),
(549,88,cs),
(562,101,o),
(582,115,o),
(606,133,c),
(520,185,l),
(505,174,o),
(489,164,o),
(468,148,cs),
(412,105,o),
(378,62,o),
(378,2,cs),
(378,-74,o),
(442,-124,o),
(538,-124,cs),
(619,-124,o),
(680,-100,o),
(718,-73,c)
);
},
{
closed = 1;
nodes = (
(606,133,l),
(646,162,o),
(720,209,o),
(720,298,cs),
(720,392,o),
(648,454,o),
(540,454,cs),
(418,454,o),
(350,352,o),
(345,206,c),
(455,206,l),
(455,236,ls),
(455,286,o),
(475,314,o),
(510,314,cs),
(546,314,o),
(570,292,o),
(570,258,cs),
(570,225,o),
(549,205,o),
(520,185,c)
);
},
{
closed = 1;
nodes = (
(310,50,l),
(238,118,o),
(190,191,o),
(190,255,cs),
(190,300,o),
(216,330,o),
(255,330,cs),
(294,330,o),
(315,300,o),
(315,246,cs),
(315,206,l),
(425,206,l),
(425,246,ls),
(425,380,o),
(347,470,o),
(230,470,cs),
(116,470,o),
(40,384,o),
(40,255,cs),
(40,146,o),
(113,43,o),
(190,-20,c)
);
}
);
width = 780;
}
);
unicode = 2316;
},
{
color = 1;
glyphname = "llVocalic-deva";
lastChange = "2023-08-22 19:00:17 +0000";
layers = (
{
anchors = (
{
name = bottom;
pos = (613,-160);
},
{
name = candra;
pos = (488,648);
},
{
name = top;
pos = (528,648);
}
);
layerId = "282B1E26-206F-49B4-A55F-166754234F2D";
shapes = (
{
closed = 1;
nodes = (
(675,-150,o),
(732,-124,o),
(753,-108,c),
(753,-33,l),
(720,-62,o),
(660,-85,o),
(614,-85,cs),
(578,-85,o),
(554,-73,o),
(554,-44,cs),
(554,-16,o),
(578,13,o),
(644,39,c),
(627,90,l),
(604,81,o),
(578,75,o),
(555,75,cs),
(537,75,o),
(522,81,o),
(522,98,cs),
(522,113,o),
(533,122,o),
(554,137,cs),
(575,152,o),
(597,166,o),
(614,179,c),
(571,232,l),
(551,217,o),
(530,206,o),
(509,193,cs),
(477,173,o),
(447,145,o),
(447,99,cs),
(447,53,o),
(483,28,o),
(515,24,c),
(497,8,o),
(479,-19,o),
(479,-54,cs),
(479,-112,o),
(533,-150,o),
(614,-150,cs)
);
},
{
closed = 1;
nodes = (
(645,200,o),
(695,241,o),
(695,313,cs),
(695,398,o),
(627,454,o),
(525,454,cs),
(389,454,o),
(354,335,o),
(355,231,c),
(420,231,l),
(420,271,ls),
(420,342,o),
(462,389,o),
(525,389,cs),
(582,389,o),
(620,359,o),
(620,313,cs),
(620,271,o),
(590,245,o),
(571,232,c),
(614,179,l)
);
},
{
closed = 1;
nodes = (
(780,583,l),
(780,648,l),
(-10,648,l),
(-10,583,l)
);
},
{
closed = 1;
nodes = (
(565,437,l),
(565,603,l),
(490,603,l),
(490,437,l)
);
},
{
closed = 1;
nodes = (
(285,35,l),
(189,108,o),
(125,205,o),
(125,285,cs),
(125,357,o),
(171,405,o),
(240,405,cs),
(308,405,o),
(345,361,o),
(345,281,cs),
(345,231,l),
(410,231,l),
(410,281,ls),
(410,397,o),
(342,470,o),
(240,470,cs),
(126,470,o),
(50,399,o),
(50,285,cs),
(50,184,o),
(126,66,o),
(240,-15,c)
);
}
);
width = 770;
},
{
anchors = (
{
name = bottom;
pos = (580,-223);
},
{
name = candra;
pos = (465,648);
},
{
name = top;
pos = (525,648);
}
);
layerId = "083550D2-F2E8-44E3-BE3D-E8BDF41EDFC4";
shapes = (
{
closed = 1;
nodes = (
(677,-223,o),
(736,-198,o),
(771,-176,c),
(771,-66,l),
(733,-91,o),
(678,-113,o),
(635,-113,cs),
(606,-113,o),
(590,-100,o),
(590,-80,cs),
(590,-58,o),
(610,-32,o),
(671,-1,c),
(640,60,l),
(601,36,o),
(576,26,o),
(553,26,cs),
(534,26,o),
(522,36,o),
(522,48,cs),
(522,58,o),
(526,69,o),
(540,83,cs),
(558,101,o),
(576,114,o),
(596,126,c),
(507,194,l),
(478,174,o),
(439,148,o),
(419,122,cs),
(401,98,o),
(395,79,o),
(395,54,cs),
(395,11,o),
(428,-23,o),
(483,-35,c),
(467,-54,o),
(450,-80,o),
(450,-117,cs),
(450,-181,o),
(510,-223,o),
(600,-223,cs)
);
},
{
closed = 1;
nodes = (
(671,174,o),
(710,227,o),
(710,308,cs),
(710,396,o),
(642,454,o),
(540,454,cs),
(408,454,o),
(350,340,o),
(345,206,c),
(455,206,l),
(455,236,ls),
(455,286,o),
(475,314,o),
(510,314,cs),
(540,314,o),
(560,296,o),
(560,268,cs),
(560,237,o),
(542,217,o),
(507,194,c),
(596,126,l)
);
},
{
closed = 1;
nodes = (
(790,518,l),
(790,648,l),
(-10,648,l),
(-10,518,l)
);
},
{
closed = 1;
nodes = (
(600,402,l),
(600,558,l),
(460,558,l),
(460,402,l)
);
},
{
closed = 1;
nodes = (
(310,50,l),
(238,118,o),
(190,191,o),
(190,255,cs),
(190,300,o),
(216,330,o),
(255,330,cs),
(294,330,o),
(315,300,o),
(315,246,cs),
(315,206,l),
(425,206,l),
(425,246,ls),
(425,380,o),
(347,470,o),
(230,470,cs),
(116,470,o),
(40,384,o),
(40,255,cs),
(40,146,o),
(113,43,o),
(190,-20,c)
);
}
);
width = 780;
}
);
unicode = 2401;
},
{
color = 1;
glyphname = "e-deva";
lastChange = "2023-08-18 21:08:13 +0000";
layers = (
{
anchors = (
{
name = bottom;
pos = (317,0);
},
{
name = candra;
pos = (271,648);
},
{
name = top;
pos = (373,648);
}
);
layerId = "282B1E26-206F-49B4-A55F-166754234F2D";
shapes = (
{
closed = 1;
nodes = (
(540,583,l),
(540,648,l),
(-10,648,l),
(-10,583,l)
);
},
{
closed = 1;
nodes = (
(514,8,l),
(485,17,o),
(365,87,o),
(253,184,cs),
(159,266,o),
(144,305,o),
(150,414,cs),
(160,603,l),
(85,603,l),
(75,414,ls),
(68,290,o),
(89,228,o),
(202,131,cs),
(316,33,o),
(413,-26,o),
(443,-40,c)
);
},
{
closed = 1;
nodes = (
(368,263,l),
(408,290,o),
(430,329,o),
(430,414,cs),
(430,603,l),
(355,603,l),
(355,414,ls),
(355,350,o),
(342,329,o),
(303,300,c)
);
}
);
width = 530;
},
{
anchors = (
{
name = bottom;
pos = (360,-20);
},
{
name = candra;
pos = (310,648);
},
{
name = top;
pos = (430,648);
}
);
layerId = "083550D2-F2E8-44E3-BE3D-E8BDF41EDFC4";
shapes = (
{
closed = 1;
nodes = (
(610,518,l),
(610,648,l),
(-10,648,l),
(-10,518,l)
);
},
{
closed = 1;
nodes = (
(589,20,l),
(530,41,o),
(460,83,o),
(328,199,cs),
(237,279,o),
(223,310,o),
(230,402,cs),
(240,538,l),
(90,538,l),
(80,402,ls),
(71,273,o),
(95,212,o),
(220,103,cs),
(353,-13,o),
(411,-46,o),
(445,-59,c)
);
},
{
closed = 1;
nodes = (
(430,240,l),
(482,270,o),
(510,314,o),
(510,414,cs),
(510,538,l),
(360,538,l),
(360,414,ls),
(360,346,o),
(342,319,o),
(315,295,c)
);
}
);
width = 600;
}
);
unicode = 2319;
},
{
color = 1;
glyphname = "aaMatra-deva";
lastChange = "2023-09-02 19:39:16 +0000";
layers = (
{
anchors = (
{
name = bottom;
pos = (140,0);
},
{
name = candra;
pos = (103,648);
},
{
name = top;
pos = (138,648);
}
);
layerId = "282B1E26-206F-49B4-A55F-166754234F2D";
shapes = (
{
closed = 1;
nodes = (
(-10,648,l),
(-10,583,l),
(100,583,l),
(100,0,l),
(175,0,l),
(175,583,l),
(285,583,l),
(285,648,l)
);
}
);
width = 275;
},
{
anchors = (
{
name = bottom;
pos = (138,0);
},
{
name = candra;
pos = (78,648);
},
{
name = top;
pos = (136,648);
}
);
layerId = "083550D2-F2E8-44E3-BE3D-E8BDF41EDFC4";
shapes = (
{
closed = 1;
nodes = (
(-10,648,l),
(-10,518,l),
(60,518,l),
(60,0,l),
(210,0,l),
(210,518,l),
(280,518,l),
(280,648,l)
);
}
);
width = 270;
}
);
unicode = 2366;
},
{
color = 1;
glyphname = "iMatra-deva";
lastChange = "2023-07-29 19:47:01 +0000";
layers = (
{
anchors = (
{
name = candra;
pos = (675,761);
},
{
name = imatra;
pos = (675,731);
}
);
layerId = "282B1E26-206F-49B4-A55F-166754234F2D";
shapes = (
{
closed = 1;
nodes = (
(-10,648,l),
(-10,583,l),
(100,583,l),
(100,0,l),
(175,0,l),
(175,583,l),
(285,583,l),
(285,648,l)
);
},
{
closed = 1;
nodes = (
(166,627,l),
(152,654,o),
(144,686,o),
(144,723,cs),
(144,804,o),
(184,843,o),
(266,843,cs),
(375,843,o),
(510,777,o),
(626,688,c),
(675,731,l),
(562,817,o),
(407,908,o),
(246,908,cs),
(140,908,o),
(69,846,o),
(69,754,cs),
(69,689,o),
(87,648,o),
(107,617,c)
);
}
);
width = 275;
},
{
anchors = (
{
name = candra;
pos = (630,849);
},
{
name = imatra;
pos = (720,769);
}
);
layerId = "083550D2-F2E8-44E3-BE3D-E8BDF41EDFC4";
shapes = (
{
closed = 1;
nodes = (
(-10,648,l),
(-10,518,l),
(60,518,l),
(60,0,l),
(210,0,l),
(210,518,l),
(280,518,l),
(280,648,l)
);
},
{
closed = 1;
nodes = (
(187,627,l),
(176,648,o),
(169,673,o),
(169,703,cs),
(169,760,o),
(205,798,o),
(281,799,cs),
(369,800,o),
(508,754,o),
(640,678,c),
(720,769,l),
(594,849,o),
(422,928,o),
(241,928,cs),
(108,928,o),
(19,850,o),
(19,734,cs),
(19,689,o),
(36,641,o),
(54,617,c)
);
}
);
width = 270;
}
);
unicode = 2367;
},
{
color = 3;
glyphname = "iMatra-deva.01";
lastChange = "2023-08-21 19:32:23 +0000";
layers = (
{
anchors = (
{
name = candra;
pos = (575,768);
},
{
name = imatra;
pos = (575,731);
}
);
layerId = "282B1E26-206F-49B4-A55F-166754234F2D";
shapes = (
{
closed = 1;
nodes = (
(-10,648,l),
(-10,583,l),
(100,583,l),
(100,0,l),
(175,0,l),
(175,583,l),
(285,583,l),
(285,648,l)
);
},
{
closed = 1;
nodes = (
(166,627,l),
(152,654,o),
(144,691,o),
(144,728,cs),
(144,802,o),
(185,843,o),
(266,843,cs),
(355,843,o),
(454,771,o),
(526,688,c),
(575,731,l),
(506,811,o),
(387,908,o),
(246,908,cs),
(132,908,o),
(69,833,o),
(69,754,cs),
(69,689,o),
(92,644,o),
(113,617,c)
);
}
);
width = 275;
},
{
anchors = (
{
name = candra;
pos = (548,846);
},
{
name = imatra;
pos = (570,749);
}
);
layerId = "083550D2-F2E8-44E3-BE3D-E8BDF41EDFC4";
shapes = (
{
closed = 1;
nodes = (
(-10,648,l),
(-10,518,l),
(60,518,l),
(60,0,l),
(210,0,l),
(210,518,l),
(280,518,l),
(280,648,l)
);
},
{
closed = 1;
nodes = (
(187,627,l),
(175,656,o),
(169,686,o),
(169,713,cs),
(169,765,o),
(200,797,o),
(251,798,cs),
(324,800,o),
(404,750,o),
(470,683,c),
(570,749,l),
(507,831,o),
(372,928,o),
(221,928,cs),
(96,928,o),
(19,854,o),
(19,754,cs),
(19,699,o),
(38,649,o),
(54,617,c)
);
}
);
width = 270;
}
);
},
{
color = 3;
glyphname = "iMatra-deva.02";
lastChange = "2023-06-27 19:48:13 +0000";
layers = (
{
anchors = (
{
name = candra;
pos = (716,749);
},
{
name = imatra;
pos = (695,731);
}
);
layerId = "282B1E26-206F-49B4-A55F-166754234F2D";
shapes = (
{
closed = 1;
nodes = (
(-10,648,l),
(-10,583,l),
(100,583,l),
(100,0,l),
(175,0,l),
(175,583,l),
(285,583,l),
(285,648,l)
);
},
{
closed = 1;
nodes = (
(166,627,l),
(152,654,o),
(144,691,o),
(144,728,cs),
(144,802,o),
(185,843,o),
(286,843,cs),
(415,843,o),
(545,779,o),
(650,688,c),
(695,731,l),
(597,819,o),
(447,908,o),
(266,908,cs),
(132,908,o),
(69,833,o),
(69,754,cs),
(69,689,o),
(92,644,o),
(113,617,c)
);
}
);
width = 275;
},
{
anchors = (
{
name = candra;
pos = (719,796);
},
{
name = imatra;
pos = (690,769);
}
);
layerId = "083550D2-F2E8-44E3-BE3D-E8BDF41EDFC4";
shapes = (
{
closed = 1;
nodes = (
(-10,648,l),
(-10,518,l),
(60,518,l),
(60,0,l),
(210,0,l),
(210,518,l),
(280,518,l),
(280,648,l)
);
},
{
closed = 1;
nodes = (
(187,627,l),
(175,656,o),
(169,686,o),
(169,713,cs),
(169,765,o),
(200,797,o),
(271,798,cs),
(369,800,o),
(506,746,o),
(610,678,c),
(690,769,l),
(591,833,o),
(412,928,o),
(231,928,cs),
(96,928,o),
(19,854,o),
(19,754,cs),
(19,699,o),
(38,649,o),
(54,617,c)
);
}
);
width = 270;
}
);
},
{
color = 3;
glyphname = "iMatra-deva.03";
lastChange = "2023-08-21 19:30:49 +0000";
layers = (
{
anchors = (
{
name = candra;
pos = (735,759);
},
{
name = imatra;
pos = (715,736);
}
);
layerId = "282B1E26-206F-49B4-A55F-166754234F2D";
shapes = (
{
closed = 1;
nodes = (
(-10,648,l),
(-10,583,l),
(100,583,l),
(100,0,l),
(175,0,l),
(175,583,l),
(285,583,l),
(285,648,l)
);
},
{
closed = 1;
nodes = (
(166,627,l),
(152,654,o),
(144,691,o),
(144,728,cs),
(144,802,o),
(195,843,o),
(306,843,cs),
(425,843,o),
(577,769,o),
(671,688,c),
(715,736,l),
(617,816,o),
(457,908,o),
(286,908,cs),
(142,908,o),
(69,833,o),
(69,754,cs),
(69,689,o),
(92,644,o),
(113,617,c)
);
}
);
width = 275;
},
{
anchors = (
{
name = candra;
pos = (735,781);
},
{
name = imatra;
pos = (710,759);
}
);
layerId = "083550D2-F2E8-44E3-BE3D-E8BDF41EDFC4";
shapes = (
{
closed = 1;
nodes = (
(-10,648,l),
(-10,518,l),
(60,518,l),
(60,0,l),
(210,0,l),
(210,518,l),
(280,518,l),
(280,648,l)
);
},
{
closed = 1;
nodes = (
(187,627,l),
(175,656,o),
(169,686,o),
(169,713,cs),
(169,765,o),
(210,797,o),
(291,798,cs),
(399,800,o),
(546,735,o),
(625,678,c),
(710,759,l),
(623,833,o),
(442,928,o),
(261,928,cs),
(106,928,o),
(19,854,o),
(19,754,cs),
(19,699,o),
(38,649,o),
(54,617,c)
);
}
);
width = 270;
}
);
},
{
color = 3;
glyphname = "iMatra-deva.05";
lastChange = "2023-08-21 19:30:58 +0000";
layers = (
{
anchors = (
{
name = candra;
pos = (752,759);
},
{
name = imatra;
pos = (735,738);
}
);
layerId = "282B1E26-206F-49B4-A55F-166754234F2D";
shapes = (
{
closed = 1;
nodes = (
(-10,648,l),
(-10,583,l),
(100,583,l),
(100,0,l),
(175,0,l),
(175,583,l),
(285,583,l),
(285,648,l)
);
},
{
closed = 1;
nodes = (
(166,627,l),
(152,654,o),
(144,691,o),
(144,728,cs),
(144,802,o),
(195,843,o),
(306,843,cs),
(425,843,o),
(560,789,o),
(693,688,c),
(735,738,l),
(597,839,o),
(457,908,o),
(286,908,cs),
(142,908,o),
(69,833,o),
(69,754,cs),
(69,689,o),
(92,644,o),
(113,617,c)
);
}
);
width = 275;
},
{
anchors = (
{
name = candra;
pos = (750,793);
},
{
name = imatra;
pos = (730,769);
}
);
layerId = "083550D2-F2E8-44E3-BE3D-E8BDF41EDFC4";
shapes = (
{
closed = 1;
nodes = (
(-10,648,l),
(-10,518,l),
(60,518,l),
(60,0,l),
(210,0,l),
(210,518,l),
(280,518,l),
(280,648,l)
);
},
{
closed = 1;
nodes = (
(187,627,l),
(175,656,o),
(169,686,o),
(169,713,cs),
(169,765,o),
(210,797,o),
(291,798,cs),
(409,799,o),
(530,755,o),
(650,678,c),
(730,769,l),
(611,843,o),
(432,928,o),
(251,928,cs),
(106,928,o),
(19,854,o),
(19,754,cs),
(19,699,o),
(38,649,o),
(54,617,c)
);
}
);
width = 270;
}
);
},
{
color = 3;
glyphname = "iMatra-deva.08";
lastChange = "2023-08-21 19:31:09 +0000";
layers = (
{
anchors = (
{
name = candra;
pos = (770,763);
},
{
name = imatra;
pos = (755,741);
}
);
layerId = "282B1E26-206F-49B4-A55F-166754234F2D";
shapes = (
{
closed = 1;
nodes = (
(-10,648,l),
(-10,583,l),
(100,583,l),
(100,0,l),
(175,0,l),
(175,583,l),
(285,583,l),
(285,648,l)
);
},
{
closed = 1;
nodes = (
(166,627,l),
(152,654,o),
(144,691,o),
(144,728,cs),
(144,802,o),
(195,843,o),
(316,843,cs),
(445,843,o),
(591,778,o),
(714,688,c),
(755,741,l),
(627,829,o),
(477,908,o),
(296,908,cs),
(142,908,o),
(69,833,o),
(69,754,cs),
(69,689,o),
(92,644,o),
(113,617,c)
);
}
);
width = 275;
},
{
anchors = (
{
name = candra;
pos = (769,796);
},
{
name = imatra;
pos = (750,769);
}
);
layerId = "083550D2-F2E8-44E3-BE3D-E8BDF41EDFC4";
shapes = (
{
closed = 1;
nodes = (
(-10,648,l),
(-10,518,l),
(60,518,l),
(60,0,l),
(210,0,l),
(210,518,l),
(280,518,l),
(280,648,l)
);
},
{
closed = 1;
nodes = (
(187,627,l),
(175,656,o),
(169,686,o),
(169,713,cs),
(169,765,o),
(210,797,o),
(311,798,cs),
(429,799,o),
(556,749,o),
(670,678,c),
(750,769,l),
(635,845,o),
(462,928,o),
(271,928,cs),
(106,928,o),
(19,854,o),
(19,754,cs),
(19,699,o),
(38,649,o),
(54,617,c)
);
}
);
width = 270;
}
);
},
{
color = 3;
glyphname = "iMatra-deva.10";
lastChange = "2023-08-21 19:31:17 +0000";
layers = (
{
anchors = (
{
name = candra;
pos = (847,758);
},
{
name = imatra;
pos = (835,741);
}
);
layerId = "282B1E26-206F-49B4-A55F-166754234F2D";
shapes = (
{
closed = 1;
nodes = (
(-10,648,l),
(-10,583,l),
(100,583,l),
(100,0,l),
(175,0,l),
(175,583,l),
(285,583,l),
(285,648,l)
);
},
{
closed = 1;
nodes = (
(166,627,l),
(152,654,o),
(144,691,o),
(144,728,cs),
(144,802,o),
(185,843,o),
(296,843,cs),
(425,843,o),
(613,786,o),
(801,688,c),
(835,741,l),
(644,836,o),
(457,908,o),
(276,908,cs),
(132,908,o),
(69,833,o),
(69,754,cs),
(69,689,o),
(92,644,o),
(113,617,c)
);
}
);
width = 275;
},
{
anchors = (
{
name = candra;
pos = (856,789);
},
{
name = imatra;
pos = (840,769);
}
);
layerId = "083550D2-F2E8-44E3-BE3D-E8BDF41EDFC4";
shapes = (
{
closed = 1;
nodes = (
(-10,648,l),
(-10,518,l),
(60,518,l),
(60,0,l),
(210,0,l),
(210,518,l),
(280,518,l),
(280,648,l)
);
},
{
closed = 1;
nodes = (
(187,627,l),
(175,656,o),
(169,686,o),
(169,713,cs),
(169,765,o),
(210,798,o),
(311,799,cs),
(439,800,o),
(612,750,o),
(760,678,c),
(840,769,l),
(686,849,o),
(462,928,o),
(261,928,cs),
(96,928,o),
(19,854,o),
(19,754,cs),
(19,699,o),
(38,649,o),
(54,617,c)
);
}
);
width = 270;
}
);
},
{
color = 3;
glyphname = "iMatra-deva.15";
lastChange = "2023-06-25 23:10:10 +0000";
layers = (
{
anchors = (
{
name = candra;
pos = (905,754);
},
{
name = imatra;
pos = (915,741);
}
);
layerId = "282B1E26-206F-49B4-A55F-166754234F2D";
shapes = (
{
closed = 1;
nodes = (
(-10,648,l),
(-10,583,l),
(100,583,l),
(100,0,l),
(175,0,l),
(175,583,l),
(285,583,l),
(285,648,l)
);
},
{
closed = 1;
nodes = (
(166,627,l),
(152,654,o),
(144,691,o),
(144,728,cs),
(144,802,o),
(205,843,o),
(336,843,cs),
(495,843,o),
(698,798,o),
(877,688,c),
(915,741,l),
(730,848,o),
(527,908,o),
(316,908,cs),
(152,908,o),
(69,833,o),
(69,754,cs),
(69,689,o),
(92,644,o),
(113,617,c)
);
}
);
width = 275;
},
{
anchors = (
{
name = candra;
pos = (890,798);
},
{
name = imatra;
pos = (900,769);
}
);
layerId = "083550D2-F2E8-44E3-BE3D-E8BDF41EDFC4";
shapes = (
{
closed = 1;
nodes = (
(-10,648,l),
(-10,518,l),
(60,518,l),
(60,0,l),
(210,0,l),
(210,518,l),
(280,518,l),
(280,648,l)
);
},
{
closed = 1;
nodes = (
(187,627,l),
(175,656,o),
(169,686,o),
(169,713,cs),
(169,765,o),
(220,798,o),
(331,799,cs),
(479,800,o),
(700,741,o),
(830,678,c),
(900,769,l),
(814,811,o),
(552,928,o),
(301,928,cs),
(106,928,o),
(19,854,o),
(19,754,cs),
(19,699,o),
(38,649,o),
(54,617,c)
);
}
);
width = 270;
}
);
},
{
color = 3;
glyphname = "iMatra-deva.20";
lastChange = "2023-06-25 23:10:26 +0000";
layers = (
{
anchors = (
{
name = candra;
pos = (985,758);
},
{
name = imatra;
pos = (995,741);
}
);
layerId = "282B1E26-206F-49B4-A55F-166754234F2D";
shapes = (
{
closed = 1;
nodes = (
(-10,648,l),
(-10,583,l),
(100,583,l),
(100,0,l),
(175,0,l),
(175,583,l),
(285,583,l),
(285,648,l)
);
},
{
closed = 1;
nodes = (
(166,627,l),
(152,654,o),
(144,691,o),
(144,728,cs),
(144,802,o),
(205,843,o),
(336,843,cs),
(505,843,o),
(775,789,o),
(957,688,c),
(995,741,l),
(807,839,o),
(537,908,o),
(316,908,cs),
(147,908,o),
(69,833,o),
(69,754,cs),
(69,689,o),
(92,644,o),
(113,617,c)
);
}
);
width = 275;
},
{
anchors = (
{
name = candra;
pos = (974,808);
},
{
name = imatra;
pos = (990,779);
}
);
layerId = "083550D2-F2E8-44E3-BE3D-E8BDF41EDFC4";
shapes = (
{
closed = 1;
nodes = (
(-10,648,l),
(-10,518,l),
(60,518,l),
(60,0,l),
(210,0,l),
(210,518,l),
(280,518,l),
(280,648,l)
);
},
{
closed = 1;
nodes = (
(187,627,l),
(175,656,o),
(169,686,o),
(169,713,cs),
(169,765,o),
(210,798,o),
(331,799,cs),
(509,800,o),
(723,750,o),
(910,678,c),
(990,779,l),
(853,833,o),
(552,928,o),
(291,928,cs),
(116,928,o),
(19,854,o),
(19,754,cs),
(19,699,o),
(38,649,o),
(54,617,c)
);
}
);
width = 270;
}
);
},
{
color = 3;
glyphname = "iMatra-deva.25";
lastChange = "2023-06-25 23:10:45 +0000";
layers = (
{
anchors = (
{
name = candra;
pos = (1065,764);
},
{
name = imatra;
pos = (1075,741);
}
);
layerId = "282B1E26-206F-49B4-A55F-166754234F2D";
shapes = (
{
closed = 1;
nodes = (
(-10,648,l),
(-10,583,l),
(100,583,l),
(100,0,l),
(175,0,l),
(175,583,l),
(285,583,l),
(285,648,l)
);
},
{
closed = 1;
nodes = (
(166,627,l),
(152,654,o),
(144,691,o),
(144,728,cs),
(144,802,o),
(195,843,o),
(386,843,cs),
(585,843,o),
(875,769,o),
(1046,688,c),
(1075,741,l),
(897,829,o),
(617,908,o),
(366,908,cs),
(137,908,o),
(69,833,o),
(69,754,cs),
(69,689,o),
(92,644,o),
(113,617,c)
);
}
);
width = 275;
},
{
anchors = (
{
name = candra;
pos = (1069,791);
},
{
name = imatra;
pos = (1090,769);
}
);
layerId = "083550D2-F2E8-44E3-BE3D-E8BDF41EDFC4";
shapes = (
{
closed = 1;
nodes = (
(-10,648,l),
(-10,518,l),
(60,518,l),
(60,0,l),
(210,0,l),
(210,518,l),
(280,518,l),
(280,648,l)
);
},
{
closed = 1;
nodes = (
(187,627,l),
(182,639,o),
(169,676,o),
(169,703,cs),
(169,755,o),
(200,798,o),
(331,799,cs),
(509,800,o),
(826,744,o),
(1000,678,c),
(1090,769,l),
(889,851,o),
(582,928,o),
(301,928,cs),
(106,928,o),
(19,854,o),
(19,744,cs),
(19,689,o),
(46,633,o),
(54,617,c)
);
}
);
width = 270;
}
);
},
{
color = 3;
glyphname = "iMatra-deva.30";
lastChange = "2023-06-25 23:11:03 +0000";
layers = (
{
anchors = (
{
name = candra;
pos = (1264,761);
},
{
name = imatra;
pos = (1275,741);
}
);
layerId = "282B1E26-206F-49B4-A55F-166754234F2D";
shapes = (
{
closed = 1;
nodes = (
(-10,648,l),
(-10,583,l),
(100,583,l),
(100,0,l),
(175,0,l),
(175,583,l),
(285,583,l),
(285,648,l)
);
},
{
closed = 1;
nodes = (
(166,627,l),
(152,654,o),
(144,691,o),
(144,728,cs),
(144,802,o),
(205,843,o),
(416,843,cs),
(665,843,o),
(965,783,o),
(1246,688,c),
(1275,741,l),
(1007,839,o),
(697,908,o),
(396,908,cs),
(147,908,o),
(69,833,o),
(69,754,cs),
(69,689,o),
(92,644,o),
(113,617,c)
);
}
);
width = 275;
},
{
anchors = (
{
name = candra;
pos = (1239,812);
},
{
name = imatra;
pos = (1280,779);
}
);
layerId = "083550D2-F2E8-44E3-BE3D-E8BDF41EDFC4";
shapes = (
{
closed = 1;
nodes = (
(-10,648,l),
(-10,518,l),
(60,518,l),
(60,0,l),
(210,0,l),
(210,518,l),
(280,518,l),
(280,648,l)
);
},
{
closed = 1;
nodes = (
(187,627,l),
(175,656,o),
(169,686,o),
(169,713,cs),
(169,765,o),
(200,800,o),
(431,800,cs),
(669,800,o),
(966,748,o),
(1200,678,c),
(1280,779,l),
(1015,865,o),
(712,928,o),
(381,928,cs),
(106,928,o),
(19,854,o),
(19,754,cs),
(19,699,o),
(38,649,o),
(54,617,c)
);
}
);
width = 270;
}
);
},
{
color = 1;
glyphname = "iiMatra-deva";
lastChange = "2023-09-02 19:32:35 +0000";
layers = (
{
anchors = (
{
name = candra;
pos = (246,648);
},
{
name = imatra;
pos = (158,688);
},
{
name = top;
pos = (142,648);
}
);
layerId = "282B1E26-206F-49B4-A55F-166754234F2D";
shapes = (
{
closed = 1;
nodes = (
(-146,687,l),
(-151,700,o),
(-155,726,o),
(-155,748,cs),
(-155,802,o),
(-119,843,o),
(-53,843,cs),
(16,843,o),
(94,764,o),
(101,608,c),
(165,635,l),
(155,789,o),
(68,908,o),
(-63,908,cs),
(-162,908,o),
(-230,843,o),
(-230,764,cs),
(-230,729,o),
(-223,706,o),
(-214,687,c)
);
},
{
closed = 1;
nodes = (
(-10,648,l),
(-10,583,l),
(100,583,l),
(100,0,l),
(175,0,l),
(175,583,l),
(285,583,l),
(285,648,l)
);
}
);
width = 275;
},
{
anchors = (
{
name = candra;
pos = (279,648);
},
{
name = imatra;
pos = (190,688);
},
{
name = top;
pos = (154,648);
}
);
layerId = "083550D2-F2E8-44E3-BE3D-E8BDF41EDFC4";
shapes = (
{
closed = 1;
nodes = (
(-124,688,l),
(-127,696,o),
(-130,708,o),
(-130,723,c),
(-130,759,o),
(-105,788,o),
(-59,788,cs),
(4,788,o),
(51,726,o),
(60,588,c),
(200,620,l),
(191,784,o),
(92,917,o),
(-79,917,cs),
(-214,917,o),
(-290,834,o),
(-290,744,cs),
(-290,721,o),
(-285,703,o),
(-278,688,c)
);
},
{
closed = 1;
nodes = (
(-10,648,l),
(-10,518,l),
(60,518,l),
(60,0,l),
(210,0,l),
(210,518,l),
(280,518,l),
(280,648,l)
);
}
);
width = 270;
}
);
unicode = 2368;
},
{
color = 3;
glyphname = "iiMatra-deva.02";
lastChange = "2023-07-23 18:19:42 +0000";
layers = (
{
anchors = (
{
name = candra;
pos = (208,648);
},
{
name = imatra;
pos = (150,668);
},
{
name = top;
pos = (128,648);
}
);
layerId = "282B1E26-206F-49B4-A55F-166754234F2D";
shapes = (
{
closed = 1;
nodes = (
(-306,687,l),
(-311,700,o),
(-315,721,o),
(-315,743,cs),
(-315,797,o),
(-279,838,o),
(-193,838,cs),
(-74,838,o),
(71,744,o),
(101,608,c),
(160,635,l),
(130,769,o),
(-22,908,o),
(-203,908,cs),
(-322,908,o),
(-390,843,o),
(-390,764,cs),
(-390,729,o),
(-383,706,o),
(-374,687,c)
);
},
{
closed = 1;
nodes = (
(-10,648,l),
(-10,583,l),
(100,583,l),
(100,0,l),
(175,0,l),
(175,583,l),
(285,583,l),
(285,648,l)
);
}
);
width = 275;
},
{
anchors = (
{
name = candra;
pos = (237,648);
},
{
name = imatra;
pos = (167,688);
},
{
name = top;
pos = (132,668);
}
);
layerId = "083550D2-F2E8-44E3-BE3D-E8BDF41EDFC4";
shapes = (
{
closed = 1;
nodes = (
(-244,688,l),
(-247,696,o),
(-250,708,o),
(-250,723,c),
(-250,759,o),
(-215,788,o),
(-159,788,cs),
(-66,788,o),
(30,712,o),
(60,588,c),
(190,620,l),
(160,764,o),
(22,917,o),
(-179,917,cs),
(-324,917,o),
(-410,834,o),
(-410,744,cs),
(-410,721,o),
(-405,703,o),
(-398,688,c)
);
},
{
closed = 1;
nodes = (
(-10,648,l),
(-10,518,l),
(60,518,l),
(60,0,l),
(210,0,l),
(210,518,l),
(280,518,l),
(280,648,l)
);
}
);
width = 270;
}
);
},
{
color = 1;
glyphname = "prishthaMatraE-deva";
lastChange = "2023-06-25 23:11:38 +0000";
layers = (
{
anchors = (
{
name = bottom;
pos = (135,0);
},
{
name = candra;
pos = (135,648);
},
{
name = top;
pos = (135,648);
}
);
layerId = "282B1E26-206F-49B4-A55F-166754234F2D";
shapes = (
{
closed = 1;
nodes = (
(100,648,l),
(100,0,l),
(175,0,l),
(175,583,l),
(285,583,l),
(285,648,l)
);
}
);
width = 275;
},
{
anchors = (
{
name = bottom;
pos = (140,0);
},
{
name = candra;
pos = (140,648);
},
{
name = top;
pos = (135,648);
}
);
layerId = "083550D2-F2E8-44E3-BE3D-E8BDF41EDFC4";
shapes = (
{
closed = 1;
nodes = (
(70,648,l),
(70,0,l),
(220,0,l),
(220,518,l),
(300,518,l),
(300,648,l)
);
}
);
width = 290;
}
);
unicode = 2382;
},
{
glyphname = "awMatra-deva";
lastChange = "2023-09-02 19:38:53 +0000";
layers = (
{
anchors = (
{
name = candra;
pos = (220,710);
},
{
name = top;
pos = (175,648);
}
);
layerId = "282B1E26-206F-49B4-A55F-166754234F2D";
shapes = (
{
ref = "aaMatra-deva";
},
{
closed = 1;
nodes = (
(203,739,o),
(179,798,o),
(85,840,cs),
(12,872,o),
(-8,892,o),
(-8,940,c),
(-98,940,l),
(-103,869,o),
(-58,820,o),
(35,790,cs),
(133,758,o),
(139,716,o),
(129,638,c),
(189,638,l)
);
},
{
closed = 1;
nodes = (
(126,732,o),
(60,752,o),
(-54,776,cs),
(-131,792,o),
(-155,819,o),
(-158,870,c),
(-248,870,l),
(-248,770,o),
(-190,721,o),
(-76,709,cs),
(11,700,o),
(65,680,o),
(89,638,c),
(149,638,l)
);
}
);
width = 280;
},
{
anchors = (
{
name = candra;
pos = (255,770);
},
{
name = top;
pos = (209,648);
}
);
layerId = "083550D2-F2E8-44E3-BE3D-E8BDF41EDFC4";
shapes = (
{
ref = "aaMatra-deva";
},
{
closed = 1;
nodes = (
(240,718,o),
(230,799,o),
(143,868,cs),
(79,919,o),
(56,955,o),
(61,1000,c),
(-99,1000,l),
(-109,900,o),
(-63,864,o),
(30,813,cs),
(125,761,o),
(128,686,o),
(128,638,c),
(218,638,l)
);
},
{
closed = 1;
nodes = (
(113,721,o),
(54,766,o),
(-58,798,cs),
(-129,818,o),
(-160,847,o),
(-169,910,c),
(-329,910,l),
(-329,820,o),
(-296,753,o),
(-213,718,cs),
(-110,675,o),
(8,706,o),
(48,638,c),
(128,638,l)
);
}
);
width = 280;
}
);
unicode = 2383;
},
{
color = 11;
export = 0;
glyphname = "iMatra-deva.00";
lastChange = "2023-06-11 10:23:46 +0000";
layers = (
{
anchors = (
{
name = candra;
pos = (640,768);
},
{
name = imatra;
pos = (580,751);
},
{
name = top;
pos = (577,671);
}
);
layerId = "282B1E26-206F-49B4-A55F-166754234F2D";
shapes = (
{
closed = 1;
nodes = (
(-10,668,l),
(-10,603,l),
(100,603,l),
(100,0,l),
(180,0,l),
(180,603,l),
(290,603,l),
(290,668,l)
);
},
{
closed = 1;
nodes = (
(171,647,l),
(157,674,o),
(149,706,o),
(149,743,cs),
(149,817,o),
(190,858,o),
(271,858,cs),
(360,858,o),
(459,791,o),
(531,708,c),
(580,751,l),
(511,831,o),
(392,928,o),
(251,928,cs),
(132,928,o),
(69,853,o),
(69,774,cs),
(69,709,o),
(92,664,o),
(113,637,c)
);
}
);
width = 280;
},
{
anchors = (
{
name = candra;
pos = (638,816);
},
{
name = imatra;
pos = (580,769);
},
{
name = top;
pos = (560,656);
}
);
layerId = "083550D2-F2E8-44E3-BE3D-E8BDF41EDFC4";
shapes = (
{
closed = 1;
nodes = (
(-10,668,l),
(-10,538,l),
(60,538,l),
(60,0,l),
(220,0,l),
(220,538,l),
(290,538,l),
(290,668,l)
);
},
{
closed = 1;
nodes = (
(197,647,l),
(185,676,o),
(179,706,o),
(179,733,cs),
(179,785,o),
(210,817,o),
(261,818,cs),
(339,820,o),
(410,776,o),
(480,698,c),
(580,769,l),
(507,864,o),
(382,948,o),
(231,948,cs),
(96,948,o),
(19,874,o),
(19,774,cs),
(19,719,o),
(38,669,o),
(54,637,c)
);
}
);
width = 280;
}
);
},
{
color = 1;
glyphname = "ka-deva";
lastChange = "2023-08-15 17:44:50 +0000";
layers = (
{
anchors = (
{
name = bottom;
pos = (415,0);
},
{
name = candra;
pos = (406,648);
},
{
name = leg;
pos = (403,200);
},
{
name = nukta;
pos = (144,0);
},
{
name = top;
pos = (415,648);
}
);
layerId = "282B1E26-206F-49B4-A55F-166754234F2D";
shapes = (
{
closed = 1;
nodes = (
(-10,648,l),
(-10,583,l),
(375,583,l),
(375,0,l),
(455,0,l),
(455,583,l),
(830,583,l),
(830,648,l)
);
},
{
closed = 1;
nodes = (
(505,460,o),
(425,404,o),
(409,299,c),
(455,247,l),
(455,347,o),
(514,395,o),
(585,395,cs),
(657,395,o),
(705,347,o),
(705,275,cs),
(705,203,o),
(657,155,o),
(585,155,cs),
(574,155,l),
(574,90,l),
(585,90,ls),
(702,90,o),
(780,164,o),
(780,275,cs),
(780,386,o),
(706,460,o),
(595,460,cs)
);
},
{
closed = 1;
nodes = (
(385,251,l),
(358,222,o),
(311,195,o),
(245,195,cs),
(173,195,o),
(125,243,o),
(125,315,cs),
(125,387,o),
(173,435,o),
(245,435,cs),
(306,435,o),
(346,412,o),
(380,385,c),
(330,385,l),
(330,525,l),
(390,442,l),
(352,482,o),
(311,500,o),
(245,500,cs),
(128,500,o),
(50,426,o),
(50,315,cs),
(50,204,o),
(128,130,o),
(245,130,cs),
(329,130,o),
(378,168,o),
(413,210,c)
);
}
);
width = 820;
},
{
anchors = (
{
name = bottom;
pos = (430,0);
},
{
name = candra;
pos = (420,648);
},
{
name = leg;
pos = (407,163);
},
{
name = nukta;
pos = (26,0);
},
{
name = top;
pos = (430,648);
}
);
layerId = "083550D2-F2E8-44E3-BE3D-E8BDF41EDFC4";
shapes = (
{
closed = 1;
nodes = (
(-10,648,l),
(-10,518,l),
(350,518,l),
(350,0,l),
(510,0,l),
(510,518,l),
(870,518,l),
(870,648,l)
);
},
{
closed = 1;
nodes = (
(497,440,o),
(450,335,o),
(438,260,c),
(510,200,l),
(510,270,o),
(547,310,o),
(600,310,cs),
(648,310,o),
(680,282,o),
(680,240,cs),
(680,198,o),
(648,170,o),
(600,170,cs),
(589,170,l),
(589,40,l),
(600,40,ls),
(738,40,o),
(830,120,o),
(830,240,cs),
(830,360,o),
(750,440,o),
(630,440,cs)
);
},
{
closed = 1;
nodes = (
(360,243,l),
(348,226,o),
(309,200,o),
(260,200,cs),
(212,200,o),
(180,228,o),
(180,270,cs),
(180,312,o),
(212,340,o),
(260,340,cs),
(297,340,o),
(328,327,o),
(361,306,c),
(303,291,l),
(303,501,l),
(361,425,l),
(323,455,o),
(293,470,o),
(240,470,cs),
(114,470,o),
(30,390,o),
(30,270,cs),
(30,150,o),
(114,70,o),
(240,70,cs),
(330,70,o),
(383,124,o),
(407,163,c)
);
}
);
width = 860;
}
);
unicode = 2325;
},
{
color = 1;
glyphname = "k-deva";
lastChange = "2023-08-15 17:44:41 +0000";
layers = (
{
anchors = (
{
name = leg;
pos = (403,200);
},
{
name = nukta;
pos = (133,0);
}
);
layerId = "282B1E26-206F-49B4-A55F-166754234F2D";
shapes = (
{
closed = 1;
nodes = (
(-10,648,l),
(-10,583,l),
(375,583,l),
(375,0,l),
(455,0,l),
(455,583,l),
(565,583,l),
(565,648,l)
);
},
{
closed = 1;
nodes = (
(645,583,l),
(645,648,l),
(545,648,l),
(545,583,l)
);
},
{
closed = 1;
nodes = (
(635,426,l),
(618,434,o),
(599,440,o),
(565,440,cs),
(479,440,o),
(422,375,o),
(422,277,c),
(455,247,l),
(455,324,o),
(496,370,o),
(565,370,cs),
(602,370,o),
(628,362,o),
(645,353,c)
);
},
{
closed = 1;
nodes = (
(385,251,l),
(358,222,o),
(311,195,o),
(245,195,cs),
(173,195,o),
(125,243,o),
(125,315,cs),
(125,387,o),
(173,435,o),
(245,435,cs),
(306,435,o),
(346,412,o),
(380,385,c),
(330,385,l),
(330,525,l),
(390,442,l),
(352,482,o),
(311,500,o),
(245,500,cs),
(128,500,o),
(50,426,o),
(50,315,cs),
(50,204,o),
(128,130,o),
(245,130,cs),
(329,130,o),
(378,168,o),
(413,210,c)
);
}
);
width = 635;
},
{
anchors = (
{
name = leg;
pos = (407,161);
},
{
name = nukta;
pos = (36,0);
}
);
layerId = "083550D2-F2E8-44E3-BE3D-E8BDF41EDFC4";
shapes = (
{
closed = 1;
nodes = (
(-10,648,l),
(-10,518,l),
(350,518,l),
(350,0,l),
(510,0,l),
(510,518,l),
(600,518,l),
(600,648,l)
);
},
{
closed = 1;
nodes = (
(701,518,l),
(701,648,l),
(580,648,l),
(580,518,l)
);
},
{
closed = 1;
nodes = (
(681,429,l),
(671,435,o),
(641,440,o),
(618,440,cs),
(537,440,o),
(437,373,o),
(437,233,c),
(510,193,l),
(510,273,o),
(547,300,o),
(608,300,cs),
(638,300,o),
(676,295,o),
(701,288,c)
);
},
{
closed = 1;
nodes = (
(360,243,l),
(348,226,o),
(309,200,o),
(260,200,cs),
(212,200,o),
(180,228,o),
(180,270,cs),
(180,312,o),
(212,340,o),
(260,340,cs),
(297,340,o),
(328,327,o),
(361,306,c),
(303,291,l),
(303,501,l),
(361,425,l),
(323,455,o),
(293,470,o),
(240,470,cs),
(114,470,o),
(30,390,o),
(30,270,cs),
(30,150,o),
(114,70,o),
(240,70,cs),
(330,70,o),
(383,124,o),
(407,163,c)
);
}
);
width = 691;
}
);
},
{
color = 1;
glyphname = "kh-deva";
lastChange = "2023-08-22 19:23:18 +0000";
layers = (
{
anchors = (
{
name = leg;
pos = (621,205);
},
{
name = nukta;
pos = (60,0);
}
);
layerId = "282B1E26-206F-49B4-A55F-166754234F2D";
shapes = (
{
closed = 1;
nodes = (
(-10,648,l),
(-10,583,l),
(510,583,l),
(510,648,l)
);
},
{
closed = 1;
nodes = (
(640,416,l),
(613,451,o),
(559,475,o),
(504,475,cs),
(405,475,o),
(339,415,o),
(339,325,cs),
(339,235,o),
(405,175,o),
(504,175,cs),
(546,175,o),
(591,201,o),
(608,221,c),
(608,277,l),
(583,256,o),
(548,240,o),
(504,240,cs),
(450,240,o),
(414,274,o),
(414,325,cs),
(414,376,o),
(450,410,o),
(504,410,cs),
(551,410,o),
(588,390,o),
(608,368,c)
);
},
{
closed = 1;
nodes = (
(209,599,l),
(221,565,o),
(229,527,o),
(229,477,cs),
(229,399,o),
(190,353,o),
(124,353,cs),
(95,353,o),
(70,366,o),
(54,379,c),
(20,344,l),
(122,111,o),
(223,40,o),
(368,40,cs),
(466,40,o),
(550,86,o),
(608,167,c),
(608,227,l),
(599,221,o),
(592,217,o),
(579,209,c),
(518,138,o),
(443,105,o),
(368,105,cs),
(269,105,o),
(186,160,o),
(126,288,c),
(248,288,o),
(304,368,o),
(304,477,cs),
(304,542,o),
(288,585,o),
(272,619,c)
);
}
);
width = 500;
},
{
anchors = (
{
name = leg;
pos = (660,174);
},
{
name = nukta;
pos = (50,-30);
}
);
layerId = "083550D2-F2E8-44E3-BE3D-E8BDF41EDFC4";
shapes = (
{
closed = 1;
nodes = (
(-10,648,l),
(-10,518,l),
(560,518,l),
(560,648,l)
);
},
{
closed = 1;
nodes = (
(689,388,l),
(661,420,o),
(607,460,o),
(539,460,cs),
(431,460,o),
(359,395,o),
(359,298,cs),
(359,209,o),
(427,150,o),
(529,150,cs),
(590,150,o),
(631,182,o),
(648,200,c),
(648,245,l),
(624,223,o),
(594,210,o),
(559,210,cs),
(517,210,o),
(489,236,o),
(489,275,cs),
(489,315,o),
(517,340,o),
(559,340,cs),
(596,340,o),
(626,325,o),
(648,308,c)
);
},
{
closed = 1;
nodes = (
(197,538,l),
(204,516,o),
(209,490,o),
(209,457,cs),
(209,394,o),
(179,357,o),
(129,357,cs),
(103,357,o),
(74,367,o),
(54,375,c),
(10,302,l),
(99,76,o),
(229,-10,o),
(386,-10,cs),
(504,-10,o),
(609,60,o),
(648,165,c),
(648,225,l),
(614,197,o),
(545,159,o),
(495,153,c),
(471,134,o),
(432,120,o),
(386,120,cs),
(305,120,o),
(238,163,o),
(197,237,c),
(307,270,o),
(359,351,o),
(359,457,cs),
(359,515,o),
(342,553,o),
(332,576,c)
);
}
);
width = 549;
}
);
},
{
color = 1;
glyphname = "g-deva";
lastChange = "2023-06-27 17:36:38 +0000";
layers = (
{
anchors = (
{
name = leg;
pos = (379,173);
},
{
name = nukta;
pos = (18,103);
}
);
layerId = "282B1E26-206F-49B4-A55F-166754234F2D";
shapes = (
{
closed = 1;
nodes = (
(-10,648,l),
(-10,583,l),
(270,583,l),
(270,648,l)
);
},
{
closed = 1;
nodes = (
(105,603,l),
(105,531,o),
(105,418,o),
(105,338,c),
(180,350,l),
(180,423,o),
(180,531,o),
(180,603,c)
);
},
{
closed = 1;
nodes = (
(110,350,ls),
(50,350,o),
(20,330,o),
(20,290,cs),
(20,240,o),
(68,190,o),
(110,190,cs),
(152,190,o),
(180,240,o),
(180,350,c)
);
}
);
width = 260;
},
{
anchors = (
{
name = leg;
pos = (429,123);
},
{
name = nukta;
pos = (84,5);
}
);
layerId = "083550D2-F2E8-44E3-BE3D-E8BDF41EDFC4";
shapes = (
{
closed = 1;
nodes = (
(-10,648,l),
(-10,518,l),
(330,518,l),
(330,648,l)
);
},
{
closed = 1;
nodes = (
(110,538,l),
(110,492,o),
(110,413,o),
(110,338,c),
(260,360,l),
(260,423,o),
(260,492,o),
(260,538,c)
);
},
{
closed = 1;
nodes = (
(150,360,ls),
(63,360,o),
(20,330,o),
(20,270,cs),
(20,190,o),
(84,120,o),
(150,120,cs),
(204,120,o),
(260,190,o),
(260,360,c)
);
}
);
width = 320;
}
);
},
{
color = 1;
glyphname = "gh-deva";
lastChange = "2023-08-18 20:39:26 +0000";
layers = (
{
anchors = (
{
name = leg;
pos = (485,195);
},
{
name = nukta;
pos = (75,0);
}
);
layerId = "282B1E26-206F-49B4-A55F-166754234F2D";
shapes = (
{
closed = 1;
nodes = (
(354,85,o),
(431,137,o),
(485,195,c),
(448,235,l),
(388,178,o),
(324,150,o),
(253,150,c),
(189,150,o),
(143,184,o),
(143,244,c),
(143,303,o),
(191,342,o),
(263,342,cs),
(313,342,l),
(313,407,l),
(263,407,ls),
(183,407,o),
(135,438,o),
(135,491,c),
(135,546,o),
(176,583,o),
(240,583,c),
(220,620,l),
(123,620,o),
(60,568,o),
(60,491,c),
(60,434,o),
(97,392,o),
(166,370,c),
(104,350,o),
(68,303,o),
(68,244,c),
(68,141,o),
(147,85,o),
(253,85,c)
);
},
{
closed = 1;
nodes = (
(355,583,l),
(355,648,l),
(-10,648,l),
(-10,583,l)
);
}
);
width = 345;
},
{
anchors = (
{
name = leg;
pos = (500,160);
},
{
name = nukta;
pos = (50,-40);
}
);
layerId = "083550D2-F2E8-44E3-BE3D-E8BDF41EDFC4";
shapes = (
{
closed = 1;
nodes = (
(391,40,o),
(470,123,o),
(500,160,c),
(450,240,l),
(417,207,o),
(357,170,o),
(290,170,cs),
(245,170,o),
(218,194,o),
(218,224,cs),
(218,265,o),
(255,292,o),
(310,292,cs),
(340,292,l),
(340,402,l),
(310,402,ls),
(235,402,o),
(200,421,o),
(200,459,cs),
(200,494,o),
(228,518,o),
(272,518,c),
(223,575,l),
(118,575,o),
(50,525,o),
(50,451,cs),
(50,393,o),
(88,353,o),
(150,337,c),
(102,313,o),
(68,268,o),
(68,210,cs),
(68,108,o),
(149,40,o),
(260,40,cs)
);
},
{
closed = 1;
nodes = (
(380,518,l),
(380,648,l),
(-10,648,l),
(-10,518,l)
);
}
);
width = 370;
}
);
},
{
color = 2;
glyphname = "nga-deva";
lastChange = "2023-08-19 18:08:36 +0000";
layers = (
{
anchors = (
{
name = bottom;
pos = (290,30);
},
{
name = candra;
pos = (320,648);
},
{
name = nukta;
pos = (300,-80);
},
{
name = top;
pos = (355,648);
}
);
layerId = "282B1E26-206F-49B4-A55F-166754234F2D";
shapes = (
{
ref = "dda-deva";
},
{
closed = 1;
nodes = (
(547,296,o),
(570,316,o),
(570,346,c),
(570,375,o),
(548,396,o),
(515,396,c),
(483,396,o),
(460,376,o),
(460,346,c),
(460,317,o),
(482,296,o),
(515,296,c)
);
},
{
closed = 1;
nodes = (
(590,583,l),
(590,648,l),
(470,648,l),
(470,583,l)
);
}
);
width = 580;
},
{
anchors = (
{
name = bottom;
pos = (300,0);
},
{
name = candra;
pos = (315,648);
},
{
name = nukta;
pos = (300,-100);
},
{
name = top;
pos = (350,648);
}
);
layerId = "083550D2-F2E8-44E3-BE3D-E8BDF41EDFC4";
shapes = (
{
ref = "dda-deva";
},
{
closed = 1;
nodes = (
(631,210,o),
(660,238,o),
(660,275,c),
(660,314,o),
(630,340,o),
(590,340,c),
(549,340,o),
(520,312,o),
(520,275,c),
(520,237,o),
(550,210,o),
(590,210,c)
);
},
{
closed = 1;
nodes = (
(680,518,l),
(680,648,l),
(530,648,l),
(530,518,l)
);
}
);
width = 670;
}
);
unicode = 2329;
},
{
color = 1;
glyphname = "c-deva";
lastChange = "2023-08-09 20:33:45 +0000";
layers = (
{
anchors = (
{
name = leg;
pos = (514,212);
},
{
name = nukta;
pos = (410,20);
}
);
layerId = "282B1E26-206F-49B4-A55F-166754234F2D";
shapes = (
{
closed = 1;
nodes = (
(382,125,o),
(460,159,o),
(514,217,c),
(482,265,l),
(437,218,o),
(370,190,o),
(303,190,cs),
(232,190,o),
(188,226,o),
(188,283,cs),
(188,360,o),
(247,405,o),
(348,405,cs),
(379,405,l),
(379,470,l),
(20,470,l),
(20,405,l),
(78,405,o),
(153,405,o),
(179,405,c),
(135,372,o),
(113,332,o),
(113,283,cs),
(113,186,o),
(186,125,o),
(303,125,cs)
);
},
{
closed = 1;
nodes = (
(520,583,l),
(520,648,l),
(-10,648,l),
(-10,583,l)
);
}
);
width = 380;
},
{
anchors = (
{
name = leg;
pos = (540,200);
},
{
name = nukta;
pos = (420,0);
}
);
layerId = "083550D2-F2E8-44E3-BE3D-E8BDF41EDFC4";
shapes = (
{
closed = 1;
nodes = (
(411,70,o),
(498,138,o),
(550,210,c),
(500,287,l),
(468,242,o),
(406,200,o),
(340,200,cs),
(288,200,o),
(258,224,o),
(258,265,cs),
(258,310,o),
(295,340,o),
(350,340,cs),
(389,340,l),
(389,450,l),
(20,450,l),
(20,320,l),
(113,320,o),
(143,320,o),
(161,320,c),
(140,297,o),
(118,262,o),
(118,215,cs),
(118,134,o),
(181,70,o),
(290,70,cs)
);
},
{
closed = 1;
nodes = (
(520,518,l),
(520,648,l),
(-10,648,l),
(-10,518,l)
);
}
);
width = 420;
}
);
},
{
color = 2;
glyphname = "cha-deva";
lastChange = "2023-08-16 17:30:36 +0000";
layers = (
{
anchors = (
{
name = bottom;
pos = (339,20);
},
{
name = candra;
pos = (390,648);
},
{
name = nukta;
pos = (63,0);
},
{
name = top;
pos = (499,648);
}
);
layerId = "282B1E26-206F-49B4-A55F-166754234F2D";
shapes = (
{
ref = "ch-deva";
},
{
closed = 1;
nodes = (
(460,623,l),
(460,571,o),
(460,507,o),
(460,455,c),
(530,455,l),
(535,507,o),
(535,571,o),
(535,623,c)
);
}
);
width = 700;
},
{
anchors = (
{
name = bottom;
pos = (363,-10);
},
{
name = candra;
pos = (380,648);
},
{
name = nukta;
pos = (13,0);
},
{
name = top;
pos = (502,648);
}
);
layerId = "083550D2-F2E8-44E3-BE3D-E8BDF41EDFC4";
shapes = (
{
ref = "ch-deva";
},
{
closed = 1;
nodes = (
(440,568,l),
(440,512,o),
(440,476,o),
(440,420,c),
(575,420,l),
(580,476,o),
(580,512,o),
(580,568,c)
);
}
);
width = 710;
}
);
metricLeft = "ch-deva";
metricRight = "ch-deva";
unicode = 2331;
},
